<mxfile host="app.diagrams.net" agent="Mozilla/5.0 (Windows NT 10.0; Win64; x64) AppleWebKit/537.36 (KHTML, like Gecko) Chrome/138.0.0.0 Safari/537.36" version="28.0.7">
  <diagram name="Page-1" id="uMiTMbeiSORt4cfQ5fBV">
    <mxGraphModel dx="2037" dy="1070" grid="1" gridSize="10" guides="1" tooltips="1" connect="1" arrows="1" fold="1" page="1" pageScale="1" pageWidth="850" pageHeight="1100" math="0" shadow="0">
      <root>
        <mxCell id="0" />
        <mxCell id="1" parent="0" />
        <mxCell id="COWz8Rfewct7J5CobRBN-1" value="" style="rounded=1;whiteSpace=wrap;html=1;fillColor=none;" vertex="1" parent="1">
          <mxGeometry x="40" y="360" width="760" height="600" as="geometry" />
        </mxCell>
        <mxCell id="COWz8Rfewct7J5CobRBN-2" value="" style="shape=image;imageAspect=0;aspect=fixed;verticalLabelPosition=bottom;verticalAlign=top;image=data:image/webp,UklGRmyxAABXRUJQVlA4WAoAAAAQAAAAPwYAEgYAQUxQSEVxAAAB/yckSPD/eGtEpO45kNy2ESRR/392V6WqexZ7jogJ0C9bn1neoSdmqMIFsoyJfRwRVXRURRxFS9iRlnSjrSbZ9KX+JjO8gE0GiQWOEsqzybOQTqmgsENBxQyhgiaFCmFAyLOc5hliQzSlLU2JTTQl25hEK2hKtCQmwSJNibbEJD1wEA3pACWdND5J3/C9LjRzA7NKhzc6VIzcMaJzmEDvix3pC8ID+QIqywqvUWiJwisI2YbwAqFDxDWii8QloqvELbpMd0jX4UpeSDdIb+BCXkl3+o/ha+msD5zrdc681w/7w/9r2dRm21Z75bJe7VVJciVt49I4CfFAgBAIIQQPECx4QnB3h+ABBnd3dx1gGBhghnFjhHF3P13WH1fvuyn72o9jX/tx3tsd0f8JcNi2kSP1X7su+gMjYgLg//uf//mf//mf//mf//mf//mf//n///uf//lfn//4zKtvf/xp85at2rRt0/rzz5o3efeNF578z//XwV/aDZmz+eDRE2cv37gXn5JdVNVgd3sR0edx2mpLch8kxdy6ev7UscO7lo3+tvH/Y6D1zCMxmVl5JZU2Pz6UzpqygpzM1KtBvf8lwF/jfjOW77ldgWK77h9fM3dUG+3pkf95udFHzVu0+Kzl5599+vEHjV//i/Wjx9qb4SmVSKUzJ+r20bEva0dtBs3ceDz05q3b4ZExcUn30zIyMzOzsjIfpKemJMfHRIbfCbt58+zuJcPb/9li8ddPh58pqmnwILn22sp7P7V7U/957aPOEzeGZFVV19TbnB785/tc9vramuriiL3zB7V4+1HLQ4uFB69XIO2+qOOb+mo6z/dbuefYjXQPCl0QcX7/5nHNrAq9z6XnO1GKZZmRc3WblkF307LLvEhkTd6DxMNDLAafjFwX70PJlh2d+o0W8/X4ZafKkWZv5Obp/d6yBDReH/IA5Vx+99hAvaXFmsv3ipD2huTQIz9qfn9eklntQYnXFZ/4UlP5VZ+rJdVulGJ9RdqKd3S98fvi0QhWnPn5Pc2k5YqD6Sjb+vPbx2h3/3UytQ6Noj8rso8+8vi+pFw/SrkmNWygRtdlWZ4PjaXPdmLQa/pHk6Hby70oc68nYvo3Otzv1oY1oCG9f7Sn3rH4Qg4awYawgz00t3+/WO5Bw1qd1kfbaHet2IGGsTptsb7WfnkaGt36faM1jKmHKtFwRqz/QkdrcqMAjXB9/AzN4kSyAw1pbvhYzezlIUluNMreylUtdIk3R0c70Lh6Kva00cce35eOxrr2cj8d4tszOWh03bfWamKHCtF4V0W10B16R1eiEfbkH9C/vj+NRj1locbw5aYSNNBXp2ldPa7UooGP/llT+PJcHhprb/RKbevzm0409p7i0b/WD7rcdKDx9pYsel3H6h/iQROY9rNmMPcWGvXKXR20q2tVaA49aSM1gu6ZdjTwZSe0qg6H/WgiE8drAjPT0ei7TnXUpvaVoLn0hPTSAH6KRjNYduYNLWpqsR9Np/0U93VOcqNJrNr9W+1pchya0+rtv2K8kbfQTNase01vut6ApjVlFNuF1KLJzJmvL/12YwOa2rAvOO6jHXY0oenjNKXJ8Wh2K/fwW1A2mlPf5S460gUHml9/ditea5zoQdNat1M7Wl2B5th/+XU+++oUmtvChVrRe9f9aJofzOayhUVodt2339KHfrKjqQ5+k8O6R6MZtm3VhDrcRrNdtIi9/n2HDU1y7GgdaHgtmm/XJe7K8aNpth3QfprfRXNeMouxXjjmR1NdMF3vmZiFZt15gK36p6DZdh7ReY540MSntuGp3XY04Zn9dZ3eMWju65cyVP9INOferXrO2Go0++4r7LSgFs26776G89JpVIG5fVmpSSiaedtS3eaFNFSDVUsZaXAemnvPNb1mZDGqQtcxNtpWj6b/fleN5rAbFWL8+yz07B1UgfYV2swlVIvp3zFQr/uoBr3H9JgOqagaXUvYZ6kXlWFKcw1mbAEqyF3McxhVYvEE7WWuDZXkddZJQLXonq+5rENVmdiWbQYVo3K88KjOcs6nLDC/JdOMq0EFmayvPBWDKtPRm2U2eVBJ5nbWVD5PRbVZ/xPDXPehoiyboKeUoup0z2OXm6gua+ZqKINqUIEe4ZXmaagy/ce0k/7VqEK9Zznlo0xUnAc1k6F2VKQX+GRYASrPq1rJogZUpre5ZFw1KtA7GskoJyrUUB6ZWIFKNEwbWeFBpRr1Hwyy1oOKNL2xHrLYhoo1ij8Wu1GZJrTWQWa6ULmGcccaByrUtC/1j6V2NKI+79/1GxUM5431aFh9fiOC2S11j352NIy+3Kirpw7u2Lxx/fqgJQv/96Ily35es37Dxi0795+6FpPnNBAYzBkrXEbCU5YWEXr57PFDBw4cOLBt0dLlK9at37Bp6+5DZ28mlBgFvN9M7xjjQNm7qstKUk9M6/A4PJSPtZm+N6G0rNouP7zGF5t9KHtvXUVpUdT+OX3fgX/+q98sOv2gtLzWLTfMb6lzDKpBqVfEXj8f1BUE7Dz31LWIYsn5z3HFAh9KvSI+9OKW4Y3hYe+3+vyNuCqJYfLHGkc9Sttff375uC5Pgcjths8/Wez3SwtxLU8sakBZ+/3lFxeM6foCCPtMt/FLb9T5JYWxb+kaHUpRzuWpd2YAmQPOpeX7JOVZzxGznChlZ27Kqe+AyJlh6WUywiRdIwtlXHp240AgtvWqI0lSQsdofhhYiTIOPzj/UyC1/6azRfLBG3rGfZRuXf7W94DoxpOSa1zSQXcvbhhairK11Vwc9CKQ/Nm6/Dq/XDBUx7iGkq0NP9wCSH9k+Z082WB5d2YoQbm6E6+OBMpb74uokQqe0S92o1xTgwaABNvOCfXIBQt4IQmlWrFnxItAfr/FqTLx79EtFqFEXdmHQaLL7lfKBBOfYYRElKc/91pzkOb+XJss0L9dr5hql4fr3BKQ7JCTuRLBM3wQitL039z0CEh19pV6SaBroE7xbTVK0lO+oilI+M8jk+zSwC1ccBQl6S3b1Qzk+9aiYpcUsKy/PvF4BsrRcXcJSPvLkCJZ4AweCHLJwRW3BmQ9NrpeBljQSJu4hnK8Mh6k3mlbtSTK+3FAIxdK8cZ4kPmPJ2SAibrEeZRh6TkwgBOLPDLAvEfVX6d6lGDFJZD//lL68JYeMRklWHX6YzCGQUkywFDl90Iq0l998Gswgs33F5Pn3aZD9Cinz72zGRjGx2fk+enDw6rvGpJv2/0ZGMV3d1QRh9hHf/hbFlJfffavYCzX5dDnmqP2NiP1ZWfAWJ6rJK62l/ZwFakP+x4M58c7nNRhjdKb5KDuencwmv3O0IaJ/6Y5BCHtnvSnwJieriMO0/6g7lrUIunO2GfhiraIclGGV/WG72tpywsCwzrkDnH+w+ouGklPXQhGdVEGZbhGa8hFyh0nPgYjO7mSNMTvVd1ppNy24xkwrm+spaxmlMZwHgn3pT0NRvdkHWnVn6q5pV7C3GF/AmPb8q6PLMzTFxZ5CHOs/jUY33HJlOE1NVeDdJcuBeO7oowsvKYrdClDsr1hT4IxXmAnDHequPtItussGOPzLqp82zSFOCS7YiUY5j7RhLnfUW/7/GQ9mApGeWERUVj9jZawDsmO7Q4G+pHtPrIwUbl18SLVwe+AcW5xnSh8oCMMrqGqbg0Y7C5xZOFxxfbHEiS6YCwY63nFNOERDSEBic4ZBsb7io8qezu1dgqJjm4FRrt9NE32SdrBOqTZdwUM+aQqojBfqS320eReCUb8kIMizPuNZtDHTlPtCjDoLdOIwv0qrRJJzhsOxnx6KUV4RjMIQ5LLBoBhf/0YUbWD1Vkwkhz5KRj1zikUOSdpBVuQ5Btg6KfXkYQpymyxiyLXbjDyJ930YN6nOkEdSSfB4I8oIQlXKrIXCpBg+1ww9mtd9OApjeAuEly3Ggx/i2SSyr9UY2eR4JwfwOi3d9CD7bSB+U6CygeDGTxPEd5SYmP8BEW/Dsa/fRo9mc/oAg+Q3oJeYA6PU+Trp8LikN67j4AZ/DCcHNyqCexCepPANC5toAfLFNhhJNd/AMziSXJcHbWAZg30xICJXGSnB/eoLyc57sNgHndTgxFaQBiSGwymcmYFPSXfqK4IpNa2CszkTmo88zWAaS5qfJfAZHYpIgdDFNcCJzUNE8BcrnDQgrnN+S8DqT0HprNvITn4ltJ68j4S2zAfzOYiPy24mf3mIbH+PWBC38skJ0NpbUZia7uB+ZxTTwty3zOFxHiPgSn9uIga988qq46YqlFgRud4aLnOfAeQ2ONgUnvmE4PJz6urS0hr3Tgwp8vdpNimsl7LSlr858G0NsonBtcpq2E1tNj6gVldYKMEE/7AeUeQ1hAwsX1KiKlSViFIqm0xmNdFpOAoxvvARcstMLVDSmnBfYqqO5LqnAdmdq2PklLGu4qk3geTO8pNS3EbNZVIim8HmNtdlOBmthtURUrO+2YHNnpJwV1Kap6LlHNgdi9QktmY664ipcVggjf4Sal/WUE9n4yUngHze5UQ3MN1fkrqhpshOEYK7lJQU5DSRDDBbyYQUsN015FQ5wowxyGkVD+mnvIpSWtihgAq6cDNLPdtLSU7wSQ3vk8JHlFOM5HQyu5gjr+vo6PyTY47hYTeBtPc1ENJ9qeqKZGSWWCWF9GBBxiuaw0h8Y+bJ/jRSQhuUUxBXjr8G8E876GjsCW/7UQ6bT3ATG/0E1KpmOKRzutgpqPIwJ/5zU7ITDDXIYTgFKX0LdJZDKb6+VwyathtK5LpPwxmO5+QTKUUR0dtb3MFLTxU4FpuS6Uj+ynTNaaeDsd8hdTdRoZ/M5jtQ2QkM9tqJNMNJnwNHXhbId1FMkPBfF+jwvczr90jw7vWjEEEHZ5WyqhvNRkFvzJhbxUTgRGs1gjJvAum/LMcMnC/MtqBVNpmgxkfQQV+xGkXySgGkz7HTYZNGdnIOArm/BAVIZxWScZ8swYXyfBtVkRTkMoCMOnvFBJR/Qc+O+Cn4hyY9xIqMFERZVPh+N6sQXMfDXiczX4fi0SWtjFxsxxUOCcooekNVBwF836GiNRGXDbCS8UsMPMhVOARJXQGiSwFE98onQaczGVnkMgYMPelVHhV0Me1VHQ1czDaSUM4l9mJqOln8hZRgcMV0Ewk8haY+4s0+JhsLhJ5BMx+KBUPFFABEYVtTd6TlSTgbh5LIiIfTH+feiIqeymfbk4itoDZD/KSkM1iXUuImGb+4AAReEj5XEYai8H8Z5Jgn8NhB5DGCFCB5UQkvaB4Ps2kwTdEAbT0UYDnOCyGhvrxSmA1EdhT8cxFGiNABd4goeIZ/mqJNN4CNZhIxC7Fc5mG2n5KoGctBTiUv9bR4AZFOM5HQ4Xi8dJwCdTgMRKi+auAhtOqAOJocLdUOl2QRlCEjesoqGOvrjYSytoqg04+EvC60kmiYacqgBUUeDdz10kk8TSowzAaUn6lcN4pIaH0W2UAFQRgOHfFkFD1kUIYXkdCw0SFs9FLwjlQhzsoKOrKW9/XknAQVOIdEnCnwrmKFNaDQnwvlwBcxltLkUL/fyuF12mIVTdNCkk4rhLgAAWXeCuChCOgFm+SgOpmFFJY/4VSgDoCkLeQwuphimGqm4QJyuYkCZdALe6moD1nfU1CNKjGeBJilU0tBbXDFUPnWgKucdZVCvxdlcNiDwVlqqatm4IYUI3nCMjnrBwKskA9VlFQP1HRHEEKOymH0fXiVf/IVwMrKZimIJZTgBcUTQIFeaAek8XDI3y1GwksaK4gPqyjIFzNdC6gYJ2C6EvADb66QMElUJGXKShvr2SWIYFFXRUEVIpX1YSrXs8ioLqXkpjZQABOVDIHKbgOKnKreDiYqzoggZmgJnMo2KJk7hPgGqkkhlaLt4mrZlAwSVEEUZCjZJDAYlCTUeLlcVUIAW5QlRT4VUxvCn5WFMu8wtm5qpqAYGVxjwBfBwVzhIKvFAU4hXMN56ln7QT8pCxmEYDHFUwxAaGgKk8Kh9d5aoZbvKzmyqJjIQGJ6uWFMgJ2KIsfxIvhqRAU/y6oy1sEZLygXObZxSvtqCzezhEuszlLxYrnnqAwlrjEqx6pXM6h+MmgLs8K55rOUe+ni+cClVknHq5TLtcJWKEwljpFw9UcNcEmXrDSiCDgoGppnEoAqMwC4c5w1EoUf6LSGE1AqGrp6xQvU2mEC5fJUbvFc7ZTGm/6xStXLRNQ/M1KY7BwyFHh4t0GtXlXPHxOsWwQzztOaYB4TzNUrXinFcchAtorlhDxHjRRG/eFm8xQKHz9NMUxrV68ZYqlXrxboDbXC3eTn94Qr/BRxfFitnihisUnnG+H4pjuEy2Pn6aI9wBU533xStTKF+LVf6E4Ps8SrYifroi3SnmsFq9SraxA4StBdUaIVtmdnbLEe0N5NBKvprlSuS7ebeVxSjTHYnYqFA/Up0c4+1SlkiTeROUxyCEYnuKmV0uES1QgUcL5DyiVVPGaKw+oF+0CN31XJdwBBbJBOLyqUprnClf7rPooEC2Um1a5hFuiQCaJd0uljK4RLhTU5x7Rkl9lpmMoumOcAunfIFykSlnpF+6IAhktWkVbZjonXGZzBfJaonCpHyiU7Sj8NgXSRjQcwExXhIsCFRoqXFk3hbJfuJpxCuTNctGGMVOYcOFK5KpwvlEK5axweU0VCESKNo2X3kgRzX9AiQS5RcPpCiVSuDRQoadE28hLLYtEc05SIn1qhZunULKES1Yih0Q7y0vdnKI1fKBEoEK4lQrFLtxxJbLKI1giLw1E0etAjZYLt0udPIrCT1YigyoEq+GlH4SrVSQZwp1TJ2+I97kSeTdfMBcvTRAuTpEcFS5anXQQD9Rohk4wT7gjiuQn4bLVyRBF9kAwNy8FCbdMkfQWrk6dzBCuUpFEiNaSlXYJN0KRvC4cqpP1wkUqkq2CeQay0inhuisSUGfHhDujSKYK5p3CSreE+1KV+JXZbeG2KJKvBfMHsVKicJ+pkiJldl+4ZYoEBMMDrJQtWv17qiRRmRUKN1uNXWGlctFyX1AlN4V7Q5mUCzdZjUWykk20lMdUyQXhPldmE9VYLCu5RIsCVXpUuB7KpEK4UaqkRh+5pUz2CTdIldkHqpIcweJ0guvKZJdwP6qymt6qJFmweJ3gsjLZJtxoZVIpWmlnVXJXH7mgTLYIN0GVFbRVJdcES9AJziqTzcJNU2W5rVXJRX3kjDKbqcqyW6qSM4IlWjE2CTdNlWU2VyUn9JHTymyiMmumSo4JlqQTnFVmY1VZ9meq5KRgiTrBeWWyWbgRqiy3tSo5J1iCTnBRmX2vyvLbqpJL+sgVZbJFuF6qrKSTKgnWR0KVyVbh2iiTCtGqe6qSW4LFs1KNaHeVyU7h3lNltgGqJE6wOFbKES3216pkr3CPK5Ny0fwjVEmWRhArWuYzquSIcKDKcKIqqRQslpVCRSt7Q5WcYpPJqsQjWAwrnRLN/Ykqua7MsoWbqUpQ8JustEc0bKVKYpRZvHBL1NhJVtogXHtVkiOaW51cF26TEvNvYaUFwg1QJU7RCtXJbuFOKJLPBPPNY6UJwk1RJSh6ojpZJtwdRfK9YN4RrDRUuC2K5DnhgtXJWOFKFMkawTydWGmgcNcVSSfh9quTHsL5FUmIYO6XWKm7W7RcRTJRuHXqpLlwqEhSBXMBK7csEq1ekewV7id18oJ476uRDJ2gUaoaixJuhjr5nXijlchvcgSz8xKEi2brqkZKhZugTqBSuL1KpFupYDnMFCyaZ4UaqRCtqrdCSRQuXokscgp2g5nOi4bBSuTLatGyPlMo14VLUyJ7UfC9zHRUuAglssgpWsxjCuWocDlvqZAToi1gpp+doiX8SYWcRtFvg0LdLVzlDyrkhmhjmOmHGtGKuqmQG8KFqJStwuFGBfJCnmhDmOm9UtFwrgJ5Jk64kyplvlO4gwqkNQru7MZMUCjcKgXSuVQ052KV0qdUuGAF8p1o2R9xU7ZwFxXIRBS9totKeTZDuOLH1MdG0e4CN18UrkKBLBeuEpTqfeHwQ/VxX7Qr7DRLOFQgV4WrUCsJ4g1RH3WinWWnRuL1VR8O4eLUykHxzimPbnbBfNvYCcS7oD5Q+K1qZbJfuGLlscsnWO0IfnIKl6M85ok3UK085ROu9gXVcRcFL3mZnyKEK22jOu6J96ZaAa9w7uWK480U0QqAn/cL512vOjKEc4FizREOrymOsQ7RUhhqhXB4QXFMrBXunmo5KF7Cs2pjHYq+jqEm2oVLfl5t7EDhj6uWBeI1/KA2QoXrwFDNMoXDHmrjunjbVMtI8fBnteEXDjg6RrwVSuNFu3C2maqlU4V44UqjA4pey1J3xUtXGj1Q+NyWquWJGPF8SiNYuDCWmu8RzvV7lREiXjIo18vi4Y8qo0C4LSz1il043xaVUSXedfWyyydeuMKYVCfcYpaCOuEwWmFMdAjnn6he+taIl/+UujiBopf05qmr4pX1Uxc3UXgfKNhS8dwrlcUr6cIlAE/PFQ+DlMX7aeLVqJh08fCcsuiOwkcyVVcCEpTFXBT/mIpZQUDV+6risHDe1UzVuEA8VBYXCZihYt4gAEeriirhHO8xFQQTsFlV+MRz91cx4CQgTlGM8whXB1y9m4BSRbEMxY97RskEE+B4W01Eo/AX2OqHKvHs89TEfQKugZLdSgAeURLdisSbwlaQIx6GKIlRNeK5VqqZyTYCUl9XEZtR/PZ8dYuAus4q4jSKX/6WmnktnQDfHBWRK17843z1IwG4SkG8VUFAPijaaALwqoJoguKfAcamoE5BLEICV6maeV4CUEHEiudazlmxBPjnq4dcCp5TNeCm4Jhy6FAlXtGHnLWKAExSDlPcBBSBsk2joPgt1XAOxU8Bzv6xngDHLNUQgwQeUjdLKcDdiuGLMgLms9Z/xxOAVxXDKDsFy9TNdySkPqsWliKBwNvnKcCmaiEUCcx4V938OY4CnKsWGghIY65BdgpuqgWkMAIU7lkScpTCOiRwC3NBOQV1fVTCdQq8U1XOxDoKfHMVwssPCHCO464tFOBNhfB9LQUNoHTzKMC0/1AHG5HAuH/hrq9IsPdWB2eRwhtq5wQJvvnqoICCi8DecRTgXWXQ20PCD2oHSMBcZbAUCbS1469DJGB7VXAbKSz4WPGUkoDTVEExBUXA36OqSYhTBH3cJJwHxbuLhjxFcBQpXMdgkEyCe5kaSEYK66eqnuH1JOAhJdCpggLfuxwWRAJmKIHZHhKKQfnG01D2mQo4gRRGAIt7SMDVKqAISdygfjZ5ScBzCqAtkriFxy7TUPOe+duGNIICttPg72z+YkgoasNjU2nAy6bvs3IaIlTQLRow2vSt8JJwD3j8+UQa3FPM3l2kca4K6kmEf4PJ+3UxkticyeAkDZhr8oZ7aMhqpoKeyaABK03ecSSxBLj83WoacLu5q0Qaz4ES3ksEXjR1P9ppWM1mcJOI2iFm7gTS6HhLDX1ZSoRrhol7NQ1JrOzBZ+2IwAgTN6aBiEhQxOFEYOor5m010hgGjB5LBG40b9lIZDdV9CQVeNa0tUEabUM5bRMVdZ3N2lEkMvUJVQRZVPgHmrU4IrKA0z/JJQLjf2POJtqp2A7KeBEVmPWmOTuKRE5kNThKBZ40ZR/mIpEFT6uj9x9QgSGmbIibiFJgdjL875ixYKTyMCjk42TgMDOWg0Qe5LaDVGBlM/O1BKn0gFKuJMPRznxFIJEFrbmtl50KvG26BtWQcVYtHScD4581Wys8VFwBdr9BBq4zWb9KRSprB6ml9/1k4BGT9ZgPifS+wm9jG8jAcebqMpIZDIr5PB04zVQ1z0cqrwLDx9NR0M5MbUAyHQNU06haOsq/M1NXkUrPYI57iQ5MM1GzHXTcBuV8kw7MetM87UYyrwLLh9OB581TOdLZSj29SQjeNk1z/GTYJvDcNAcduMcsJSOd10FBhxCCJ0zSsEokMxaY/jYh/iBzFIV01gxTUX3thPh2mqKXS5HOP3HdIB8dWNfbDB1DQm+Dkg4jBF09zVAU0hkGbH+TECz5zvxs9xHiBjXdoYYQrBpofu4inXUj+a69jRAsMD3LHUjoaUUFZyjB4qZmJxgJvQ6Mf4USvG9yWnuQ0PJOquoPbkowz+TsQ0I9TTmvSSklmP6amRlqQ0r3g7LeSgpmNzEzB32U7AfW30UK3jcxbauQ0oon1NUXhaRguolZ4UFCy5vzHtSRgrG/Niuf1SGpk0Fhr6cFE03LGgdSuh+Yf6mfFIwxKd1LkdQUUNpZtGD078zJKjtSmgXc/6dUWjDMnFQiqc7ZamsyMXjPlEyxI6mj2Q96OGjBpFfMR586pPU6KO6LxGDyO+ZjqxtJjQYN8DIxmG46ulUgrc7XVFfvOmIwzXSsdSGp9cMX4JNqYjDtXXPR1YbErgPlvYMazHzKXOx0Ia2XYQI3+IjB3K/MxKIGJDblafUFJdRgblszcRGJLQY98JEsajCvnXlY4ERiHTNBgS/2UoNlfzQPZ5HahZoA/JeXGmxYbRaO+pHai6DEr5KD9YtNwhvRSO0t0AZPkYPeLeYgzI/UVoEaf62WHHRsNQVfJCG1tT/oA+89IAf9Z03ACzFIb5Aig6X0oPekCRhViOTuAI1wpoccxIhPjN4PeUjvDVDmUfQg3jN8P3mR3GzQCoMJwozexm5+OdLrbKHOhtQRhIldjN1BD5LrGKcXQAlBiD8ZuVNI8TRQ6CspQucSA/dJPBJ8AjTDWQ6K/MH/bdTahCLF4aDUkylCPGLYRhUgwQ9AOwymCDHPoPUvR4rL26m1/pUkYapBW+VCivvpB1BIEjZsNmB/2Yc0TwTFvsFPEtYsNGCtY5DkHaAhTnKRhP7bxivNT9MtUO6RNKHrhuEalY8kZ7yqI8BxmhArFhmrNbVIc/oH6u2DKpoQCyYaqlfO+5BkxwugJ8YQhXjqA+PU7A4S7R4HCn6ukyj0HDJQE1OR6DWgKbZwUoUlfYzSnGKkejco+bNUIaa0M0qHHEh0FGiLs91UIYb1NELf3UGyw0HRZ5GFeLiVEZpVhFRng8Z4ni4s32R8dlci2RWdVV3vKrqwYJbxue5EsofpDJBHF2LaIGMzKhPp9n8Hyn69hy703u1obIIqke7doDW2qSIMfWe/MS7fXELKD4HCP0cYYt3OV4zL1BgkPBQ0x2VuwhCrtxmVbdVIeQIo/RTKEEsmGpUbdiS85hXdAXaThli19vfG44k1VUh6Jqj9dvmkIWbMNSAtTnqQcntH0B/jaUNMnG805iYi7faeig8mEIe+kJ5GY1cuku5ZAxpkiyzi0JM6yEh0yfIg7d4NoPy3EofoutbEQDw1p9KPtJ8DLbJfDXGIGDXHKCyIQfIPAANeog7Rda23QfjtxlykPg00yaX0oT2tvxEYk+BA8sOBA19OIw+x4ubbRmBdnh+pL26jS8BW+hAxd/nrcvtocS5KMPlvLABQQR8i3p0suU676pH+6i9BnzwtA8SUY6/Iq/GRDJRhWW9gwu9rZYC+qHUSG3SlBCXoXQQ6ZZIUEGuutJHTZ5fqUY69gA1nemWA6Kla87qcBifaUYpHQKv8NEMOiBix+XPZfLkuHiXpnAGMuMUnBUT0BS9+QjZD9+ahJE+AZtmtRhaIBSHdZPLVrUKU5iZgxUuyQHRnH/6NTKZHV6EsY0C7/NomDUQs3/K9FP5j8NpqlOhhYMZr0vjfqQu7S+HViSfdKM/YF/ULmGKXCKLn3ulu1A04FuVCmV4HdkySCWJ16M4PqZt+OQllmtUCdMxZUkHEmvztf6Xrze25dSjX6D/yQ6MMqSD6qu7PJazNpRIbSrWyJ+iZa91y+d/lJ1b0oKfritNlKN0HwJIZcvm76fvnNaNn+LoQB8q2ZADommf90kHE4sRL/SkZcjGpECWc+RhPzJAQojs7dt8XlMwLS6lCCac31TM+HZ/mRUl73Tmbx3Z/QbSXe4zaneXyopx9edNasUOr1cVeKf1vjz125dD2/ypa4wFTT1Z4fChpX/q05trFd6cLUPLOhGsnl7YTpd3Cc1eTXCj30vN9WWF8cAXKvube5aOTPxal3+ZzN9NR9kXHf9Aq2qVXoyF0VhTmX5zR7OFqOuVaTlGFHY1gdWJzNpiaUo/GsL6s8MGRoS8/XJ2XRRcUVXnRENamdNMlumwuRcNZEHZy25qfZ43o3vKVX+DXr37Wc/jMFau3n7hVjEYzb0NLBhiwvx4Npz8z+PDmoOUzRnzzyfO/wH817vDD1EUr1+0+F2NDw1m6uqsG0SSsCA2rp7YoKyUxPiYqMvLe342MjIqJS0zNKq7xoFHNufyc4hscUoHG1V1bmHE/IS4mKjLy3t+NjIyOjU9Kz69yonEtCmmiN/xpRIITVbPtei9198LIFDeqZ1d8vz/oCzuSUU2HLFRzH27LQFWduEVT2JmLytqRPkbB7S1Fhe3L3qQfDD6Airti/idK7bvTblTdrn3faQW9btSi+s7cpc5636pGFV554Stt4NN7DlTi/tL1v1NiPe7ZUZU7rnyiBcwOR4VeuvdT5TX9Gip1b+go9hsaZ0e1XrBVbbVOsKFqr438jPUmJKCCr1/6ibIaFY9qPmwE202+50M1n7VDTY2J8KGqd10dzHKfJDlQ2ftyZqunlnftqPJtt55gtwnhqPiT56iloRdQ+XuDu7Pae9frUfk7kz9RSDerkQPLTvLZV4eRBz03eqihZodsyIWuVU147EwlsmHD8U8U0NYC5MS8rQy2rABZsWaG6ulR6kNe9KUPZq5ZWciO2QtUzvRk5MjbIxmrWaILGdJz82tV89FVJ/Jk3TWuan3ZiUzp29tYxbyxzot8WbvjMYb6l61VyJiFG9TL2lzkzbRF7NSsyIes6b33tlppFu1B7nRG89KACGTQfZ+pk7ZHkUW9p97jo0NVyKL5y1TJ2kLk0ozlTNS/DLnUG9lahXRP8CGf+mLfZaBuYcip9TuVx/vHvMirtmPss64cmTXxa7UxKR/5NW0I64zKQobd/Ym66HwTeTbkC7Z59JQTWTZnmqrYVoZcWxzEND0qkWud536jIjrG+pFvvdHPMEyLm8i5RdPUwyRk3rp97LIgD3nXcVY5DOQexHvtWKV5OPJv5dBH1AJsZR/0bvoNn/xcghycBorxmQT2QYzpyyVhHuRgb2/VAF+7+Afti1kkqBJ5eDWox58YCDHxO/4I9iIPx4OKjOYgLA9ijknFyMTFrZTE5wUchHj7E8Z4cr8fuXgaqMlpPISFc/giy49cHAKqMoSH0HWKKTZ7kY1TX1cW72byEGLejxwR7Uc29o0GdTnFw0RYu4kdJhWgkXTb69wmwFNvd8tqK6jMg1JyNth8JsBRb/cZCfTfep8X9vvQONbdD5sCMPlevcFriJkKMP5GcpWMEkBtZkinMO58J4BN8T6DV3z7E/jN+ruZHuOAWDCOEf4ajsbx9qZRT8DfHX3Y0B0ZC3/3kaHrQryyqe2tOEbXS6XmyMqu8PcX3DByZZu7wd9tOmtHpnHAhk1sMMaNxtBecmcA/INBOQ5D5sxfA/9gl+CieplMBdW5RRoVhRv/AP/g0QKPIatO6wz/4OKUMq8xQIz6nAeOuNAQpp2dC7/kwqv1hst+dQn8khNOJPpkcQfUZ6IUqm7tbwO/5IbbbsOVe7IP/IKNtlwtMQZYMIIBfh2HBtBbvrv/2/BLd11b7jNQvsp13eGXfrHPmnyvDLJbKJA+VdT5nWEz2sEv3nNvtc9A+eLGfAK/dOsJF70+A4DexcpvRglK35F68SP4Jw8JzTdIhbeGwj/7aEotda7JoEJX+0grjJgL/+zx4fnGyJa2D/7ZYyLz5Id45yW1t96Osi85Mgsexi/WhhqgO2vbw8M4Zn8GbYdAjd6myxu8qiM8jG23hBufyqNT4WFs/XOoR3qY+bHCe+suyt1Tfq0jPLy/+ym31sDU5i98FB7eD06VuMhKBFVaRVNN5kh4iP9zeXatcXFWhLaAh3hyeo3ksH6tsut+H6XecGsjPOzdj8W5DIk7/sS38LD/HFJBU+0QZTLPSY834Vg7eNh7Ho12GpKs0MXwsLc+lyQ3xIOKblo5yrxodT8Q8c+DV2YYDX/m6iHPgIhdlzygaAWo0xBqbMe/fw5E/N2ghSl+g1F3eFozEPGV0RcdUsOwF1TcJpR48c2uIPLqxHy/QfAXJm4EkT8LzqcmAlRqASXlqWNB6HkJ2W6DUP7gVEsQ+eeUWolhwSD1dg3lHbu1PYjeYvWxLAOQe2zNlyB6kw1hpBS1Virj3WQUHBgAwr+69HCc/CqubB0Ewo8/XSUvrJ6t2Jrlo6T9tVfaAZFNZqfV2KVlr0lf2OQRoLHN+Wo/Fc45IPHHGn/Zc/joCTMXrt11MiQiMbvE5v3HPXUl2fcjgo9tX7No5sRRQ3t88d5jcoNjNDQkd/s1EPnuiDvVdX5JOWpzt7b/E9D4yNQMm6wQtyq1ceUo6cSDLwKpo87dLZRQUcT58UDrvjgiToKM//jlhLWnL18Ni04tasCHvK4gLTrs6qXTQeM7/oekIJGAnPOfA61fHQhLdUmnMOrqNKC1/51yWWHIn9XZNCfKOXzek0Bvp2nr7rgk4r67YVoXoPdXsyIoyALJvv3D2vCCkrLKejcK7qqvKivJv7nh+w/k84VwWXNaAcHvj154slAenrvr53YCgntsrJAUZiizMyjl4itA+cyI7AIbcfaC7MjZvwLCg4tFq/1eFm2nBO04m+BGku0Jp3asmdZBHrDSL1Jl+KdA+Td7MnLKvKTVFmTemQ+UD862SQkrhquxKJRx3tGPgPoPZu8/E1tDVG3cuf3zPwTqmxzKE2sTSPC5KWfikvNsSLw9Pynu7OT35PCnOHEqD/QD+ruvORKcbCep+PbpfePeB/JnBXtkhDVzFFjLdJSvO2ficyDH//io44h1cTUNdhcRbntDTdzGEZ0++i3I8flJJR5xYoD2j/pO2ZvtdHlRml6XI/vAxH5NqYPn6sTwlixrDLJ84tOuY/Yk1TbYXBR4HA0NZecX92/TCGTZ5qBdQujarbwGF6F0nfGTQbpfTT8dHpWcUytQXc79qLtnZn0F0l0Q5xakrAVhvTedCctDSRfeOb+lD2kwXwR/7AqQcIvpR29Hxj8odQlSm3M/OuL6ygF/BOk+cTxHPojXFdeoMpTujYkg6xe/HL7g502HryeWPVQViSGHN61YMLLtSyDraeFCeFYA1TPjCiq9KHVfZUHiKsIg4uGLnwsSb9J3yrKgLUeDE8seFkfG3bO71/+8YHjbl0HazbdWygdDlNYuL0q25gYYxd82HzRj/YmQ2Ae5ubl5eXn5fz8vLy83N/dBTMiJDTMGt/wNGMTPIhsevrNAcIvZW2/60ThGbvmpNU2PZj1cdXFgJB9p1n/cvNU7TgTfCo9KuP8gIzUxNvJO6Nn9mxZPH9bxTTCQM3O9ssEHbdXVHpSsM3gIqNkJt70PWT6Q2/1wdKYPjWZ2zKXBBMGIh8l9bQQo2vXpssHMXqrqEsrVeeVrULcdo30PU8NkUh5pOfV2ncOPxtRpvzen/Z+JgdMPjffat6Bu/zap2C8XLJuspJ6/hVKtDXsJ1O7AaNfDsxvofGHe8RgfGt2Uc6s+IKVx+sNRG9oZFO+KZLmgZ6aCeuEeSvXCcFC/s+MelmQgc0xMvh0NsbswdS4h8KP3Ybg9EhTwlhKpoH2pcmpZhBK1hX8CavjHDN/DUNOchoErw9FgZ20e/99EwKZ/miPpf0ARLymXCeIuxTQ4DyUaNxHU8ea8f577ZyDw41PRNWjAPXGXh9AAKf+k8Fmgjp/ZVykTPKiUBtWgPIuH/w5UcpO1rn9WKAj/5uLcejTstrJTn1AwoPKfkTcb1HKHMy6J4EWFNMGN0sxaDer5Qu0/pRwE77slGg1/5sGxwsGqX65wDajnV8Nt8sCrL6miKQ0oS/uRt0FFD4/+JzimizUhsQxNYU3mDtEg+hdybW8OSnpSojwwTBFNR1k6Q0FZDyjy/1LHQNw3xx7xopmMnf6VUB2Kfwnb1VdBWc8olAbef1YFrfbKImI8qOzdFb9MEgjb9sh9NJ2FlycJBEu9/1jCSFDaJ6tkgYmt1c8aH8qxYgUo7va3fglHD1F6RNeiKbWVLBAHrv8jNZMfBcXd+YYsMEf5bEE51p4BBd4//R/yrgAhh+4oQRPrPT9bFCj6v6o6BCr8x2RJYMHXamenRw63RoAa39PwD4SBiIMjq9DkOtO3CDLL/n8ROQgU+cFaOWD2pypnB0qxcA4o88ejvf83tfDwt5pZ4kcz7Dr+rQhw+v9Q1R/U+dOhXilg2Rvq5gDK0HYFlPqy7P+TY8JD1+dcCZpmV/giASD7fzUcBbU+N1UKmN9d1ezzySBzFCj25lf+D8HwkP9nTA2aamfBoodvtBMxdRio9pdP+WSAxX9SMwdRgtUbQcG3LvxfqfBQ/2ZpEprwugNdHjLYVboUVPxr930SwMqvVcw+rwRu9wUl/7cTXnR2eai2paBJLw7+4uF6phEo+h11EsCc1uplC9JfEQTKvmfBHnh43w+q8KN5d4X1fZgUfuMECWCJctmK5HtigEVb7C5Gs399GoMArC2hDzPaqZUVHvLsi4BF95SjAmy4/xqDwDfR9GGqUlmC1HvDgUNbH3CgKkycwh8A86vIw6zX1MkSN3W1q4FDD+ejQvSEj+QP6B5HHka+pkrGe5H4uO7An8+sqkTF6LrbkT3g35b7qcO7imSCF2mv2wH8+e9rilFFBg/mDoAeCdThRSUysBppzxsD/Dkiy49qsvoSe8CTp6nDIwqkgxNJd58F/pyQhArTvuMT5gAYm0scHlYe3xYi6aULgD2/Dfai2sxazx0AMcThRsXxQTqSntwK2POAHZWnN+tL7oBNHto8y9RGElLu2AfsuakM1Wjod8wBHQtJQ5ysMoKR8rIFwJ394lCZVhxgDmh1mbaKH9TFFaQ8+gVgzs+voVKtmMobAEF2yrC4r6rYi4Q7LwJ3bi9H1XqnF2/A2GzKMFtRrPEQ5pwJzPlZmg/Va91m3oDWsZThPSWxyI10Z/wKePPjC6ho8+axBsBeJ2F4V0G0qka6z78LvLkoG5Wt+9ITrAErqgnDQ8qhZQ6S7dkEvNnkNipdxwjWgFa5hHk2qoY0JLtkOvDmjgpUvffacwZAtJ8sbJihFm4i2dm9gDV/E+FH9Vu2hDUe3U8X1iuF80j2NeDNLR5Uw3FdGQNgvI0sLP1UHSxxUeU/B6z55R1UxqVBnAGjSsnCGGXQyotE168D1pzkRIXsj3ieMeDjTLLwpCLoWo5Elw8EzvwiHBVzxUrGgMeukIVr1UAyEl3YCzhzTDEqZ/clxgA4QZb9RxVwA4lOBs586goq6YJJjAFr7UShu5H524pEhwFnDo5HRe3YyRgw104UJjxl9mY4iToAnLnChuo69h2+gCmlROEFk9fIhiQ7NwBjfnEDlXb1DL6ATx4QhTvMXQzSvAAYs00xKm7HEb6A5g+Isg83czeQZPsAYMzNLlTfiW3YAiCCJizsZN62Isllw4ExI/yowktm8QXcownTTFu3BpKqWwFfdktDRW7bzhdwlSY8atJaFiHFD5oBX652ojqPeJQt4KifJPcyc3YPKU5vB3x5yIsqPaEbW8AJH0VY1dqMrUOKE18Ctnw1FhW7bR5bwHovRZhtwiY7KbrTCNjyx2xU7zvYAjbZKcLTpuvjQiQ47tfAlmNsqOD919kC1noo8i40W1FI8A3gy52o6NPbcwVMcRGErrbmagsSHPoMX9z0qjos6csVEGQnCONM1YQ6gm4BW76ajEba73E7nQ673fZL2u12h9Pl8RkqdE7lCpjpIgjPmKk8pPcasOWAAjTCzrLM5Nioe+GXdy0dP/CbVo0eg1/0iffaDRi/YMPRsHuRMQkPCmsNEboOcgUssBHkmmGeLiO9UcCWfSrR4JaEH9u6etnU75o9Dg/5B9+MWLhyw6HrOT6Dg75TXAGrPfRgpWla56UnDNhykxMNqr2sMOfMT22BxleHH0kpKKnxGRTEmJeZAqZ56cF4k9ShEsmNeJstdnnQiGbfuXhk3udA7cvfbz9/LcVlSDCNK2Cbkx7vOnOUiOTeB7Y87UNj6fe4cg5MHPAR0P1mt5FBNx1un9HAzM5MAZu95KDzCzO0FclN+pgt7qChrEiNXvsVSHL2zcR8r6HA0mFMAXt85GCKCRpWR07R58CVN9FAZh7bNPgPINUOi3ZHeg0Elo5gCrhAD+4zPw+Q2qImwJRN76NBrCu/0w9k3WZ3fpXHIKA9iCngFD3OqWbnOFJbPgCY8ov7aAjLw04PAbm32Hg93RigdwVTQAQ5WGByxtjJaQtM2S0TDaDr1LTOYAQ/HL69wG8A0LWJKSCGHDxjaj7JRWLto4Epe1aj7Oszb3QCQ7k9sUJ6iHuYAhLJccwyMyeR2qXAlAMLUfJZR6aA8Ry89Y70/DuY4r1cajD3v81LT6R2NTDliBqUuavs7BdgVF+fWVgvNcSTPAFd8qjBk6alcS4xvpPAlCOrUOJ5N34CY9vl7H2/zPAAT0Cvemp8E83KEST2LjDlsAqUd9LyNmB83xh72SMxPMgTsMxNDKa8Yk7GIrFpwJQ/eFHS3tyzj4NhnptZJy08yROwxkcMXjInWcQUNGeKEeUo6dA1/wWGeuK5WlnhXp6Aw9Tgh2bkFNJa3gZ4clg1ythfc+ZrMN7vzCp1ywmP8gRcpSbLhPxQS4vjB+DJ/lUo4+QDYNSn3WuQEu7miRdjiPHvMx/JSKp/D/Bk13yUcPz8/wEDP/KwlHwbWQLeqaMFG1qbjZVI6xHgyfZVKN2aWDD++4vkg7idJaBzPS2YaDK6VNESCTzZPA1l23D+ezCDjfZnycezkCVgkYcWDDIXN5DU1A944v1ElKx7Z1swiy8vLfZLBhsWsQRsIya/rZmYjqSW9wKejEe5lp55AkzluizJoH0iS0AYLXjNTBTSMgV48hpK1X2mO5jN95aVywVLOrPEe3m04Fvm4SSSuhF48hbKtO48mNOgQqlgYReOAKimJc80DKkm5Qbw5GGUqP9yXzCtJ8plglk8MddNim+rWbiDlBYCT272SCRxBJjZlqd8EsFoloDjpGD51+ZgKlJa24YnljtRmhlTwex+ftslD4xgCQglBW+YgxxKPKuAJT+rR1nWBz0NJnhBujzwGEtAKSm+DmbgFFJ6EliySxlKsuHcb8AkL6qRhm8jS4yqowTTTUCnakrSgSezUZKJQ8E8Nz3tkQQ2TOIIWEuKN8j4XUNCS3ryRATK0T79z2Cqx6VLAp0sAdcpwTLD9wMS6p0NLHkOpWg/C+Z7XaUcsLgVR/xnFiV4xOjFU3IGWHK5WwpZM8CM9w6WA0ZzBIxsoKSuvbHbjIQm/CdLdEcZOnaAWZ9WIgU8zRHwMyV419iVEFIzADiyV5UMEvqBeX862CsDDOIIiKLEPdbIrUNCZwNLJqAE1z4Bpn5BuQwaRnJE6wJCMMXAtbQRcg1Y8hrSH9cGTP8NF31Y05ghYKyTEJxl3M4hnQUtWWIjku86BSpwcQV9GMURcIySjF8ZtaE2OhzjgCPn2snL6w9qsFEEfXiZI+A+IbjbqEUinUeBI5+oQuLd10AdbqwlD1dzxNA6QspfMWZNkM40YMkoJN4zG1Ti6Fzyap9mCFhPCG41Zg/oqBnCEpeQ+MS/gGI84yEO899lCIglxPmeEVvopGM7cORkF3H7fwvKcV0NcRjKEd9U0oHnjFg8kpkOHPm7eiS9fCGoyC/zicNFDAHbfHRU9TNe05HM2m854tUUJD3pI1CUV720OX9gCIigA68ar1wy/PuBI3ch6WGPg7JcShvef4EhmtjoQMO1xUfGfeDI4Ui5YzmozMFFpOFFhoBVPjoiDda7GUilqzVHvF9IWekkUJsdo0nDOQwBUXTUjTFWy5HMY8CR15HwzGagOh+9TlphJ4b40EsGXjFW5WQkAUduR7r9YaBCt7kIwwSGgLV0+HoZqRlI5mCOeMxG2J4/KBFYW08YrmeI51LJwJtGqoCMI8CQv0pHsl2LQZV+W0CYrTc/wJA6MtxdjdNGLxUFTTlin5+s8imgTl/OpgtT3+AHOE4Ghhmmp9OQSM8aYMjmbqS6og+o1HeT6MLtDAEVZNQNN0pzkcp7wJG5SHVic1CsN/1kYU+GmOOhAoONUi4V3nc44hBSHf8eKNdzdKUyBESR4TdIs71U7AaGnOCg6uajoGA3kYWnGeI1OxV4xhglIZGZjTgiG4k+C2p2o4MqV19+gN1kVLU2QtPcVMwBhtyKRAeDqp1PFT5giLdzqMDDRigGiYwEhvyxjqgDoG6HOIjCo/wAS9xUlLY2Ps8hkbZuHBGPNJ8AlTvDTlTtQH6AaCpwhfG5Q8UZYMjlSLLvMKjdrn6aMIkhniKj2vD0rCGi6CWGaGKnaTOo3uF1NOFifoDjVOBSo3MMiVwKDBmMJJ8A9TvaR1Phq/zQuYSKeIPzRSkROcCQi7wU+feACu7uJAlv8gPsoMK9wNgsRxrdsziiECk+Dmp4up0k92B+gAIi8IaxKSciGhhyO1J8AVTxCJIwjyGmUIFPGpmfkEZXe4YYWE/RSVDHC5wU4W5+gHtUnDcyMURcA4a8hgSHgUre7KeotAs/zLITUWFgJjXQYG/BEJOR4FugljdThMH8ABFE+A8Yl9NI40lgyGyCkl5QTHDBTxB+wQ/PEYGJLxgWJw1lXzHEZqS3+HNQzncpus8PcIUIHGNUViON24Efu5TQU9wLFHQSQd51/NCziohwo5JHgw0Y8hiS6/0BVHTjHHow90N2gCtE+AzKIicN6xmiEZLrmwVqukkhPbiLH16toQHPGJPbSGLuZwxxmxz/dlDVfe30OPkBjhKR+4IR+baWhgPAj+Ps5FwFdb3JSw5e4of37DR4VxiRrUhiEfDj4wlIbRKo7J301I5gB9hDA94xIuU0rGSISUhtcVulBaHkYAg/dCmjwfeG8RiMJBY/wRDF1Nhbgdp+OYkc/IYd4DQNuN14RNOwHfhxFRLr+QlU97el5CTxA7hoqDQcnYpJKG7JEGnUXAP1/SM5zmn8cIYG5xyjcRBJ3AX8uAuJjQIVvspPDCb+Dzt0qyYBI4xGMgkOYMhiYipAif86jBr/FHaAqzSUf2ssWiGJ+xliOdJqn6PGAEqJwSx+6FFPAq4wFmdJqOrOENXEbANV3q6eGJzKDnCXhixjUUHCTeDHPX5aokCd7/QRc58fvqYBDcUKNwX1XfmheTaSWtpYoUEIMd617AB3aThnJO4ihZHAjyuRVOccUOoltGACPyx2k5BvIHqUktCJISpoOQZqfYaDFuzHDpBOgnOxcViJFMYDPy5DUjNBte8hJpUfgkjAi8YhjoQNDJFOSvUA5QYptLhGsgM4SSh9yzAghVl/44e1XlK2g3pvYScFo/lhOwk4zChsJuEo8GMsUhoDKn6dhxTHWHboVk/CXaOQRoEP+LETUupor+QgnhQ8zw5wk4R6gzCmhoLzDBFNiS8IFH09KcgPk2wUeNcbg4NI4Uh++NJBSTSo+k20HGcHyKcAIwzBb+IpiPkDP9xAQl2g7u+QUvwRO8wiobCrEfgaCfTtAHb8tpSSdQqvUy0luIcdwEEBLjcCiyiofIUfgpDQlOcUHqwnJfVpdjhDwkUjUETBWeDHKkJsA0DpJ1OC49lhXAMFaAAa2Sl4mR96I6EnQe1PaKAkgR0gmYRv5HfIT0Ay8GMKISWg+i9S4mrFDuv9FNyTXxwSuIYfxtXR4Vqg/KCcELzKDmCjoPgJ2fUuJaC4Bz+cQDqTQP2vpCS7GTtco8D+k+xWI4FhwI5Ny+hw/YkB4C4huIkdelOAF2R3lQDPMH6YgnSeAQ4cayfkATu8mExB8kuS8xFQA/yYTkdRaxaAC4TgM9wAxynA3nJrgwRu4oeObjJ8m4EJGwgJZofulRQEye0SBX344TKSmQdceJCQUnaATAoy5VZIQASwY8scOtqxwYvpdPi2s8MYClxSG1lDwF5+WIJkRgMfLqcDw9kBKPD9LLMjKH5FR364RoZtCiNANh2e3uwQQgBGyOwWAUnAj0hmCHDiYDpwJzvMp+BBI3m1qiRgOj/MI8PfkhUeiaGjnB3a5RHgmCav4Ugg8GMeGSeAF6fYyPD14QYIIwC3y+sAAWH8MKyWirp2zADhZOANdpjtJuCevMoJCOKHE0hlMHDj+3Rkvs4NYCMApfWqW7z89uzw+n0qKr9gBwglA4PY4QIF3WW1yideDLDjAKTyHPDjRAcZF9jhBwqOyyoShfdu4oc9ZABHRpDhYof3KgkolNQzqeLZf80PVVScZYlBbipwEDfAJQIqPpXTiBrxsoAdW/mIqB/FEpBGxl122EaAa5WcNqP4M/nhBhIZCjzZi4yq/+CGDwvFw6tyOkfAV/yQRoR7IFM8nkyFO4gbIIWA6MelVClewu/ZYVI9EcnAlRt9RGAIO/xMgK2XlFD848CO+5DIIWwBuVTkf8kNQABOldFw8RyL+CGeiPRn+WI7FTiOHYoJ2C6j2+LlATs+jURuA8b0UnGUHbYRkCejEvGi+GE+EcWNOOM0FVXsMI0An4RaVIg3hR/SiDgNnDnaQQQ+xw2fZxHQTT7r3OIBO/65igjgzQgqjnID3BYPT8rnAgpfwA9LnDTEMkeQh4hUdtjvFy9RPhHi7eCH60jjHOaAciJKe3JDq3rxst6STdti8WaywxvJNKQ15o49ROAGboAK8WrGyuZHFL6wEzv86KXhAnDnZ1ScZIeL4uEm2SwU7y6w4wokseED9oAQIvJ/xw19CDgqm1PineeHMBpSgD83EoEfc8PbBNyTTblw9uH84KVhDIO8m0/EQm6AePFcsvEJVwPs2ApJrHqOQeAGEcnscEw8/EguncTL5Id9NJwHDu1ARA07bCRgolwOovBL+eEBCY4FLAJlNNh+5IZOReJdl0useO3ZoUkeCTm/5ZEdNOAJboAH4hXJJVU458vssNBJwmXg0REeGu6yw13xKqXSNl+4cGDHA0jim0zy2xgaMltwwwzx6vrIZLpNuKP8EExCFXDpWRp8E7gBxHOvk8kOFH4dOzxdTcIWNmlXSwIGsYNdOAyRyRHhyr5jhxZIoX8sm0ARDZfY4ZZ4t2VyV7gMYMeZJKQ05pOdNNSww0rxUt6VSI1w8fxwm4RLwKdv04DsMF68+gHyeByF38sP5RQ4ZjMK5NPQixu+rRIOJ8ujg3ht2eGVWgoqgFMP0XCBGx6NFm+JPOaKB+w43UHBPVZZ5iUhkxsgRLwD8jgnXDk/XEAKx7BKyzwS8v7KDcfFi5ZHkXCn+eEuCcCrsSTUjOaGEfXCueRRIdzP7PB6MgWxzLKJBNzODc9WCofSaFot3CR2GFRDwV5mAR8JJ7gBSsVrIYvxNtHq+rLDHCTQvZBbqki4yQ4x4s2UxXavaCnvsMMqCnKbcctpEnJf44a14h2XxXUU/Saw40UK4oFbJ5KA7bnha/FSZBEq3FV+KKBgL7v0bCBhIDf8p3jpkngkSjTPZn5AAn3N2OVPUST8zA1QLVzOM3Jonila3RB2+AMFLuDXKyRcZ4d7wpX2kEO/WtEqX2KH7ylIYJjtXgrK2OGUcA2z5DANRS8DdjxGwXKGaV1JQQM7bBMOd8thjnDp/JBMwWiGgVIKbE24IUi8A3JYLdwBfsgioLwjx9yjwD2TG4ZVCXdSDkeFG8sObxcQcO/fOGYOBXiSGz7MEi5EDreFa8UOgysJCAaOfZeEO9wA94WLl0O5cMCOqz3i+XezDJAQxQ4JwlX+TQooupMfDqL4tYN55j4FSU9xwy3h8GMjlMIPJwgoBZ49RkFee27Y4BeujQz+JtxlfrhKQAHTbKDAMZEb+nmF6yeDHsIdZId/jSbgBtP85CUAl3DDXz3CTZbBfOG2sUPjUgKmMk3XQgpWcwOIt14G+4Rbxw5fIoFvMc2/3KdgJzs4hTsjgzDR7DPZoTMFwLWxFJxlh2zhYmWQLlrxt+wwhIBStgmmII4dLgtXKYM00bLeZ4eZBNxmm2U+AsrZYbtwNTLIFO0+sOM2Ag6yzdduApAd5glXK4HXckVL5IerBGxkG3Ay1Fjh6p6j74tC0RL4IZOA5VaiYcI1tKZvYLloN/ihQbzKH/jmPgWfcUM/v2j2ofRNqhNtNz/Ui5fTmm/OUjCUG76uEM05m77lbsF8s/mhQbxk4NsgCn7mhvcfiObdRN8OFNz7LTu8YhMvlnEmUHCCGx6LEg1P07dPNM877NDRLl404wyiIIob4JZwofQdFA7YcbxLvJOM091PQB47BAsXRt9RdlrhEc63gnFalhGQyw4XhbtD3yl22usXzvM947yeSkAeO5wXLpy+i6I18MMlFN7VmHHgLgEF7HBKuEj6rouWww+3xXMC514joPB33LDDJ1oMfeGi3eOHcN47R0BJE25Y6BAt6UXy4kUL5ocI8Rysc4qA8i7cMKletLQPqPvjA9GO8UOkeMWsc4KAqgHcMKRGtOzW1D1fLNp2fogRL4p1Nnt7taO5oVOlaEXfUPdqtWir+SFOvAuss9Deq5/GDU3LRSvvQ10jh2gL2eFPieLtY52RNT3HIm74a6loNUOoe98v2gx2ePG+eOtZp1tFz72aG6BYNNsI6j5G0Sexwzup4i1mnc9Le75t7FAkmms8dU2FG8sOzTLEm8Y6rxX38CA34XTqmgk3ih3a5Ig3hnV+XXgAx9ihULi51LUUbhg7dMoX70fWgYIDOMlO86lrI9xQduhaKN5g3skbhAXUtRPuB3boViTeAKtRgXA/UddeuO/Z4dti8fpx3yl2yDc6HYUbxA69S8Tryzu5L1S2cAup6yzcAHboW2Y5e2B0uorm68cO/cvF62M1ShFuEXXdRPP0YYd+BPSyGiUKt5i6b0Vz9mSHPqXi9bQaxRidXqLZe7DDt8Xi9eC+k+wQKdwS6nqz0zeFlrMI3aZTvni9Avx9nSdeH+47ZvVrkyNeX+7bY/VrliHed8zn3WT1a5wmXj/mc62y+j2bLN5A3snr2RdY/R5JEO975muYbvWDWPFG8E5+r3a05S9avPG8U9ir6mf5ixRvOus8WdQra2f5ixBvOeu8X9IrbmT5CxdvC+u0LesVPqLbdOeHMPGOsc7g6l4+aDaOTvxwSrwQ1pnZ0Mvjh0iT4y/MzVPhRYsfpu0+4eJZJ8h9Kmn5eSo8x2ZylPmWh+knt3BVrHMI+1kPkwN5dAQ2P0yjncI5WecUAbcfJptFrb2d9c4QcMD695iN9S4SsND6Bw3CuVpwzg0CfggAUC+cZxzjPB1PwCcBAKqF829inE/yCYAAACnC4TXG6eQMCHFRvFjG6Y8BITaJF8c4QwkoCQQwWbzUp/hmNgH3AgF8J15BJ77ZScCZQAAdxaufwDd3CdgZCOAzj3C4hm/qCFgVCOCNfPE2842TgMWBACBSvBNs84ZLvLoRAQEuihfDNqM94uV8GRDguHgNbLPDL17SXwIC7BEP2SYaxY+EgADz7eK15JoEAsIDA/QoE28p03yaJZ7/UGCAx/PEi2KaCfXiucYGBoAs8YqYJgjFt70XICBavPK3eGYPAQ0QIGCjePXjeeY6AaWBAnqIh0d5poKAa4ECgIDrPIMELg0cEfcMx/SlYGDAgBTx7L055jwFbQIGHBUPJ3BMAQE5r+gYPXlqOQEbGeb3ZQSEgo7RhacmE5DJMNNsBBznqYXUfclTXYrE8zLMcSRwF0/9RF1TnoIY8Xy9+eUWAdXDWco3hbrX63gqTDw8zS5fFBKQ9xhLlfWiDhJ46hgBSewyDAnMApZKeYe8Mzz1XYN4hR24ZQMFx3gqHMjfw1NQI57vZ25JpmAQT52jb2glT+WLh4e5xUMBsJR9MH2QwVN7CUhllu/9BNTxVCVIcD9PfU8A/huvhCCB13jqrAzAz1KNKJjDKw8oWMZTTaVwl6X+NYuARFYZV0uAbyJLRYMUR3s4Cs4SUMUqO5DAzBYc5VosB7jJUlsJcC3llHAK7gJHxYEkBzs4alS1eBjMKV4KLrBUP1nALo6CDAIym/HJKCTQNpSjToA8czkqhgCcwCfRFNQCQxW2kMjIaob6mYL9fFJFQTJD2caBTFf4+QkoqGOTjR4K5jLUOpDrcYaqJACbcslNpPBzfgoB2Z7ipwMUhDJJpxIKCv+bna6CfI+y0zQKcp/hkXlI4QXgppsg42Pc1K2CAPcyHrlJwnZm8p8DOU8r4SW4QwBe4hGksPgbXqqdB7LulsxLZyioe4FDNpLwAFgpdSBIfLqDkwbVEYBTOSSdhOOc1LAG5P7u+TI+glIK0hlkSj0JTfio5lJTkH7PIw42ukBBwyf8cQgpdAMX+Q4PBmM4PLbIwUItKMDL7PFUCQknWMhdGj8GDOQLS07czHAwwnZBoIGC9Pe543skcaYgHkZwZdw6tfozMJxvtevVf+gIHhzdTJTLFOAC7rhPQuFXggwdwYPDh/bv1f5N0FSDSIhljm52Em5CwMJviihA5riAFHq3By6AKBLOscZX+SRU/SWAwXI/BcVvcsYSJDEFAhl6KMCdnJFOw7SABvdISHuGLzogiV4IaDiHBOzLF5E03Aps8FUFCUlsMaKWhjWBDSCEBPd3XHEeSSzoEOAgyE0B3mKKpnU0xEOgwxISan/kiV1Iom9cwINgEvAoT1TS4ICAh2/QgCxxBGk8FPgAimg4zRBt8ogYFABhFw3lTflhDdKY9HIAhH7lJOAlfqgn4hAEQoyloboVNyxHGqu7BESY7SUBTzDDnwuJiIPAiFU0eN/lhQNIZIcACYdpwKus8HEpEZUQILGth4a60ZxwDIncHCgBbtOAtxnhDw4iqn4ImLDSRQN24IMbSGQUBE7MISKdDUbUEuEZE0BhGxGeIC64jUSWQSBFPw2Y/SEPjEAq5wRUuEgE7uWBbCoqmgZUmOAkwsEC+5DKcxBYMZwIjGCA9uVUVA8MsDDfQ4Rzpvq7iFTGQqDFfCIwW/n1RzLfDbgwkwrcrfieSycjDQIuvlRMRfWXam8rkrk08ALsoAITHlF5LT1kJD8egOHLUip881VeJFLp3wmBGI9QgU6Ft9pLRgUEZnRSgaHK7stiJHNVgIYTZHgWq7obSGbF6wEauldRgRXvqbl5SOcOCNR4lQy8peQ6ldJR2iZgwxe1ZHhXq7gbSOdhCNx4mgws76beliOdDRDA8U0PGRin3F4pJ2RfIAfYRwduVGxPpiKduc0DOvQoo8M2Vq0dRTr9+yGw42k6MOt1lfY1EloJgR5r6cDrCq1NOSWLAj5sIwSD1Nk1JDQfAj6+kU5I7ThVtgkJ9a0I/ABrPXRgoSKb4KHkPgSCzCUEbymxr3KR0qEBIb6mxH9QhSUjpfcgMGQ0Iegcqr6OIKXOwQEihtcSgvamqmutm5QLECjyHCWY0VRtDaxFSis/DhgBTkowRG2VIalBEDjyJ1Jwv8J6IxNJzYIAks+nkeJbpa5CkVTXvEASMMNOCbqmq6otSGsEBJa8SgrWdVNTSz202BoFmAA/KZj+iYr6zoG07oFAk8tpwYyn1FN3P9J6/3cBJ15MpQXvKqduhUirYzYEnvzOSQteU0x/y0JiQyEQ5Sli8JpSeiEWia2HgJSvFRCDe1VSCFK7JTAF/OQiBo+poztIbRgEqrxCjW+rKjqD1Nq/DlgBdmLQtV4NnUJy10HgypleYtCzWwUdR3ITIJDlPWrQ+5P6OYDk1g8LaAGl1KBrm+o5j/RugMCWM8lBzw61cxjpTYFAl6HkoHuLyjmJ9FYPCnjxQRY5iKfUzWWk178RAl+OIQgPq5qLSHAUBMI8RBBeVTKPxyDBNR8ExHg9nSC8o2DaxiHBrgUQGHOgnSC8o1zezUSKr0KgzAUUYd43aqVXLVKcD4Ez71GEecNUyoRKpLhuSACNJlkUYf1cdTLXjxT790AgzR/dFCGuVSVH/UjyDQisuZcm3yk1ctuHJBf9IcAGXCEJMaGF+mjzAGmuHQaBNlsU0IR5fVTHoGIkei0E3mxPFLrGqY1VdUj0DQjEuchNE/ouqoxrSPWDlwNywAWiEOOUxYt3keqG3hCgM4EqLJunJiaXI9X+vhCos1EhVejZpSJ2upFq/1EI3Dm6lirEu28oh1g/kh0FgTzn0oWV09XC1AqkOxMCe16lC51nVcIhG9Jd8U2AD7hNF2L2t6qg930kvG46BPxMIQxrD6iBjbVI+XII/Nm5nDDE6A/N35O3fEj5eQgE+mM1ZehZa/Zm2ZD0KxAYdDppiJGtTd0dN5Ke/EyAENhIG3qCnjBtC6uR9oJPIWDoMdoQU0eZs473kPjyARBANII4rDtqxoLKkfoBEFA0ljjE+plma2QaUu8eD4FFP0unDn2x7U3VLRtS718HgUb/UEYdou3o26YpqBzp3wqBRz8vIQ+xbL05mhKP9PtOQiDSfnb60PegrwkKt6EEr/9HQBL40EkfIkaONDdfnfSgDMMhUOkMmwzQEfyVidlZiFKMfTpgCUz3yADRdvzfTcqIMj9KMekxCGA6wy4FxIbTX5uQ9Q9QkqkQ2HSZWw6IxafMxrz7fpTkg48DnMBoryQQ/du7moe3ZuWhNLMg8OnPdlkgVl7ubBK2pqI8H7wWAAUWe6WBWBf+JxOwutKL8sx4FwKiznHKAxEjfjJ2vU7Uo0wfQKDUFS6ZoDtls3H7LqIUpZr8QcAU6O+RCSLWH+ptxD74KcuHck2EQKpja+SC6ApZbrT6nc5G2UZCYNWBdskguvJ3G6mRSTUo3ZBnA6wAlMjmf99c/r4hmnCoHiV8GQKujkqXEWLG1UGGZ1+cDWXsy7jQIZDKc11OVHtQ1u7SzV2NyydT4x1+lLarcHHHACl9jiaj7COOfmNEXlwTXIGy99zY8kHgk4EPKtEIlmdvNhq9E4o8aAR9xSEfBzL5/bgTDjSQ+Zsmv2cQBi+9hYYyf0O/ACX/vS/RhQbTkxa6Qn5DzkdXo+GsCFsceOTJb8NtfjSinvr0FW1eldVvPx0WWu1AY+qu3NM2oMg3e7PR0JZe3j1BPh3WH09Gg3tj9WOBQj6NKUXjW5uVuPpFiXx/I7PYj8bXm3M0EEiXlYVooBO2zhryLm3/1mHCiov1aKRDpr8R2GPg7VI02raUsCvrW9D0X8OOhkYXovFOOfRh4I5xGTY05p6aysLQxS2e/w0ZT7w3aEtMZXUDGvX64M8CcnQ8VIKG35Z8cde2lWPbCdRx0oadh4LT0QRGLXs+0Eb7W8VoFn01BanJCbdPLev35EP0dP9VZyKS76cX1qFp9ObsCKTx5pwUP5pQv8/nc9eX3A+/cmznqgVTx40ZPXrUqJEjR40aPXrM2HFT5q3cfiQ4Iq20wevz+fxoRl1newfIaLQ/FbnaGTE3EMahSj8ytuPBlAAXY88hfxdt+zxwRb+EemTxvFN/DEjx8pQsL7K570SPwBO70pDX3SFjAkuszPYju9fHPxkwov2GBmT6uDmBIY4VIt97o+YEfHj7YAPyvjdr1H8Gcmh+ugY1wKTFgRsOFaMe6HrQOyBD+41e1AhT5gReOFqEmuGd6YEVNlegfuhK+jpgwu82FaGmeOfHwAjTH/hRW6y5GgBheCbqjb797QMbjIz0ofZYejCAwQe3bKhFliwKUNDhAOqTmYsCEWwvQZ3SHdU20MDsAtQtfZc+CyQw/g7qmBWHAgeE2lDTzJ8YEODNQy7UOFNHWv/mp6PeaQv+rbWvRbwftc+Gn5+07jU+7UQtNG2mVW9mIeqijhBL3o9pqJVues9yd8aGmmnWWGvd6Co0tH5PZZ5HPfiyq9yGBp3XPrbO9Y5CI+vOjt32IUCPe1VqoSasH8BfdsdleYwLYk2QVW5XBRrYmL3zPoW/P+S0Qx24j42Av99k4a4k44K+lLescMOK0ag2lN8cDP/o2kqvCvAVbod/dOC9cpsxQfSdaGp1+1OoG42pPfrcBPhFt8T5TV/sLvhFp1+MchsSxJw51rbpJWhIXXd/6vso/NJ/GXHR1LlDhz8Kv/TvBi+M9hsRdF971rrW8S4aUHf2nfHwTz+c5TNnvpwj8E8fmZDjNRyINUusamtK0HgWHlr8GjyML626ZcaiVj4LD+O7K04XGw50x1vSOiei0awv3dEcHuIm+8rdZspZtf8NeIg7Hi+zGwvEug3Ws6O1aCy9CZe/gYd++c1as1R9bwE89OMvphsLxKi+1rLPk9BYVuwZ+wwIOWBdiRkqXd8XhPxw0kGHocDaTVayfV40kM7si01A5C+v53vMjCfvViMQ+cvb+R7jgBg/wCrWJRoNZMWZRSD8aysv1puVuuBVT4HoL6y4ZjMOWL3NEvZvy/1oFP32qBFvAY0fjL5v85kNf0PSlEZA47szH9iMAmJ8Z+tXr3g0ig2xe54DSp/fEVNqJsoi9zwGlL5+PsljELBms9VrWRUaxPqto4DeXivCzULoyr5A7mNTT7uMAfpu/8bK1SUejWFFTEcge0JsscvYOYsThwLZ01OqjQCib451a3ERGsLkPV2A9FdWnUk3bvcvLnsDSB90NtsIoPeWRevXV/wof7/r9HfPAv2vf7ss0+k1Wl7Xg5U9XwL63xwd5ZAfYulgK9bkXJS/6/52kOjP4fcbjFNdavgSkOdvzj+QH7ovWq/22lD+52b+O8j1jxPWXbUZIVvwxjHPglzfWBEjPcSYFtaqQekoe2fhapD0v25ML60zLrWlWateAUmfL/NJDr3rrVRBNSh5X8hSkPrYoyGpfuPhT7t2chhIfUei5BBvNLVK/SXYh3J3Hh8E8n9n4OzjlV6vUfB5y89NG/guSP+5Qfd8csPar61RI3NR7ml7wEB+czA2rcQvN39xauKuXmAcn7pcKDX0HrZCbWxAqd8LAsPZ6+c959NllX5x18oeYDTbr8uRGWKi5anZXZR57a33wLC+Mf5wTkWVzScHX0N1RfbRke+DYe2f6pAYVi62Nk0qRImXBjcHo/vepD3Bt2LyvZR58uJCr+0Z1xyM7tQQh7zQd9zKtMuG8q5f0wEM8mNfDZ+2dMe1bA81vsxruxdPH/bl02CQvz/vlhZi/OdWpaaxKG13xmIw4o/0WX4sLjUtM7e01i2Gp7YkLyMtNeb0kj5/BCN+qkBa6JxhTRqWgdKOXg7G/t2e45fv3LP/yKnLt+IyCqoc/xxHVeGD2LBLpw/v37tjxfjuH4Ghf39PsazQdcSKtMmDknYm/wBm8rdPvvh64w8/bv5F+05de/TqO2Dw0KFDBvTt1eObTu2/aP7JB41ff+HPvwET+YdpNV45ISZ8ZDX64CJK2hU9AZh3031JYfFUa9HTeSjpe8OBf19dlisntK+xEi31oJQbIp8BJp6Y7pUR4r3GlqFgF0r56mRg5DXpUsLU3tagD+JRxq7o/sDLfxlX5pMQ1i6zAo0pRAm74gcAQ69PkRDiDuvP4mqUcOIE4OnnN1VKCEOtPldQvt60fsDY6yrlg6U9rTzNb6F8MzYAb396qF46WD3PutO/CKVbvfJlYO+OF1yyQf82q85CN8q27BDw+Gd37ZJBjHjOkrPbjbI93QPYfHyybDDDgvN6CErWee9tYPWx+X65YPlEq81HqSjZlFnA7gfK5IL1P1trmlWgXGsXvQQM3+qcTyro2m+lCWpAqVYeAa5vGumWCeIt68weF0o1rC8w/tI8qWBkE4vMDZSpP2cQMP/meplg+UBLTCzKtHQv8P9XwT6JYM1060vTRJTp5XagBU7Llgg6f7K6jC5HiSZ0A20wqFIeiJutLTMrUZ41e0En7HFOIr5LVpZNHpSm99bzoBmOz5YGYuxfLCu7UJ7Js0FDPFEjDcxob1E5g9L0HH8atMQB0dLAakvK6xEoS28i6IszS2WBtrHWk49iUZbVm0BnbHNJFlg702ry1yKUZfjboDlOL5AEOpdbSwaVoCRzFoEGedUmB3QftZJ0qEZJhrQALXJcrhzQf9g6MtGPciz9GrTJvTYpIIZZRZbbUYr+C2+CRjkmRQ4YZQ35yY9SrBwJeuWLJ5xSwEgryG4fytB9HvTLTvlSwNRnLR8HPCjD0qWgY753RAqYaPU4gzL0BoOu+W2BDDC7u6UjxC+DilWgb75xSgaY/6WFIwRlGPclaJ0rqySAud9ZNf4cjRKs2QjaZ5SfPqweY9GIRQk+GAwa6E4HfVg21Irxpxik33Ec9NDnc+nDqukWjASkv2QmaKMnvORh/TDLRSzSH/sVaKSz7eRh2WhrxWspSL5tK+ilL98lD+2zLBVpSH7eeNBOT7mpw5qJ1oknk5H8kL+Bhjq8mDqsnW+V+I8UpL5+HWiqcX7i0DXOIhGH1BdPBF31Dzuow4oRVohnk5F4/y3QWb8tJw4bplog4pF4+0HQW7veJQ4rB1oebiPx1b1Bez3upw2Lh1kcwpH4qL+CBjuvlDas7GlpCEXid/0FtNj+2bRhzlcWhhtIe80s0Gav0YZFvS0LF/20ZXwPGu0xB2mY+5hFYQfSHvEJaLXj6knDpBctCTt9pLn3gm77ZCZpmGJFWORCymvXgH774RXSMNx6MBlJL2gFWu42L2UYbjWYYiMt+THQdBfWUYY3rQVfOJDyS8+AtjukgjI8YiX4zo6EO9aDzvtmOGV4wjrQqhAJb5gBmu91yrw/WwYKkPDilqD97nHShY4Z1oA3o5DwyJagAS+upwtrRlgCLiPhN58ELXh6FV3YYAU4jXR794A2nEMXln+h/W1Duv1rQB9+K4kuTPsPzW+dn66qBaAVX6ULY/S+cUh3Xi/QjE+4ycJgna9fKV253UA7Xk+Xb4u+91URkh0FOvIIJ1WIc7S9ZCQ7BvTkiTVk2SdpereQ7GDQlVvWUYWVPbW8YKTacwj05ZYPqMKCtzS8lUi1ZyfozJ8nUYV39LtFDqpcE0BzDqcKQ3W7b6uR6Np5oDs/d4Uq3K/ZlSLRtuGgQV+hyrVcp/tbMhJd9Slo0YeIwrrRGt05JLqsL2jSu4jCEn1uJRJdAvr0Fi9NmPJ7TW6Gm6isphoVrPbThDf0uM4VSHNeU9CqNxKFq3S4RwqR5gzQrZc4aPLN1OBCkOaU5toVLKQJq7ppb8eR5hTQsZfZScIi3W0B0hz7qJYFc20k4TW9rUU5TYlvgKa92EuSf6PO9m4OkpwA+vb0OooQZ2tsEUhywgcaF8zwk1TeSlvbgiSngt69wkkRxj+hqc12kJQMuvciJ0UYpqe9XIUUpzfRvmAlSbhUS8tEirNBB1/ipKhhvIZ2AinOaq6Fwc8UYcEb2tliH0Wl74ImvpMivKubNXcjwaVPgza+gyLcrpnFI8HVfUAjP0SRbZRWdh0Jtj0NWvkJgrDqWY1sFRJcMxQ083MEYZg+9kEdQY6JoJ3fJQj36mLv5yG97gmgnz9yjyDPDE3sHNLr2Qk6evNMerBYDxuHBO8DPf3ZMnrwng7WvYagK6Cr9ymnx7tZA7uD9N4Dfb2fnxx0Pa19HUF6w0Fn7+8kBwse17yGeunJBL19pYccPKl3fZyN5Oa019xgCz3+hVpXBJJb1QO092vkYP2LGtdUJNf7E+jvTySSg3f0rc52cjwrQIt/QA4e0rX+FIPk7gA9/qMichpaaVobkdzLoMt/X0ENZuhZXZHcO6DP/+ilBo9pWQnkFL+v0cEBcuxDNawLSG1ta9DqT1OD5frVUC81zmmg2YdTg6e1qyKkdgno9u9kU+NapFldR2pPg37fu5QYLGqsVY1zURP3Fw0PRlGDV7WqaiQ2F/T8FdR4p2tUZ5DYmtaaHpwlBgu/0KZmOYhxrQJd/1/TicHTutTreUjsTtD4K4jBEZrUeSQ2HHT+cfXE5DyrRY1xE5PcSOuDlX5aMFiHapaHtFb0BM3/MjG+SRrULiR2Guj+/51CCxbpT18jsVtA/381jxY8rz0lEhP5mAUAxhJTP1Jz2o+0VoM1cB8tmKw3daqhxfadRQCu04LrtaZIJNW/G6yCL1XQUtFMY1qKtF4F62BnOykYrS+1L6ElF6yE6zyk+OdpS2eQ1JpRlgIIJQVrdaW+SOsasBgWk4IXNKUUWkLBaji2npT6MVrSfiQ16y3LAWwjBRN0pK/LSbGPAQvibVJwqYYUjKSuAiviR4WklOpHI5DUcLAmTrRTgqHa0X1SittaFGAnKY6hmtEBpNQ1CSyLqZRgll70RgMpp8G62L2KElytFV1HStP/ZGGA9T5K8htrRJNclNQMBkvjDUrwij70n3FI6RqwNv5PESXOVtrQCqQ0EqyO8+yEYJw2VE1J2deWBzhKiW+hJnQYCfWtBAtkESGY/KQWNKSGkhtghfzOTgju14JuIaGlf7FEwGFKHDrQICTUvQIsktmEYLAGlEnJRbBKvuMkpGGs9rPKR0gVWCePEoI3dJ+m2UinZ4yFAqIJwfGaz3Yk9BJYKdt7CMnQfNyEVL5iqYDdhPiXaz1nkNAhYK38n2Q6MK+ZxtO3hpA7YLUc56ADN2o8oUhnfhvLBRwkxKXvDPQRsgwsmAV04CltJxHpjAQr5jwXHVVfaTrT/HRUtbZkwDk68KamE4dk+neDRbOGDnt3LWe5n44HYNWcSQfe1HKykc4Wlg2IoAO7aThDkc5LYN0cWEfHXQ2nnI7Mdy0csJkO5zztZquPjsVg6SwgA2N0m4+ykcxIsHbOdpOB32k2G5DM+lYWD7hCR4ZmU0XHGbB6NnGR4Vqg1exCMjPB+rmEDEz4s0bzfh4dYy0g/5VBhn+SRrMFyYwCK+hCJxWYptGUkVE7wBICoWTgKG1mAZJ5Dqyhf6AjTpupJKMUrKKbyHAt0WR2+siYaxn5OJsKjNVj3n2AVCaAdXSVlwrsrsWsQirt0ywkkERGihZTTMYdsJL2IsP5gwYzDan0gbX0IhUYrsGkk3HIYvJdJRW2YdrLTy4qCr6wmMAJKvC09hKNRPo2guW0igrUXdojlXlgPV1FxjnNJYqMYRaUl5KpKG2rtfR3UBELVtTlbiLwmNYSjEQ65lpSIIuKkjc1lv5VVNwBa+pHVODPGssupLKpRQXCqSjUWBxUnAer6pg6IryztZUVSGRVZ8sKXCUCE7SVB1RcAutqYyrs4zSVVW4iyl+0sMARIvC6phKORB4AK2v7GiJQT+mCRNrB2nqRioNaSigV2ywun1QQUf6WjmInoqidxQWOEOHfoaGcQiL3guXVRQMmPaedNM4gogqsr3uJwGHayU9I5EYLTOciIkK1kwQi8j+ywMAJInzP6iZI5BGwwv7aSQOe0kwuE1HyN0sM7CMi+0Ot5INyInaBNbZ5LQ0YpJXsRhp9YJW9TESkTvJqChHbLDNty2nADzWSIUhj6beWGbhMxGWN5BoRV8BCS0T54/qIlwbHU1aaqzT4dmgjO5DGELDSTnKRgOHaSBoNvq8tNXCHBv9wTWSmk4YwsNbOdJOAhzWRM0iifY7FBnJpcGgibhqSwGo7ggZcqoVMQxpHWG6ezKYhXgspoKEQrLfbaKgdp4EMr6dhtQXnoyIS8LAGcg5JzG9nwYHzNOTpH82yaTgLllw/CdhT+xiHJDo+s+aE0XBT+7hFQxhYc8f5SKj5ve7ho+Ebiw7EkuDdrnmsRBLjwaq70UsBhmseD0jwrbbsQDEJ9qFax5gaEgpetO7sJAE3ah0HkcSjYN19yU9ChdaRSwNYea+QgJ9qHB8hiRGWniVuEi5pHOdoGG/pgRQS8h7XNypIuP+6tWc7Cc5F2sY0BwlHwOLroQDPaBs3kcKa31h9TpFQ/rqm8WkGCaFg9R1FAvbRNOYhiS0tPxBFQpimcYWEDLD+7vVTUK9peEnYawF6v4oC9zItYwxSWPKNBQjCKMBILeMeCfFgBf6ahJw2GkbjAhIGW4IghwJcrGGs9FBQCdbgnSRc0DDOIIU7LUKDKyhw6xevlVHg/M4iBFEUYFftogdSGAlW4eV+CkK1izMU+PdahsBOQYF2UUNB1RvWoYsUOBZpFgMdFMSDdXgUBXhKs7iBFH5tIXopmYLMt7SKf4unoAasxGcowB5axcgGCo5Zin6ooWCNVrEeCXTOtBRBJgV5WkU4Bel/tRZtoMCpVSCFF8FiTIFvi0YxmAJvW6tRMgEYpVHco6AcrMbrKchppU38RyEFay1HAyoIwCXaxBwbBf0tRxBPwUFt4gwSGPVb69EWHwGlusR/RlFwFCzIDgJQl/jaTUDN91akFApmaRKTkMAcsCJPoyBVk7hEwQFLUjsvAaWahI0CsCbfJcC+QIto7yKgxKJ0gAA8r0UcRQIPWpSGVxMQ8SsdIp4Az0yLEmQQ4OypQbTPIyC9sVXpEAE4VYNYhgTeAssyBZc1iH0EuCdZl6oIqNcgEghwgHX5OAFeDQIJjLQwzSIAN2kPHSmYZWFqn09AlPZwigB/ewsThBOQ/qTuUERA5K+tTLt84tVN1Bw+LCPgNFiZmzWIh5s0h/Ue8eqnWJqgiIDLmsMlFD8frM3bCKjQGx6NIiDW4tSFAHxOa+huI2C0xenFSgJmag2jkECwOl8j4LbWsJWAXMvTLgLKtYY0AvZYnkZUi1fdSmdwEbDA8gRZ4rmCNIbOXvFy21qfbouH1zWG3Sh+JFifxxEQoTHEE3DSAgUElHXRFp55IJ6tvxUqVzycpC38WCleHVih9xGwSlvYguInWKKmEhClLRwiYKklqneVeA5tIYqAryxRECUeagtu8SpetEZdIWCcpvAiih8C1ugVLvEuaQrTCNhjkXqsSrw0TeGaeLZZFikoFi/7FT2hWLy8xlap0+LVjNESnqkULxWs0gPEwx1awpgG8c5Zpl4k4KiWcArF72GZglzxorSEEALAOn1BvPrnNIR/jxKv1EK1Uzz8REPoUCzeEQvVTLt4wzSEUSj+TxaqT3PE264hzBPPM9xCBcnipWsIe8TLaGqlui5ejYYQI95dsFLP9AtX+5p+4BXvsqUKfMI5Z+kHKLx7tbXKLRye0Q4Gi1fT2loVI16YdnBQvEqwVm8QL/Z3ukG8eOkWq8niZX+hG6SLF2Sx6usUzjNeM3grR7xuFqvGqcLhfM3gh0rx/mqxglDx1mkGa/3ClYHV+qJ4FzSDvSh8mOVqm1e4DM3gjHgHLFd9qoVDzSBCvC2WKyjVS54sF65hmvWqSLxvtIIPUPjcZtar6+Jt0go6ipcC1uv54t3TCqaJF2vBele8TK1gr3gHLVggXo5WECOcf7QVq1a4wmY6QbVwXrBi3xWuZpxO4rNkHRXOt0EjaFInXIkla5NweFgjGGcX7oola5l4pzWCbV7h1lmyhlYKd0MjCEXhJ1qyGj0QLv05fSBMvKGWLEgQrqGpPhAlXHkHa1a0cNheG3g3RbikV61ZF8Trow10KhQuDKzZS33CjdMGxrqFu2LRau8Wbr02MAeFP2PRAqdw57WBxcK511j10rSBzcLVDLJqFQlXrw2cEK78batWiDYSLVwxWLXXC2d7XheoFK7QsjVVOEcvXQCFj7ZsfS+ce74ussuy1Vs4/wFdZLpl66s60fCGJtBWvLaWrbfShQvXBMaLB9btcOEiNYG1Fr6rwsVqAleEq7dwnREu9a0NuC9cioXrhHC5bTcgU7jrFq4Nnlrl4A3IEu6YhWtqfc07cwL+JVe4nRau7ypruHQCPi8SboOF692S3MoJ6Fkm3BoLFxTk1k/A2BrR3HOtXHm5XROwyCFa5fdWrtzc8QnY7Bctv4OVKyEXPAGHUfS0v1m5juZiJ+CIcElg5V6Wy5mAE8LFWbpG5Bom4JxwMZauNsKhFhBs6XtMC7kr3DVLF+ggf0oQbl+gvxceiOb72dr3ugbwdrFontHWLqdwHTSAj2tEc39j7SoUbpAG8LlPNNeb1q544aZpAF+h6E6wdocKt0IDaG/xuyjcTg2gq8XvqHDnNYDewjksXnuEu6MBDLH4bREuVQMYK1yZxWutcHkawHThHli8VgqXqwEsEC7C4rVcuDwNYLlwwRavpRrIOuGOWbzmC5evAWwXbo/Fa7pH/9gn3FaL1wSHaAUawAnhVlu8hteKVqgBXBRumcVrUKVoRU/yX4hwCyxefUpFK36d/+4JN93i1bVQtJIm/Jcg3CSL11e5opV9wX/pwo22eLXIFK28E/9lCjfM4vVhunBd+C9buKEWr0apolV057884b63eL2RIlxP/isQbojF62/3RavszX/Fwg22eL2QLNx3/Fcq3CCL19NJolX1579y4QZavJ4UbxD/VQk3wOL1+0TRqr/nvxrh+lu8/j1BuKH8Vy9cP4sXxItWM/z/+TDy//uP//iP//iP//iP//iP//iP//jvYnxp9YrWf8qKrN3FLv3H6s9//Md//Md//Md//Md//Md/P6bqAj0M57/yAA9Vg/gvPcBDeWf+ux7gofhV/tsW4KEA+H9sgIcsDaBzgIfjGsC7ZYEdemgAcCWwA+iAuwM6JGgB7UoDOQRpAXAvgEPJt3pArwAOd0ATTAzYYHtbF5juD9RwHbTB8AAN9tb6QIe6gAy+raARbgvIkPM/OgGEBWCwgV7YrjjggnuJZgBtnQEWfEdAO+xXH1jhOGiIExyBFK6AlvhGdcAE10bQFDvHBEioWAba4u8OBERI/hp0xn5xAQ9KNoHuuKMwoIH7fHvQIGcV2gMUeBsOvgOa5I9hGQEIKiM2gU756Ywtd9yBBB4cnfcd6JiPdh8za77Vf86kAe/B//c///M///M///9///M///M///M///M///M////VDABWUDggAEAAAHBLA50BKkAGEwY+YTCXR7+/pSGjldhL8AwJaW7/nOvqNyI4O7z63oTXpOyuu8O5VdJPgn8P/i34K/uB5acI8W/Pfsj+7vwLgBZkfy7+Wfgn+XvqD3APUZ+w/4AfIL/If5T+DP8o/evn/+oX//+fP0+c0V+k/zP/Afo9/M//7/+8Aq+X4+whf//ez2weD/Mz/578e8RgJ1aZr//x7Df6x/9fWb9Lnqz8zfm8ecvv2/RTer//iMlC9P/2n8Z/z8/D3O71V6eXrn8rVgBotXKe0v+Q4yOE4lh6U05v8AYRftvoD/0z9Wfeq//PLB+/eoB/D/6r1ff3X9gz9YgqwisC1+QFVF2zPvDmsC1+QFVF2zPvDmsC1+QFVF2zPvDmsC1+QFVF2zPvDmsC1+QFVF2zPvDmsC1+QFVF2zPvDmsC1+QFVF2zPvDmsC1+QFVF2zPvDmsC1+QFVF2zPvDmsC1+QFVFW2T6lqaTG42OANqk9B+jUdVTPvDmsC1+QFVF2zPvDmsC1+IpZoaudVjjpCCjEGFVF2zPvDmsC1+QFVF2zPvDmsCyTohlVQZLIEN5dw+gYKyYozIQQQtrpVka7n9qf5amfeHNYFr8gKqLtmfeHMr+vm5zb2AhhnAj12p3TLNhkgcZpdWDJSvU1oiBBoP7w5rAtfkBVRdsz7w5rAtfkAmM3pMGFVFV31E0+n+dStUh6GBa/ICqi7Zn3hzWBa1zgD2k6qRdsz7z1FA0zUEAtfkBVRdsz7w5rAtfkBU9pvUMUBVRdsz7wrxPexXL0d77w5rAtfkBVRdsz1DnaTXCkmdVF2zPvC+NoRZqAj9H6Lsz7w5rAtfkBVRdsz7w5leN3JC5LqM2ObNl56TBXOTyn/O/Xg87Zn3hzWBa/ICqfwzAuwLX4nUDaac1hlHYVAlyG0d4YFr8gKqLtmfeHNYFr8gEgEobTPtP3d4TpW9OcmDtriuULsr2piWTDPRTBYZn/q0z7w5rAtfkBU9pvUUi7UEZvrAxW3xjrwnSuIedAoeAkyGQIanoVWoZGOAVUXbM+8OawLX5AVUXQObDzdLJxZvChbVzTisx0nW/KIEFfLhTzCqi7Zn3hzWBZC8eVZMaWDXpBNc4LtMt+JOUD4AABBdJJxRaozvn4O7W46/ICqi7Zn3hzWBa/IBKZ2p0BR7pL+UXbM+zSWH1l2Qj+doUWey5So3RdmfeHNYFr8RmGAR2BHRD8yc81bA5rAspXdZwKhUTR/2ABMAqRS7OHdyi7Zn3hzWBa/ICqi7TaZN7OcKQFVF2zKLQcM+CbVUAL7TOFmoIBa/ICqi7ZIZDnAKEv8RWBa/HuhbY/kJDIuovuQzXz/r90uzPvDmsC1+QFVF2mHO3QDoOLdmQQCqi7Znqr95JzdbJNM5f8sQCqi7Zn3hxLS6KGOJNfvvSYMKqLtkTBWHOowsQGoWP6LuWmfeHNYFr8gKqLtmVFJbgf9n3Cqi7Zn3habbuetKqlD2Qcd7Awqou2Z94WIM0MgT8AtFaWBa/ICqi6N/NYOvRPU8wqou2Z94c1gWvyAqe/IxZ9NJ5KyVUXbM+8OZZoOdoq71xHJ63moIBa/ICqi6JWz9zhKO3AxPnDCqi7Zn3hbskh0JLDwlDCqi7Zn3hzWBa/IBTSuD70PwCtAPGSAWvyAqou04zOlrzuFYFr8gKqLpElZLnKlaQNLiiH2OAVUXbM+8LK8gSE7kOOzPy5pMGFVF2zPvDmsC1uDD00rFXyuLsz7w5rAskCa4RUvfESAWvyAqou2Syaf0TSLozAtfkBVRdpxmdV43RdmfeHNYFr8gKqLtPL6pouOI2Mjyu4ezPvDmsC1r6SeEOXdz/3hzWBa/IBVAhDwjEdxdhVRdsz7w4kowP4JuPmoIBa/ICqi7Zn3hzVJ5LeBeVlsayGFVF2zPu5BXbrTTAdmoIBa/ICqi6SDldgrv5R4G/vDmsC1+PgXMDjFfjkrJVRdsz7w5rAtfkBU9+PiDAL5E1U865h7M+8OawLIdSDs21YVa0T/7JVRdsz7w5qmFKkZFnDCqi7Zn3hZyaRxpRFzaCAWvyAqou2Z94c1Sck/dTWGJ5ltIH1CAVUXbM+ztLm6qtt/U6VPQ7CsC1+QFVF0TeGC3SsVVuJa/ICqi7TOOICz/o1SwxNUS+WEVgWvyAqou2Z94czFAdDob4ssQy3RnVRdsz7w4iBzBP+cfo7zsC1+QFVF2zPWP37oZkpupNeWRgWvyAqn8MwK7iRQxeLowxkQC1+QFVF2zPvDmsCydGhElTH3RAarHAKqLtmVJPAsVwjnojIaM5qCAWvyAqou2R9COk2/xA1FwfodunouzPvDmUR9hPnYAUSTGSWvyAqou2Z94c1gWvm+1VUgFH9ZFS6lPybPJdmfdxwdX4n0vYx8moCqi7Zn3hzWBZTlW4lkVLqU/JY1GEVgQ+N2+2xAv0jNwWhjynrX5AVUXbM+8OawLXzPQwOar48tDKVj4p5wKRY1QUtVTPUOdsMFEjV9kjQMZn3hzWBa/ICp5ZJ2w4A8/VztLMrX2wltQXJSPl0umHO2GkSirCJksJCkBVRdsz7w5rAtfkBVRVtlACis9Dmt+C3HSN9KiBa48VZZ8tpymnoJMv6NoBXijiUMKqLtmfeHNYEP9fdHYFr5bMssgCQGMsHmVpZZ41XDgtmeuBkYNVmBDIIS1+QFVF2zPvDmsC18wa9WUim30Aqou26u8OawIVcb4n4KYxNjFj8zCKwLX5AUVb7AWMTaZ94c1gWvyAqoqroPPPfeHNYFr8gKqLtmU4OsJq/vDmsC1+QFVF2zPYF5hd6TBhVRdsyjE2mfeHNYFr8gKqLtk8MHvbUevb8gKqLtmfeHNXzhsh9gSqRiSZfqGOfx/sYbFd/8OMIqpEY1rQFFHs9JgnMKPR4jYHNYFr8gKK983tIVEyRnbOyjClvpbGZ94XEORpCIgVFZ3IwiVBCyVhFYFr8gKqLtkgvoBVAlh/9oap2N249QiYrydhZwyYX3tLIMGySqQxu/Qa+VcOBX9MeR4C9Hmv/Qac55t/ThfOcXz76201/ew+hIfWnFkDNERF2xtqtp9niuZgOn4pKnTsisYdSsfAiJdlZGDaOcZf94JuAtmNTMW+Mo/eaz8f5zenCW2yAt7JrdxQ34lPpskqt3Wv/g/W3fB6D8gKqLtmfeFlwHh/ZCi5wUf3i71hvbjeA3TBMIYNkntAsQd9udPBPq4GuL5Hb1pHGv7w7Pa3/eS+nrhb7lcVo6FDCp1PTaafeHXEsaOUKsaDm2VYde1uWKbcbbS6mJWduEXXxbQfkBVRdsz7PqAgD7hRsENJacaS7M+8OawLWxi9H2DUXbM+8Oavk/ng9RkmSfCqi7Zn3hzV9Ok2mkv7C6flnVPMKqLtmfdxwdYc16OHyBqCnweDgsaHg4LGh4OCxoeDgsaHg4LGh4OCxoeDgsaHeP7T+2fcKqLtmfeHNXy0o0+0Sh68/94c1gWvyAqouimtGg6aTAc2GwGMnhHBl9KEMIBVRdsjWfQ0AojQWVG7x/Avm2VYde1uWNWNBzbKsOva3LGrGg5tlWHXtblXpPH9sC18/XewKx9fFfKzogaFn0/gwwgCq9g9R8X/Uk1y0z7w5rAtfkBU/IXRRPBclOzEAqou2R0Z8fiRAKT2xMwMKqLtmfeHNYFkh6Qxl+kv+xG70oVdzBlTPWaikKy432yttgwgTHA5NM+8OawLX5AVT/nPnugO6HFgmox3BrtoP7w5qkVNp+mZBC7JLX5AVUXbM+8OJaXQ1WKBBVpM8BxlF2zPWbq64iX3iQ48tLsz7w5rAtfkAn7ZaFo7JOPEEk35AVT/bmZJygboCFsktfkBVRdsz7w4lpc3iL6vjx3ZHsNeZBAKqLtmeq5A/uooolQQu5dmfeHNYFr8gKnlkSwOxL7AkBIG3Lsz7O0tENPS/W5rAtfkBVRdsz7uW9JW09oTCKwLX5AVT/nKCMbJBhbl2Z94c1gWvyAqfZRaoyEFHVrCqi6Lej91dLhzWBa/ICqi7Zn2dpdCCjDR+UAdnvf3hzWBa/IBEVMyi8vsxAKqLtmfeHNYFktNfVkqNZVIqiEoYVUBWwK05eDWjmsC1+QFVF2zPs19gokkAtmfeHNYFr8gKMgECIGFuXZn3hzWBa/ICp9XQAODjAtbF1bMhWpfqYZjCKwLX5AVUXbMsZBY76MdEdgWvyAqou2Z94cU1HMQB8zKPvDmsC1+QFVF0YMsqpluXZlTNEJ+6f2dD+p61+QFVF2zPvDidQEChR7nnSzSgIUgKqLtmfeHNYFrYVC4RWo1D7rrt5gl2Z94c1gWvyAqf/1VD4SNtjAafdw7MMDLRam0c1gWvyAqou2Z9nZtwuyHo1/2DOqi7Zn3hzWBa/IBMZ/LGHUuPPMKqLtmfeHNYFr5qGQCazUD+uQjxIY4V2rvDmsC1+QFVF2zKknhPI+mN/OGFVF2zPvDmsC1+JC9uCQYezPvDmsC1+QFU/uebYMBuel81A/rh/VujRiDCqi7Zn3hzWBa22B0RjTQUWZUNgc1gWvyAqou2Z93JfNdYpVn7WUWl2Z94c1gWvyASV4hucD4MeyeQlLTLFxkuCuiIIS1+QFVF2zPvDmqeIXWjqZv394c1gWvyAqou2Ry55CAJsiDCqi7Zn3hzWBZQ7nkJYnr6THrW2Zo/KruV6aTBhVRdsz7w5qniEZdE3RqyCZFZJa/ICqi7Zn3hzV86ksVTmqMY4BVRdsz7w5rAtfPQIRCVLslk0/rNTd2yvgc2yrDr2tyxqxoObZVh17W5Y1Y0HNsqw66aa2qliiyO/C0T8OawLX5AVUXbM+0T2Z/Ruz8sHSMqw69rcsasaDm2VYde1uWNWNBzbKsOva3LGq4w/yUo+02aglGZYYtt8uKM72hDBmaYzSaQoqb5KLp+HNYFr8gKqLtmfZyZX8LuOJv/FkUZlhlaniDzR7rPtI2ySCEtbYpW1KKwLX5AVUXbM+8OZd+3ruEvB2TTPvDmsC1+QFVF2mblZz5OJ2cy7YNS7M+8OawLX5AVT+leo0S6LpIOWl2Z94c1gWvyAqfhu6AKjqFdboBJYfnHkuaTBhVRdsz7w5rAhdgRgKgHhzHsz7w5rAtfkBVRW5BqLoPESg0lCDK1XIp678tVyKeu/LVcinrvy1Dkn8ScBwjT+sv42Wl2Z94c1gWvyAoqTlJbbAhdhP6H/8M9d+Wq5FPXflquRT135arcY7lr+bQQCLeW+F8PQeg9B6D0HoPQeg9B6D0HoPQeg9B6D0HoPQeg9B6AUSHIZAE7KnGV2wKh+ZhFYFr8gKqLtkVuJHZ9dz8Bk5Lx0RCcl46IhOS8dEQnJeOiITkvHREJyXjoYNklr8gKqLtmfeHNYFr8gKqKxKlmNTjAtfkBVRdsz7wsHO0+4KP6Mxp94c1gWvyAqou2Z94c1gWvyAqou2Z94c1gWvyAqfaC13XZmgulNLsz7w5rAtfj3Yx8mkxklr8gKqLtmfeHNYFr8gKqLtmfeHNYFr8gKqLtmfdwVxwCZxXVeB/9nXRdsz7w5rAtaqzHleQNAP7w5rAtfkBVRdsz7w5rAtfkBVRdsz7w5rAtfkBVP7TLIgvEZP0h2OAVUXbM+8OIa3SVfobaZZ1C2n3hzWBa/ICqi7Zn3hzWBa/ICqi7Zn3hzWBa/ICqi6DwkEY2RXQaqk0uyMIrAtfj3y7rlSNVFeA2ggFr8gKqLtmfeHNYFr8gKqLtmfeHNYFr8gKqLtmfeFdxMVQ4940+DBvNwcPzfk5gwqoq1nzbOzGE51XnFo+0uzPvDmsC1+QFVF2zPvDmsC1+QFVF2zPvDmsC1+QFT2m9OJnhNcbRB//IETWuoiVuqYxXfFk+hLWba1aQv5nxzvp4LZnsNPUpilqXuFYFr8gKqLtmfeHNYFr8gKqLtmfeHNYFr8gKqLtmeoc7SbHPedYidikAqou2msGFrAkL8+QDxYk+9rAtbfCNI6ZVgWvyAqou2Z94c1gWvyAqou2Z94c1gWvyAqou01xqdgWvyAqou2diFYFr8gKqMzJI5nMefIaba1Lsz7w5rAtfkBVRdsz7w5rAtfkBVRdsz7w5q+jA/iKwJWxwhc/Nf4FfGUqGZ94c1fZ3Ev+gR2kFjGUtLsyinDhwykguWAIk0flpdmfeHNYFr8gKqLtmfeHNYFr8gKqLtmfdxwdYExGHTefOzEAVwn/C/3CqkHmuDU0fPUVd4gkjE0UDbQfbM+NBuF/1DwLzfU6u4OT0oZn2bCf5aZ94c1gWvyAqou2Z94c1gWvyAqou2Z94WDnIQlo/Ya9DDWmn3haQQqNZtTzTkbr9oncqDV3LFpdL4IjwkhnUyfmgt408qW0rffeFamDXktmfeHNYFr8gKqLtmfeHNYFr8gKqLtmfaC0jWBGMvjYtHNYFr8gKqLtmfeHNU1Tt/dobfSHVoFsz7w5rAtfkBVRdsz7w5rAtfkBVRdskFBKejpXJRklr8gKqLtmfeHNYFr8fB1dSUWmMtQxSklmRALX5AVUXbM+8OawLX5AVUXbM+8OZbpjIBv5DnVEAqou2Z94c1gWvyAqou2ZWCn/g+K738Jp94c1gWvyAqou2Z94c1gWvyAqou0zjUhL9JWe1fgFVF2zPvDmsC1+QFVF2zPvC03S48DXQiyUfeHNYFr8gKqLtmfeHNYFr8gKp/DMC7AsgrfzkKy40im+CxoeDgsaHg4LGh4OCxoeDgsaHg4LGh4OCxoeDgsaHg4LGh4OCxoeDgsaHg4LGh4OCxoFQA4gD5mUfeHNYFr8gKqLtmfeHNYFr8gKn9VpAzAsWBaixuu0a7qGg5tlWHXtbljVjQc2yrDr2tyxqxoObZVh17W5Y1Y0HNsqw69rcsasaDm2VYdc76D/U4052iVAarHAKqLtmfeHNYFr8gKqLtmfeHNUYXZJGAHOFICqi7Zn3hzWBa/ICqi7Zn3hzV9J7rgcQaWlJ/dLsz7w5rAtfkBVRdsz7w5rAsnm6WcPyaTGSWvyAqou2Z94c1gWvyAqou2Z94cTPjxjOMCF8Jp94c1gWvyAqou2Z94c1gWvx8JpyzoyoSn9KQFVF2zPvDmsC1+QFVF2zPvDmsC180ETGhdpCU1GtOkY9a/ICqi7Zn3hzWBa/ICqi7TOOIOjGg2U10Ziqi7Zn3hzWBa/ICqi7Zn3hzWBa/IBLNEuKazGivHGW5dmfeHNYFr8gKqLtmfeHNXywUuMWNpn3hzWBa/ICqi7Zn3hzWBa/ICqi7ZnrNvmUWkXXA5rAtfkBVRdsz7w5rAtfj4OqkVU22Sqi7Zn3hzWBa/ICqi7Zn3hzWBa/ICqfnFS9/V+cLAyRAkvYGFVF2zPvDmsC1+QFVF2yKpFtBjUCMgKqLtmfeHNYFr8gKqLtmfeHNYFr8gKn0RPz3OsqcetNQQC1+QFVF2zPvDmsC1+PfLunhqe+IRon/vDmsC1+QFVF2zPvDmsC1+QFVF2zPvDir3K/BKGFVF2zPvDmsC1+QFVF2yPBGK1jA24ln6aTBhVRdsz7w5rAtfkBVRdsz7w5rAtfkAmMr5rXEuiXutKeYVUXbM+8OawLX5AVUXbIrcSMtyhSAqou2Z94c1gWvyAqou2Z94c1gWvyAqoui3o7VQgQl2Z94c1gWvyAqou2Z9pgNIzS5gpAVUXbM+8OawLX5AVUXbM+8OawLX5AVUXRhD76mBP1R9f3hzWBa/ICqi7Zn3hzVLoArWUWl2Z94c1gWvyAqou2Z94c1gWvyAqou2Z9oLuJEF4YI9YoA5AVUXbM+8OawLX5AVUVkE7w95/7w5rAtfkBVRdsz7w5rAtfkBVRdsz7w5rAjRdgh35tqFeWg3oBa/ICqi7Zn3hzWBa+Xq+3AT+ppYz/3hzWBa/ICqi7Zn3hzWBa/ICqi7Zn3hzWBEyabNwORKkUiQC1+QFVF2zPvDmsC1+JkYyPBxWkkzHAKqLtmfeHNYFr8gKqLtmfeHNYFr8gKqLtkcMZEd1KBCXZn3hzWBa/ICqi7ZnpSEgjfbqSSHsz7w5rAtfkBVRdsz7w5rAtfkBVRdsz7w5lzKrJw1lh7M+8OawLX5AVUXbM+7ovBtKsMkx61+QFVF2zPvDmsC1+QFVF2zPvDmsC1+QFU/sKfb6JzEimVYFr8gKqLtmfeHNYFr542BaJbZ61+QFVF2zPvDmsC1+QFVF2zPvDmsC1+QFT/rOGc76THrX5AVUXbM+8OawLX4+RYemMAsoxcgFr8gKqLtmfeHNYFr8gKqLtmfeHNYFr8gKoBbP6zV6nfuFF2zPvDmsC1+QFVF2yWTT+3900mDCqi7Zn3hzWBa/ICqi7Zn3hzWBa/ICqitk0/t+6XZn3hzWBa/ICqi7Znr+cK5PJhsfHfWN5by3lvLeW8t5by3lvLeW8t5by3lvLeW8t5by3lvLeW8t5by3lvLeW8t5by3lvLeW8t5by3lvLeW8t5by3lvLeW8t5by3lvLeW8t5by3lujzBO1d4c1gWvyAqou2Z94c1UGcMLXvJy3BEmZe5WqBU0KbqNbdy9dk80gIqyva5DitvismWfkPdkkEJa/ICqi7Zn3hzWBa/Hxqla2xRWBa/ICqi7Zn3hzWBa/ICqi7Zn3hzWBa/ICqi7ZlaMQYVUXbM+8OawLX5AVT+4GBNf+YRWBa/ICqi7Zn3hzWBa/ICqi7Zn3hzWBa/ICqi6xTi5ppdmfeHNYFr8gKqLtmVv9H57Z7/lrXW5Y1Y0HNsqw69rcsasaDm2VYde1uWNWNBzbKsOva3LGrGg5tlWHXtbljVjQc2yrDr2tyxqxoObZVh17W5Y1Y0HNsqw69rcsasaDm2VYFnX6yIUgKqLtmfeHNYFr8gKqLtmfeHNYFr8gKqLtmfeHNYFr8gKqLtmfeHNYFr8gKqLtmfeHNYFr8gKqLtmfeHNYFr8gKqLtmfeHNYFr8gKqLtmfeHNYFr8gKqLtmfeHNYFr8gKqLtmfeHNYFr8gKqLtmfeHNYFr8gKqLtmfeHNYFr8gKqLtmfeHNYFr8gKqLtmfeFYAD+vxgAAAAAAAAAAAAAAAQ6QOJ+ReeFxQaQVtTu39gspJI9GZPWGDn/TZzAjJ+38YbUn9AMZL8CUP/w+N/JqnXjEgdUsC+JQuugADy6/E9AFaCrNFeTkbwK8njrZS9q/Txac+7xfX6xoB59QAAa1cMvefnoCjHcH3EYKkAuUC5Z+FTCNa1vRP2cxVYmOWSi1988gsUKKboymkeTDypfdHNuB3+kMQAOOxgJZK+D3GTXynBbhUnyCDkeTTUF+8k50NBDYAKPSG6I0SvXBY2+q+9eoJeIsr2Gs/3gzGGW/w/rw5Mwgjc6Dz0Anyprbs6MdGPCNDvBITc7XDrlikPZZN1m2e7WSH4/u414py5cN9nJvqk0JuE0+Ea3mtxzbZYuNxao8sAAnxRFLQQSDAzyc1rF/haQwhMhkxoAMjw8Z7n8bkVLGOqbmmUJUH5o0lOCAiTEMLtmH1ODcAADjCUHXoNmBRZ1bR0+mCbEw4ic9b75/AALu7VtwiSw+ZEC4WH+jH6JnpRsU5caTYgABGvQH3WLd3qYvEqnVtNoEVEAECkxp6U3s50TRkZ894gEDI0vHyYWN/OxrlSm8Oh5rnfVxGsyphIEqMmiwEsLSVkXR6AWmpZPVJAAAYHhAUIfxtqe+PeETDiNzDyRZ0Ht8ws32oP3mg6mp0P4EO0U0Wr2NA+90by00C7E53JDLpbED8V4HfY+QGB4MG5CFgKaPpXk7oq1LszuAmeUe5TtAgH0hvEbZK0K5q7jaJJ3RAGha/8GqNYY1PDd1TCAB/PObQfjg1hoq3XcNCIokizezgcigZBCj6I7Gv3GHzamuRAf/8V0DMu0keekKmY2GDQ1WP1JDsfQDlbQGbKO5yWdA7IRXK6XDSrCHcYcknzwtbFy5E3cA9iAp2BOMLCmI1BEcFedXODCVPkWQER7rTPWQCYwSWCkxf16GastRgBrFDCT8JVymqECYUJTueJ0ysQgo7og6eyZFnKM3KknZeMNCztGPt0pkmd8rcb4nOYpkUWv0famZdpI8B0rV4K4lIneGlhDdv6LXULEKK1rCiw+ZQ1guTWK66C3mUu5QVaxyRGU28pLL4N+OvAZxi/ghfjKADh2UgTD3+XCXRL4SHDJfhaD+mtoRAu3RJCMw4hg4HXEYjrXV3OdM34Gf5xf7d1T+kcYeAB5D4Fyu+kOuI5WjzFp54tXw8Mq6uVuFBmdrBskIVJ3SlfEszpKgF1mGPakO+XB55QJqvil3q32DSz6KNnkVMEqRcZeXwtD26wvnpExqQw0iiO7pqBa4GG62ZdpRA1CE0nA3ZHeVap4t9W3Z+k+XtahAdmJmqAa7R4AOWDAamJwdA7lxbhbXHbC3WUfm7EBgLVesy5bLlgBoqLM8b1cWWnOcBr9ITE9ak0PdUMTVJ8116h61AWBCWMJDJI3K71+7B8h01XCoWqAJ35canMzehQKeIAroAiOuz68MN0lou5CasMS+yzKfshNTiebMMRJWASVGACCRGJxWVaTjfvGlzB5n5CQ/ki3YOk5HNr/ZCdNmeRFeA+StEtFr/nkMHsNpgVe6OMsoiR1+Ax+oOMpz0HFUIBEUmt4DQNKg3kFjQ6nOmiaGvymVP9N0iWmcDg113a0pxuJY1045ZogeYUw3aWyZ5nABgeELRcsp7ETtVbEQ6NGfZ+grDz3tzwcAPDWfArL7/DGbNdVc95uwkPORh1gIXueOgZAIt7/wG+LYdz9D6yc1MX20Q39lF0uY3X6R897bwEceL+dWGqEptXiZhhVRbsMiEH1OJALpWVFoksgikL1xc8h7cuYihlbBa5PRA4DqTGyhTF4AG6RZFsd3iBpzXUxL0alNjI7JZWARBdlccfR/4fsj+9JAR13uU0jvLHKWnbLAnWo9JZ+GFHzAy1wD6k51Ct9KWtRzxdmUySoCCzCsO4A4pC/9Nb13i+YCkm/huF+kMxUvqgEdrhrQblFhTGSPiGb6c/thufQo7+QCkoWc8o345F5amxrp9+vmmRonBil68BlCflzjGDkTTJj97nd86gOVINsAAAub3EW/Gmp19ZI/1IcVPUc/LE49bhCKUfaufOBmpluC4KRjx/6PDii3i5cpo2+N3AcGKFxe+HvmlN0y9Ud/NbgmMW25FJ4wzSwviFXNy05dZu+R4hijAoArQAlXi8hXucn04P6JzpgeDONguqAEHXc5JhhhXhsKdxfu8knYrKK5TM/qWPohlkIQABClQNk4pYzzPMoTBBa0dAYFbT3wgLwZk39VrsglfLOTBCGtA0YiCA60Lw4aIfIRP6GX8gWQY4EWarCbMVvmmApj9BUeEALXQBGOHQukFigyfv79wJY8gSM6xL++aoyd53xpc0SGfFtEQb+DhtzBRA2mJBvls1tL4BQSmOi1wutiQTSZejAMP7UWFhVJi1hoDN/+V0D7MKnAqsIcUdarZCRMoIBKtyihxnztWm5j7lzGJTMAxDYux6Vxswfg1Rcg+nqoRqtPBOLyi3wsxUZ/OVE9bFYqfNDVkbZ0wW/w0DGciAz3//3E0Lnn08arfh8Aw8elN3SlSqevUW9B7yk8QDHdTh/C2oe6XaokyGbgCvY4nOTClH6sdLTg2MzCO5Z6oABCOPU/V4RPNnIB5lpA48VG4N4tQDjFMaCd/jP9M12wwWQAjQCF68Mg0NLORXmnyXtS3auPic1RuKhZCQQC7D+dtdyCd3wxvTa9MVcTlgq9llBkwcexO3ET6WWtnb+bi4FmBnJE5f2qgBU1gEuZH3DWm53uURqHAo4qi+55mShSw19fEXbWipBkXuE4uXGHawQbvvANXFuRwKYC21RAn91hWg+nTC3bT3sw1gQKVL4rJxtLYfNJNF5EiZBddYIV1I6KinXmFxNavN1XDi824tx5w4hrfhubXNdeAv4wd6NnBapl3BTjWFI5hrWqjwBQ5y3zHIPK92H13bQAA0tZRJjULH6U9Rw7Xf0Pq5oPs5ulOI+/B4npUqDp6kk9SxtLyFsF4fNqM2gUc4V+gMGPCaAAIoT3UkXZGvUzHOslBA7hCLS5JobLWNlY48AY2KhQDeLFXi11rgI2Fm+jzX758lRYSX4SwaX9Ik3furW0AKZnhJ45453D86uRYFtckm2bIEWKpfKGlNgQW9Yh08Qs5894p7AJ/bqKpTi0vcQd6CMX89K6/5DSFK0L+nqnnbUHq23r2bHIHQmRwgE68Z0DNJBwETcx9QAL1ittbNC3hRQYQL9Q/fRK2qjZPfwMxOr1IFg0Qia/iXCD0wJFru9NWIFznjzicfKGPBn5wpexnUzOLmQq4G0E47CfKATt2ZzfliUfoHrO9gD6hU9lHQgK0YbU1XDDVlCVBh95nZKa56BbwZzEPMpIf0L2d3NasCx903okkPl2BS0HppXp83PWVNBDTJp5SErNKYAH9Cc2fofre7NgDpqjB0SQfivSY6tAOPAdA+zuTdGQJoxzqf/JU2YYZupQNa1uvzqEA4Nk/tXwlSzP7iVZyeiQJKYEWZO7YW6yj83X9w2y3jYSwagATDgmrv+LvCmcM6FVkN+TCixJWLzMNZza0YTAtZAzXm+PBqg+p0VmfboqxjfF6vVa6AFsoGGp/m0YrA71icWTq4ZY8eT1zRMQTxHuQnTNIzTwR/qUDWncMF6POSET0KdP/1UBk7gCHLWDjW81r7Vs0uICHwYd3cK/uB072SZTxXgmqLPhkyBmhlMzyJ48lw2bRYKNRT3+ZgTmsULjoaYfK8tSArc6j/26kaNZCI++cM+GALjtJXfFxfDF4rgkqXVpbACLKhvdEX0DfoH69F00XQXiA6a66HoOCa5g251TCK2Jtqu4GT8/0StQLFRVBCgz08TnS2lyCxu5PNeGTuQ2pZt9prJUFwypBTYrkqHWYny1VwACLQsjyBZKqJwJR4ZNnO5816S9/OHgA/qq4M7cZAcQNbX0ULoktWa531KcdKG7VAACUJQIIWYXyctodJs3B60s2mFFnImN6YWaYMa2HdZsQyCak/oAFEuYC0FPmooByrfMWYOSDykU3J7h/w3iAn6PnhQh7AU2pWdzcMw+MVw8M8KQwhEfJkiwBSvBMOXGV351yXrW/sZ9XcJ6SIeMW3Q8x1RA9bs70abrfNKgkj4R+3Q4xgdtLPs/uBiW5/FrMyj+ggThpZc6QVdPhkbDXVGNOQuxrC7qZtrcRg6H3aeK0RsfNcuUmTXIafdQqav6gRlD4gQCXOahQQ4nAt/NgGbl3uQSc3/4qtKDolazjPEBnzPZz8Jw3nZOxegm964KtvZzU/k4cSmxqAbc99Zxm7Ef3PMBy6hgik9GZdnGYVBZrqCBO1sroQQ4ktTi+VoBP+GXk746mmV0V9/qcfl8QPWaqV5vYdGscac9Kr01T6DlfQIz8vedCs3CwQUjUPhvVkLAJby/4BBtKmLf02+3urGmwbMQOf2CLft0oRyyqI0pmPMGZ7pQOjfnUrguFe/8ldBWDZKWA0Nfr4VMwcMJgkQ3N19LjGn/Q9yP3wsCx3brZoUm0SyjLXHFEBZsN9L47xLag7rxI0cdGdH2hnEsVSFWAvS8l7iVY2VT+PAuEynsOvmDdVr1VGgOxa7812gRXyMzuCP1dwmMCm1xonVS5c4XlhqNnKLBiMj/UYsBVynYH9/hy1LlCdtuLVPZiDw0r005O5gLvYWW6htgAvc2gPLu0diD2FU/TeTDsHDAPqzi0ca3mq+8yG7jQEAwSaqMzVBpWjFYLRaTGPpOWMzt9spqlqjML5nlSbIwmg8NyNS2Vo7dEzvb/vFAUpIXH8c2U4ZR8uPlZ+g5lFXZr81f62HGz9INpE/Ll39Ak1eh+CJ0BdEBFsq6xszIzDkY3d8GKxElG/p68R3Gv3FoOwLOxCgqrOvBjhOOda10OK8OSnpMwWT1k5jutwGDq3JHlwY7ShzJL2wWWCz6YU8l8Yya75gWzJADrHwx8xFU4yayFTsxuZ5mcBk4i4x4lJkFL97IXS/9sDYybS8txXcz3dcP0coHuSZTv6y8sJBZUwisLWukaJPJtMFcdCSPa07vwwrx/Ewiyr20YSkjxeGe5u72Fl+4FTEmL0p2N5htsgeTvPoj/iMY/Xoo2eRUrClmGSswCC20PMxTR/EKpLJf4UAeimfCwNa1BpDOAABLpsWopFZ9TbYfTuYuJlE78V1QtOfb1W0iQEWGliCxHjfkN74k2qVP8CRqP81lQCGTUzgYU/Gag2YO6X+KKQg+pTW5jazxvOXAABqexYeO6JnRLau3Hg+wOgUcOG5DL/1ZUlpE7DoJwH59EUrRyKUPLSVl7ACeee5GAAAAitmFFniRZ2lcoWF31ruq+M488UtoEY53pwZI1Xsuwnigp9+Gk8hI6z9BRXx0YeadhLG9PxKuDvbbFSByXKm0jE8Y4Uuuo4/3DErFa5gmGC6W0bwHf64Tac2bpCwLOeAAPOJAEG6YIBVA3eBrf2AIjeKZSiyuazpgUh80iiXOAPLXJqlRMHqV7ChdVJDv7nFrN/cAMjHVSvFZxiOMhR/iS8txpVHAKaHnnVk3YqiWfOcHm7bL5fwk3CzYhFpP07sYOv8mixDm0h9Lsp1xumR6Y8uGoxPcLOGqhKqGoKxr4lVOviVU6+JVTr4lVOviVU6+JQiEe/7P/k59gsQ66bjar5+YvJjdjB7pukS0AAV5tcB3r5Jm58eB3rxABegFpegoHboLEclcVvhGtbE+c9CLHqsjP6wc6H8tu3Z/gdgbi9QaGrNrdzTHGuVqCyzBJ8uotxumYiBWja7imKx6Wndt91a5oEI2xcaXSat7VpSnurnPgbK0pTowOBBzFZvDnAHAg0tdJq6pc58DZWlKdOGLJxuvi7azdgGqqjB7yIqvmZFEA2DNTeNJZyOdRTT4VhAXV0KqAb8gmQLfxJNRsf8LZD9OLnTCF29yt8OhcBCAdt5//N3/BlYObcDZNda/O7rv3/p/TK+ZkIoZJmvW+WEhtjNPVdKyc6yf0wWurDYswnzMTmfYAQKL05ESvEJLu0V2ZfLUWgkLqG8Wu+ZzgFAmuDbNInvKMEW6QoPMfF/Z7Ex56NYRnomeRPkSRbUl6D8F4E1AMupqAQ6ZiImz51OG+NCin7AAAADyonBeSYcFRMldaKJLXf9h61wLYzJ9uBHYdhlM82jFiZs0Wo1OmX4Ob5xMVzx0zXFf0gSgIZAAFWwuleuRx2lHKFN2483J7DplbLh0zNSB9Xbi44R7auge0SdmpqRFchvtVmQG3h+btsXLD8z383qhC1AvYc853Vi48QkDvgDkJagLVj3EdKCInsfJ1eVYXB/8rwfFrl2tlTOhyVkimgAwVwOh5GJDhK/deIkdV3oEOfU1jcIvz0E+/lv3XkzG+9icZonogHGf6BINlhYvU75zvehemPwEUXggJjANVn4ApN0AvZv6iNOn/8lQjTUlAN8BqwJRe+DkbQuLkfMbpFxDx3l0UpDM8CXaRBjNrHtnQizqnBvXrNySs1o4cBkIMGQWZjZDpnOghOLEM+AAwO8m84qXpldY5dZmwe8At48c9NKe/98HlgkfjbpClD3PoXNP+TIJ5ahVwHvJvDWUvhZgfsbJnVYB8Zo49Yg3QxgUzRnJPwv+OAXEdZrwht4XKoZtc/nsgOWWk6nEh+3JvmFkW0G8ykyH340DISrDh10BLRmw7+yOLowiXVgrbYWK8i4L176b2LmGugzqXAAMdeOBMYgMmtKuEr4SAVqFjYD4dhaSh+pdQ25cFP9kJyBE+/gMWCSaOszxxd1Ppzqtt6ZXQV0Fx4qemAYjlu4BdS4hrawD/GXrbM/7dJsR7Bkj+cJAGCZihDhQzFfWT8cdohE2ZfuzEi/4QmPjXn5i556ARr3/X6uhfhu1rBAznmtTZPAmDiJpPSoDYUV1esy5bLpm0TK3eGljqpfbttKcfQUfru1kzsaSH/WERInMjOZeX/ax7ZsFvKJYhHnC2Meuswh2QuMJTUFXgsjObM/HmqmGLakpq73Jd7Voeeu2l3Q1TQAJ6iLYNtqzox/iGNO2AL3OgL7dPMJtJzBVYLS05oAAJIk3Yx73L5aQ4Htv62bNmYJhM2TPM4BRU6dd2JZ2mgId+ilRh7wz3rd9dm9grL23DIBWjolTGdy1AUULQqMerpYveNt5cfUewH/ZFQdFELf/+haarbnmp//fjNb7Rb9NzGDOXoRjtINucxcphARDIZ09APPfuWzbpXQCZ8Vr+EGZXhTPMaPyPAMkqMAQipVJ0NmV9uDzcq2xLKZJH5fDNJC0dXcMcLwNCMy8EF5iYDDvtN/Ae+xofsAtaZTzRDSeniKAAyvpHJbhploUg0QyFXc8fUldZ0Q+yOthmYNj3doPQfgEBIp1ZRIxcrSrA2TcDQ7mLdCV2eKD+HGQcQjvACCK4lG5iUn/3ChMjpQpGNPs8MyBN72CQX40Jng5L4geI5qkKyr2kscJ1HFIOklWVMAVzdAJp+N7ORokrg7XvCRjcG4k6lwOCN5+5c4La4Y8ZvyRkxBKUigFKTAv/3/Rr0YZhE2AC0ieoXOCwkIB+vnm/yxL2jCvc1MwW2jI7SKzu3bskQJOr7sSHzEUq800IbIu9Q+QI8K5Zh5KSMoRnQ0+qBmVbgLfw4NeiiK4g2KFTV7K/E98VMBbMDalC8lnwYQksUZlAABiOW7Fzv3/1Uo7vjcvHqCNNku6iYZgAa5ygB0SjoyrUfWZrQkmw4cI9ABREaT74goch+OSOBD9FWzAesmr17aX7NR2rwirmYBf1SEFhHJ9pHQEEEBeF2fl+aTa2dgpUMdcj/6zV/rkRGPiwI9LQDSYIrW3qusnMuh0RT5ANjYGvOsJrv6oqGjV6eUA6ad2I3xhlVJN01XRAT1ngG2shkymKsw4ufJv/LMbs15UrocLFjL9h9qafMObY4IgUmj9edESOoLYSUOMs3DDyadNW5wEV5CP0U2E2liAiVKFZYGG3gED8t+tQB11cVzg39O203ZO0ElsXnD05MHkQK4gfL4oSgQoTiBtSK1WPkgg7VCcapLcKFJb5TmH9tTH5bLlyc+Yp+KdNJ8u9vvxTppPl3t9+KdNJ8u9vvxTppPl3t9+KdNJ7GJuTRXSCkHbhuc+2KqSEIizLoyvx4uVZ/AB8Jb9zNjXYoU6Nq5EV0fQWFHjgegiXr/6LtcWh63wlvCJi1tkmLW2SYtbZKARzLiAAAABcLueVMVg7ODDm3GZHRGd9k5rXg1BD9pCrcAIhJTvmcQgIWfICJ4U0vuDkC4YfwT+3NYfbN7e/kxXJ0a9Hr7436xAApgP9SLLQn4GFpkIEzq3e4OHDuw044xT9V2KaW8tAEwvuLuJZ2kIMXLOnUEFURAiLDAqwwtT4tMqN1GW9SQAOcJkVGi6gPNg5VSsAVvIa8gGVinA8gPTQnkDzCwf+rqDfmjPtNcAnxo3d/o0gcmYA16vQ/7hC//twr5G7q2Z+LMRAiplqAOgSXyEfI7g4LL3B1DfbZyqGHkj+INkXJszx2FycOEl7k1flyBBabXsFvuf0alVWnxkxZTICrw69T9NHfJAzcK5GXPztQmVcjLn52oTKuRlz87UJlXIy5+dqEyrkZc/O5QI2dIwjVO6VZ6tpY9StpEWNxn2lRhUaTnFyXfSQJYvWOUsCzFrDTnoYHi/2qY2pm/8sHrK0IZCR0aEmkKSVn4TE0ffFgx7PhAVRMqxKgR6VbZXxV3eGYfW9317ZZne+WZ3vlmd75Zne+WZ3vlmd75Zne9G9LpPPfNSDQ25cJwEfrPqkFFgAAFTyEJ3SPJ5KNdZfKgcHs3OGaIA1F43/PcXrDCV7cTc5zpTXPvxe4wjE0JV+nqrzXmv2gucAAAAAABTQum1mI30tCl+QZa4C9Zy+OQ1trb3EYARsOX/4+ehgeADKfS3e6aWd31rNGxsiWZrteidD1z4AAAB33VfG/eSG+4jU6ebcWOujK/Y6Z+NlUxRbVdzCfFzgaVqyixRTDROAyEG0cJ5LCv9b5zfzlLPUNeAAAA/FK5RaoFFzOhq36ugUGFWFN+0rkN4x0uVyoF2DpRrDkjxm6UFaL0pwpA27kLTObNvo1ynkLWuYKlMn/4TZ6q3JucAIfWmwcBZu4DEQcAAAAB+0p9VEo/agYzfCDELKWVkvrEZRM1ry/9Q6DL1LzvPohRSlsVa4CCH9g+NNeZkzSMWp94jOs8HP+fZHJHh8SmVyMa3AAAAE1mzmPWNj1jMd/nlg/m8IIHnohjzOpTDWM1WWt+OzHlm8nSNrl2zps1hAjWq4WJcND4yxB8ybHOOJTamJS/M3oTeNOIRTAAAAEHs4TFI/xawkFuHEnLMi1JGAKbPGs65Pzh/LxeOU9WhGz93Xph3qxORo9R4oQLcJniQWgEO7ahXjgbgfWjHMz6MEf8TTLBviRx4NPQ1Ny0YCypGqc0AAAAABgeEAtwhSkKHh6+W72PVuGi7RMNhnkyQ/bkfzUrPwegRcnt+E6GMcrP9xid4LBrnbBU3G5NfeqNuUi0q4RaCpjlZoO3p33952PTXv0+yl8P52qxBd/Pm1ggk2pJiOwkFdRVQuc6q0wIRKTqoIyGlO4PPJ4XdHoq9Op0lD7KhHO8DA4n6Z6CTbAna5iNLTe+Vc1Kx5h44G3+t8nmZUAAAAYHkgSgLcJnnJdg8rRSPipDyAfJiDVDZFcLtbLrgAbn4PhLGH+3uhUjABKvOD6laZT+UjOsPKFHBrNHByL01nuT4U7eKugAAAjgLyCoJGg3IM35gZlKd5DqpRgZZdRYidqgAACpTql47czRNIlJt0EikFto4Of0mcAAASR4gUoA7LBnMQ8zoYsWy8qWtCgCuA62tAu4POABpiYMz4VM9NYCy0A/CCRX96EtjDadG5U04BEZ8qhQIBgnOHdmiVjPntQ3efCgCgTuxHYdLm4s11BApJMtKBVYjsx0D5zUmcvpBsyqsfTM2L9O4DI8XAnEDJgxkUMbSYhCrEkh6/ZATtGxx/ag4zhdftpZhtMr1AAADA8a11CIV+mUpr5VJZJQmqc4FucPqRbw1FggjkatFZga04Jp0mlB0UXQO4YxHG6awLQL5PyUB4K9Okf/kG9GNG13Ih7+jTlWggTwPyGyaDaPXp8OEsXfTYuzWsefk5U+McLnH/530Fe9Ie9lbOHqYpMY7UbE1cVToNbKiAkLZarAJ+tg4ACBvJ2GdWJW7TxIcgg6JJJ+ePjr1HKLJApQ7WKEJZFqmYx+c3M+BhedgpZbFM5tEGsCRsvy0jhhGNlqfcSW3U3nL9kK6DrFqsbJzEu+wh1hMDZk/Q522qO0pyc6tg+Od+f2/Idz545zWawB7SbNSwdNlYVFssM+A4xmtqDjd6xh910D/1Dux56OfPeIAAAwQDChAlaqQPXKBLnWQpxbgulXyYpCTROBnCTgoX1gt+kqH0rnDOkP7bIcOrX/NH8AACo6o5GRhuSb3JYgfOu+oemaSPP0VEZvqtNDggqqjTwwEGBZUaNvd///40GfTBjEOaAAAZf65gtK10OJIB4nEByBeRhLeiS6hWJ7EhyahCtHOK6aIMS2cijoAAAYu8oskUI1Yfl+m325QOUFkssinB4vQhNOSfdosPytLpK/EChq99Zj4uh0kvoLSal8mPBzmAAKNMuVbJsGdPlcnkchbz9migBMWsNta0rPqltpTYrkWFwgAAYvNikNvMVKQkwsbdwaYNAW+tA52caPfRHX0nj+prYyxJU2kMLoE88ck0AAKtXa5C84/iYgah0MYLhqY3sAf08fzbO55HWhiCxmB5AAA6LSJpH96flee1MP6Brad50TdyvqTxj9HxVSJgJXPG30iAoO6mJyU4FfnNm6QlPC4AABcjcyENKsU9AgwhpDIN2KxXw0CKgqvUeR1oY/3ocMIAAE1vhYjwdFp1xgxw+D3RDwL9X6WtN4/TzRNCJupsgdhuA8EeRZY794o+AAAYnXzkG2BFjXIAEnn2c0/AoJbICb8YQ1EsTRs2h0Nxij//w8AAAJ9MhLyKIFIKwL7binftoIjjUxZUWcwcnIRbVQ+nM+xrECs8vKIwbDEWHsxMUlpAAABisKiFdA8GRI/gvgtJ3GSsAnA6j6lLupgE9t4AAwCbqGvrcXPwq5XCTaR9P02o30xE3U2QOnDcS2CvvVsP9cdZOBsAAA9T07KB8sOk/aRPeUYIsy2Za7afiXmo4+Rg7IABi0ha0f2l1hzX6zn1NgSihB3Rd6Nft7GZIolabscMY9giBvwlGAAAYh+0YgBMCG2DCoznN3cNqO7c14A1y4c+b6hpTh7kgqbn4ABOJ6s7Pz9DBBElZayKOJK07lVW7OWYC9G2rukyxkK/4cSl+805Lpr34AAA5MIKCOIMR+XeeB/V2muraPI4S7EqQAH9A/3OusIQi5tF65L5lANj5INj8Aftyz8WvoAAAP/4dzZ+Ls2AOpgytf1ZR9aMWF9HBUdKt9AAiXX+juFofhzq2IgyTMrU0qw2AXuh07ZfmmE2GV6iUjXakPnuAAABQWQTh5yF3aKmM6NYBckdG2cQACSRuboMTH+eQG1WO05GgOMk2fzHJFI7cEAvl4OHNBcLcSm7gYLzZSKaAAAGkWtYjojZ4fOIFyBNzH1AFP9Tfp2SuxaFaYLKuigAOgCtYnWvqUEwJSa7KsXTU6wmbHBToJoAAAASowtdUT48VQq5bvyqshI2Sojtf/s3O4IwAcaCPPVPab0HFUHHto1+1ng9YfrD+3pex9kLam0HwAAEEFPWNiqJHX8CPoumUSMfbKxmIE6E22ljbmoiDQuyK9NSOggAI16/oYLLkdyET2YPGYsEM28SXV/r2eceAAAAaiUwyCNNFO/tl4z1+xmxoqvYgWkXcKgByhU5XKAKger2QJ0RQymYoiPNvGzjWoPH0t9aEm5YAABTnJWjcevjh1QREdhf6Xv1VRhDFg5nhUgALAiefBXnK0/qY1kL784yc5BypdRHVCJzBxMWNy/YiizdE3uvAAABy5TmmKWvkIFKtNmEAHZE7QEhCqkpyz11PDEK4UeYhrD6vGRHDv6CAAAP3Yjqpn2f2/12k9Amw4zMDCq1xWLvpA6EOFh+zuuZMAbyUcFaskIFrBBEugmr4zQySqUPzhMQSkkwxdFgAAEfuJBQiCDDmgrtpxdc961Ki8aAJGOa+IR+4V0NM2Zik1XvpAwFuyu7HAkAAAAKH7EqhGjaq5k2n17b6cdliDc/hAA/6vzw5GN2Q91U1t7kxj6bY3BfHXSz0kowAABFoPpPrJ8S77ZyEUT7SwyuctAB8R4CW6mZClcsmZamJ43zBnReQAAAAgmv3pQOjpafRNyaY14abrFMZjMyF2KjhABaiywHx9kkt6SDD2FSraeBhIVDqidR4yeYn/y14anK12cmDHMHTThsAAASCmkt2iRoFSvhnAACRmFbROCbOsVT+wcHtjFlyiAAAETqzioJOa7artVtZK8DgBulsnADtn9ACOAgiDIB8IUyIGxwAAAAuvIczpQ4xwAF9rck+CHbEf6rAAAAxZEG5wt2aYAA7U59LgAAAGfgBEY6kqYC7q47S4LKZl8TSupEaV1IjSupEaV1IjSupEaV1IjSupEaV1IjSupEaV1IjSupEYAAM89ngAAAAAAAAAC4GGrfrgAAAKd8bFwAhhVTMGvLTRopxX/gAAAQoQzWKyrKhGmcCbKUhp9noWbczh/Tby4AFvSYybX2IJTU7wiNnRloMNwgPvYkOYYgUvaKXtFL2il7RS9ope0UvaKXtFL2il7RS9ope0UvaKXtFL2il7RS9ope0UvaKXtFL2il7RS9ope0UvaKXtFL2il7RS9oQvkMFeanXzwTmp2YXkAAAAAAAAAAAAAAAAAAAAAAAAAAA=;" vertex="1" parent="1">
          <mxGeometry x="373.82" y="180" width="82.37" height="80" as="geometry" />
        </mxCell>
        <mxCell id="COWz8Rfewct7J5CobRBN-4" value="" style="shape=image;imageAspect=0;aspect=fixed;verticalLabelPosition=bottom;verticalAlign=top;image=https://upload.wikimedia.org/wikipedia/commons/d/d2/AWS_Simple_Icons_Networking_Amazon_Elastic_Load_Balancer.svg;" vertex="1" parent="1">
          <mxGeometry x="365" y="310" width="100" height="100" as="geometry" />
        </mxCell>
        <mxCell id="COWz8Rfewct7J5CobRBN-14" style="edgeStyle=orthogonalEdgeStyle;rounded=0;orthogonalLoop=1;jettySize=auto;html=1;exitX=1.006;exitY=0.154;exitDx=0;exitDy=0;exitPerimeter=0;" edge="1" parent="1" source="COWz8Rfewct7J5CobRBN-5" target="COWz8Rfewct7J5CobRBN-4">
          <mxGeometry relative="1" as="geometry" />
        </mxCell>
        <mxCell id="COWz8Rfewct7J5CobRBN-5" value="" style="rounded=1;whiteSpace=wrap;html=1;fillColor=none;" vertex="1" parent="1">
          <mxGeometry x="80" y="440" width="280" height="440" as="geometry" />
        </mxCell>
        <mxCell id="COWz8Rfewct7J5CobRBN-6" value="" style="rounded=1;whiteSpace=wrap;html=1;fillColor=none;" vertex="1" parent="1">
          <mxGeometry x="440" y="440" width="320" height="200" as="geometry" />
        </mxCell>
        <mxCell id="COWz8Rfewct7J5CobRBN-7" value="" style="rounded=1;whiteSpace=wrap;html=1;fillColor=none;" vertex="1" parent="1">
          <mxGeometry x="440" y="680" width="320" height="200" as="geometry" />
        </mxCell>
        <mxCell id="COWz8Rfewct7J5CobRBN-8" value="" style="shape=image;imageAspect=0;aspect=fixed;verticalLabelPosition=bottom;verticalAlign=top;image=data:image/png,iVBORw0KGgoAAAANSUhEUgAAASwAAAEsCAYAAAB5fY51AAAgAElEQVR4Xu2dCXQcxZnHv+oZnSPLYIvDXjs+hY2NjcGW2IMcuyQkYYnlA5w82H0ELOIsR17ChmSxBOsQORvibMIVEhYbZ5NsDhywhJcACWfYHEj4vqWR8H3Isq1jZqQ5a18bBI7xqLuranr6+Ou9PPKe6vvq+35V/r3qnp4WI/yAAAiAgEsIMJfUiTJBAARAgCAsbAIQAAHXEICwXLNUKBQEQADCwh4AARBwDQEIyzVLhUJBAAQgLOwBEAAB1xCAsFyzVCgUBEAgZ8Li36oeGU9nKjIBqmBpKgBqnxIIaGmN2PHCeH8X+8aWTp9SQNuKCCgTFn94clEsMuLTPEOLiNG1jGiYohqRxisEOE8Q0Ysao6eKk7FGtmx7xCutoQ97CEgLSz9JxTh9hXP6F8ZohD1lYxbXE+A8RsSeZAXsgdKvv3nA9f2gAVsISAkrsrz664zo27ZUikk8S4ATfb+srvkuzzaIxpQREBIWf4oC0daq/2aM3aisEiTyO4EXSwsHFrK7t0T9DgL9ZycgJKxIQ9XvGGMfB1gQUEuAbygtjH8E0lJL1UvZLAsr0lD1S8bYZ70EAb04hwAn/rvQ0pZPMkbcOVWhEqcQsCSsSEPVVxljK5xSPOrwJgHO+XfL6lvu9mZ36EqGgGlhxR64YgxPZcJErEhmQsSCgDEBzoOZ9PSiezfsNB6LEX4iYFpY0eVVTxOxBX6Cg17zR4Bz/vuy+paP5q8CzOxEAqaE1d9w2bgMK9jjxAZQk4cJcKoK1Te/5eEO0ZpFAqaEFVte/RVO9D2LuTEcBCQJ8G+G6lruk0yCcA8RMCWsSEPV64yxj3iob7TiAgKcaEtZXfOlLigVJdpEwJSwosurEkQMX2C2aVEwzfsESpOdJWzZngEwAQGdgKGw+ANThsVSw3uBCwTyQSDI0hcXLV2/Kx9zY07nETAU1sA3r6hMa7zVeaWjIj8Q4Bn+6bJ7W17wQ6/o0ZiAobAiyy+fySi42TgVRoCAegKMZ24orX/rF+ozI6MbCUBYblw1H9UMYflosU20CmGZgIQh+SMAYeWPvRNnhrCcuCqo6T0CEBY2w+kEICzsB0cTgLAcvTy2Fwdh2Y4cE1ohAGFZoeX9sRCW99fY1R1CWK5ePuXFQ1jKkSKhSgIQlkqa7s8FYbl/DT3dAYTl6eW13ByEZRkZAuwkAGHZSdv5c0FYzl8jX1c4EE/Wjrx/4ypfQ0Dz7xEwFFbH3dM+fME5Zb8HMxDIB4HO7vg9E1Zsxt++zAd8B85pKKzNd0yfO3lUqMmBtaMkHxDY0zXwn9O/v+WrPmgVLZogYCisljumLpw2qvzXJnJhCAgoJ9De2f/ozIe23qk8MRK6kgCE5cpl80/REJZ/1tpMpxCWGUoYkzcCEFbe0DtyYgjLkcuCogYJQFjYC6cTgLCwHxxNAMJy9PLYXhyEZTtyTGiFAIRlhZb3x0JY3l9jV3cIYbl6+ZQXD2EpR4qEKglAWCppuj8XhOX+NfR0BxCWp5fXcnMQlmVkCLCTAIRlJ23nzwVhOX+NfF0hhOXr5f9A8xAW9oOjCUBYjl4e24uDsGxHjgmtEICwrNDy/lgIy/tr7OoOISxXL5/y4iEs5UiRUCUBCEslTffnMhTWhjumL5wyKoTXy5yx1ieiKersS1J/glMixak/maFE+p3/H09lKJl2/+ZwQgeM6IZbGtt+4YRaUEP+CUBYFtbgSG+K2jsH6EhPkpIZC4EYKkwAwhJG58lAQ2G13Dbtuml/VbbGk92baCqd4dTRFae2o3HqHYClTCBTOgTCUorT9ckMheXXS8KBZIbaOuMU7oxTPMVdv9BubQDCcuvK5aZuQ2H57RXJmQyn1s44bT/Uj/tQudlzlrJCWJZweX6wobD8dMLqiqTozbej1IdLP8dsfAjLMUvhiEIMheWHExbnnLYfGqDthweI4+rPERtzsAgIy1HLkfdifC+sZJrT/4UjdLQ3lffFQAEfJABhYVecTsDXwtKfnXp9d4S6+/HQlFP/WUBYTl2Z/NTlW2FF42l6eVeEYgk8qpCfrWduVgjLHCe/jPKlsCIDuqz6qD+JG1ZO3+gQltNXyN76fCcs/Z7VC9t6KYqTlb07TXA2CEsQnEfDDIW1/s6pC6ZeWP60V/p/oy1CB7uTuWmHU5QTP84YdRFRX24m8VdWlub337Ku/RV/dY1usxEwFJaXnsPqOBan5j0x+d3A+VtE7FVO/I0AY/tTGu+69ZnwAfnEyAACIDAUAUNheeU5LP2rNs9t7RF/ep3TQc7oR+k0+9GSda36CQo/IAACNhMwFNamOy9ZUHlhqesvCfVnrQ6ctH4pyImv55yvuLWp/VfZ1oYvm14WLSi9joguYZwqiLEKTrzM5rXEdA4iwDj1ElEXIzpKGrWULm15xkHlubYUQ2F54W0NXX1JemlXxNoicXpJo9T9Nze9/Ua2wFjDnIWc2E3E2GesJcdo3xHgPMYZPRNgtLJkacvrvutfUcOGwvLCPazXdveR/i4rUz+cdnPid9c2hddlGx9pqL6JiN/DGJtiKicGgcDpBDhv5ozdV1bX/CLAWCPgeWHpX2h+aaeJD+y4/o1C9p/pA21Ll6yns1478mXji6MF561mxD5nDTNGg8AHCTDOv11a33IP2JgnYCgst9/D+nNHlPYcTwxJhBMdZpnMjYufbX81+32q2RWxAu03RKzKPF6MBAFDAo2huub5hqMw4BQBQ2G5+VNC/SHRtRu7KTPEA+2c8+0Fae2TN/1v68HsshpfHCs47w9E7HLsGxBQToDzp0P1LfqHNvgxIGAoLDffw9LfFvrW3qGeu+KvF8Vp7j89H9Y/0cn6E22oehY31vFvKacEOG8I1bfcm9M5PJDcUFhuPmG90dZHB7vPfrOdE/2uvKDw2kVrtg95vRhrmHMHZ9ojHlhrtOBwAhqjj5Qsbc76qbTDy7elPENhufWrOfot9F9v6Kb0WV7GwDlfV9sUnmtEmH+remSU09uMaJjRWPweBGQJcKIdZXXN02XzeDneUFhufQ5L/7uBv91x1k8H9wwr6J+2aM2BfqOFjTZUP0KM7jAah9+DgCoCnPjNZXUtP1aVz2t5jIV1x9SF00aVu+4Pqb59LE5vnvG9QU6U5JnUnFuffXuLmYWMLK/qYsRGmhmLMSCgiMCLobrmTynK5bk0hsJy6yXhpv0x2nUk/hcLxjm/q7Yp/H0zq9jfMPvKDAvgfoIZWBijjgDnidLS4Dnsrj8ZXgGom9Q9mQyF5dZLwjO/O8iJNh1obJu9jMjUK0ajDdXLidFS9ywlKvUMAZ6ZF6p/q8kz/ShsxFBYbj1hvba7l470vv+udo2nZ97c1LHVLLtIQ9XPGGM3mh2PcSCgigCnzNfK6t5aoSqfl/J4Vliv7uqlo33vCovznyxuCt9kZeEiy6teYsSushKDsSCghADnj4XqW25XkstjSQyF5dZLwpd39tKxyDvCSrP0lC+s7Wi1snbR5VUbidgsKzEYCwJqCPBnQ3UtNWpyeSuLsbBc+inhoLA48TW1jeFFVpctsrx6MyOaaTUO40FAngB/PlTXco18Hu9l8IGw0h+vbex42erSQVhWiWG8OgIQVjaWnhZWZ19qX21TeJzIRoKwRKghRg0BCEtYWG79lFC/JOyMpBtqG9uEvlAKYan5p4csIgQgLGFhufXLz7qwuqKpj92yNiz0OloIS+QfGmLUEICw/CesHT2JgcTu0kVr6P2HsSzsJgjLAiwMVUwAwhIWllsvCX/f2rv+0/+9a47oToKwRMkhTp4AhCUsLLdeEv4x3PfMJ1bvXCi6efoaqrZojM0QjUccCIgTgLB8J6wNeyLf+/ATO/5VdNOc+EbV20VBNl40HnEgIEognUm/Un7venzL4iwADR9rcOsl4faDkburH9vxXdFN0/nvs4+FCgMVovGIAwFRAtF4avP592/AtyxEhOXWS8Kdh/u+POfRnQ+Jbpqj987uLisODBeNRxwIiBLo6U+1jW7YcJFovJfjDE9YbhVW+HD09ksf3f6Y6OIdvnd2pLw4EBKNRxwIiBI4EU0eGPutjWNF470cZygst14S7j4Uu+3yH2z7oejiHaqf3T+8JFAsGo84EBAlcDySPPah/9h4vmi8l+MMheXaE9aR2G2XPgJheXnzerU3CCv7ykJYWdjghOVVHTi/LwgLwrK8SyEsy8gQoIgAhAVhWd5KEJZlZAhQRADCgrAsbyUIyzIyBCgiAGFBWJa3EoRlGRkCFBGAsCAsy1sJwrKMDAGKCEBYEJblrQRhWUaGAEUEICwIy/JWgrAsI0OAIgIQFoRleStBWJaRIUARAQgLwrK8lSAsy8gQoIgAhAVhWd5KEJZlZAhQRADCgrAsbyUIyzIyBCgiAGFBWJa3EoRlGRkCFBGAsCSEteGO6QunjAr9WtFa2JamtTN6+2UPib8P60j9nNiwEq3EtoJdNlF/IkPxFKeBVIYSqQzFk5wSaU7cZX04sdxkim++8vFteOPoWRbH8G0NEJYTt7S9NSXTnA52J+lYX5KOR9LU3S/0l9PsLdrVs/HnFzeGr3F1Czkq3lBYeB9Wjsi7IG1Pf5rCnXHq6EpQOoOzk31LBmFlYw1hZSHj53tYR3qStOtonPT/4icfBCAsYWHhkjAfGzY/c+qC2rQ/Rt39mfwUgFnfJQBhQVgW/zH46aZ770CKNuztpyO9KYuUMDw3BCAsYWHhHlZutqRTsrZ1DtCm/f2UxqHKKUtCRBCWuLBum3bdtL8qW+Og1TRVCh5rGBqT/snfnzqidKgb96lMbShbB0FY4sK6Y+rCaaPKXfccVhh/NSfrP7H+ZIZe3dVHvQM4VtnqIdOTQVjiwsIJy/Q2c8NA/VGF11sjFEtAVs5dLwhLXFg4YTl3X1usTJfVy7v6KJHCM1UW0dk8HMISFxZOWDZv1txMp8vqlV19p75Ogx+nE4CwxIWFE5bTd7dhffpT6s9v66VIHJeBhrAcMQDCEhbW+junLph6YfnTjlhHC0Xgpvv7sJrfjp76eo2KH86pizG+Qf8vMX6MSOvSiB/PZKhL4/x4OsBgRUnQQZ45fnNTx1bJNJ4Mx1dzsiyrV76ac6Q3Sa/tjkhuXv4KZfgv0wH++hfWdrRKJkM4CAgTMBTWpjsvWVB5YanrTlh4DotIf9ZKvxQU+0SQ9xOxn2YYPXjr2radQ+2w6PLZo4Jpqsho2rnEuSa8GxHoagKcsYR+yi4KaF1safPxXDRjKKwW3HTPBXdbcm7cF6PdR+PW5uJ0iDP+aLog89iSNR09Zwvmy2ZXxArYZzln1zHGPmZtAoz2BQHOY0S0hjTWGFra3KiqZ2Nh4aa7Kta25tFfsLduSw+ZfisM572c6FuxBD34pefDZ7Vc/P7ZM5Ja4B5GdD0xCtraECZzLQFO/Dgj9mip1v8Qu2frSZlGDIWFtzXI4M1frKXTFeerUxnta0vWtXZlOVGVxoKBHxOj6/PXEWZ2PQFOA4zxfyuta3lItBcIKws5N7+tQX9lcdPmXuOX7nHeS8Q/v7ipfW22DRR94LLRlCz4DTG6VHSTIQ4EziDweKiu+YsiVAyFhZvuIljzG9N6NE4b9um3EIb44XxrMK19+qb/bT2YbVR/w2XjMiz4RyI2Or8dYXbPEeDUFKpvnme1L0Nh4fUyVpHmf/xvtvYM/cVmTi8NFHbPv33NsazPO/AHpgyLpsqbGbGp+e8IFXiRACf+UFldy5et9GYoLNzDsoIz/2P7BtL03NberIVwzn9V2xT+nFGlkeVVLzFiVxmNw+9BQIYAz/Bbyu5tWW02h6GwcMIyi9IZ4/Q/GvHW3iyXg5x+ub+p7cZlREM+jR5bXn0DJ/ofZ3SEKrxMgBOdDCUTE9myTd1m+jQUFr6aYwajc8b8IdxH+09+8FXHnHhjbWN4vlGl/Ht/UxLrT7UTsVFGY/F7EFBDgP8wVNdym5lchsLCCcsMRueMeXZTN8WSZ7yRgdPBVGF6erYHQU+vPvrN6sWk0UrndIRKfEAgXVoSGMbu+lO/Ua+GwsIJywihc36fSnP69YaznKwZ/9vFa8N/MlNptKFqHTF2rZmxGAMCqggw4p8trWt5yiifobBwwjJC6Jzfn4gk6bc7z/jgj9OKxU1tXzNTJV82vjgWPK+HGCs0Mx5jQEAVAU7087K65huN8hkKCycsI4TO+f3Bkwl6Ixx9ryBOvL28YGDGojUHDI/aelCs4Yq/5oybOok5p2tU4gkCnLeH6lsmG/UCYWUh5MbXy+w/kaA/tL8vrAxP/+OtTR2/MdoEg7+PNVTP54yeMTse40BAGQFOqVB9c4FRPkNh4ZLQCKFzfr/neIL+3PGOsDjnG2ubwpdbqS66fM7tRNqjVmIwFgRUEWBBNrb0628eGCofhOWhE9be44lTf2vwlLAoM7+2sd3Saz0iDVVfZYytULUBkQcErBAIptMzi+5bP+SbViEsDwqLc76vtik8zspm0cdCWFaJYbxKAhDWI9t+KArUjfewBk9YjGfqb2lqX261dwjLKjGMV0lAibDwKaHKJcltrkFhpbTE6CXP7D1sdTYIyyoxjFdJAMLy5wmrZXFjW7XIRoKwRKghRhUBJcJ684uXXHvJ2NJ1qoqyK48f/wjFqU8J2yPfXtwUvkeEM4QlQg0xqggEKTOjqO6tbUPlM7zpvvaGi6qvnn7Om6qKsiuPH/8uoX5J+MeO3o/XNna8LMIZwhKhhhhVBJScsJ6YO2Hm9XMqNhcEDN2mqm4lefwqrDfaOkNL1h0yeN3o2RFDWEq2HpIIElAmrE9OP3fzyDJ3/ZEUP14S7juZHLj4uxtLBPcLHmsQBYc4JQSUXBKurpk4Y+ro0JaZY4T/HShpxmoSP56wDnUnOitXbLrAKqvB8cfuu3xZaVHw30XjEQcCMgSUnbBGlBZu/tSM4TK12B7rR2Ed7k4cnLxi0xhR2Hv+bdYPzhtWaOpFaqJzIA4EshFQJixNC26+etowGhFyz2WhHy8Jj/Qm9016YKPlJ9wHN1Db3bN+NvqcQsNXfOCfHAjkgkCQUpcW1W3YMlRuwzvp+iVhhgW2jAgF6Opp5bmoMyc5/XjCOtqT3DPxOxsniALdcdfMxnEji2tE4xEHAjIEDhzrv2bKg1uflxKW/imhfsLSk1SPL6WJ5xXJ1GRbrB9PWEd7k3smPiAjrEvXjRtZhLeN2rZLMdHpBNqOxhbMenhb1j/qq481PGGdLiz9yYarLnbHpaEfT1hHepJ7J31n43jRfwbbvjJz3YSKYghLFCDipAi0HexdOOuxXUO+j82SsPRqCoOMPjW9nEoLNanich0MYVknDGFZZ4YIdQRyIiy9vNJCRh+9aBgNLwmoq1ZxJgjLOlAIyzozRKgjoERYK+dPuoRx7QMv1QpqRH83uYxGDTd8q6m6jixk8qWwupN7J63AJaGFbYKhDiLQdqhvwawf7JS7h7Vq7tjRpBUfPGtfjGjM8AKaOqqIKsqcJS5fCgv3sBz0zw+lWCWg5ISlT7qqZnKGGBvyfldFWZA+NKKQPjSygIr141eef/ApofUF2HEXPiW0Tg0Rqggo+ZTwXWHtI8bGmi1sZFng1E35oqD+P0ZDq85sVmvjoonkdf/wxK6nrUW9P/pI/ZzYsBLNVd9HwmMNoquNOCcQaD3WP/+yB7cO+XcIDD8l1BtZOW/yTxmxf3JCU6ZrYOkPL17b8X+mx58x0I2vSMZjDaKrjTgnEFB2SfhkzeTrOGNrnNCU6RogLNOoBgfiU0LLyBCgkIAyYf3k6gtCyZJhXcRYscL6cpvKj8LCp4S53VPInlMCSj4lHKxwZc3kbzDG7stpxSqT+1FY+JRQ5Q5CLpsJKDth6XU/df30wt5EvI0x9iGb+xCbDsKyzA2XhJaRIUAhAaXC0utaOW/iVYwCLymsMXep/CgsXBLmbj8hc84JKL0kHKx21bzKzxPR6pxXLzuBH4WFS0LZXYP4PBJQfsI67X7WfYyxb+SxN+OpISxjRmeMwCWhZWQIUEggJyes96Q1b/I/E7FVjMhZ38kZLBDCsryVICzLyBCgkEDOTliDNa6umfDhNAs+zoguVli3mlQQlmWOEJZlZAhQSCCnJ6zT63xibuUnmEZ3M6JPKKxfLpUfhYWb7nJ7BtF5JWCbsAa7fPwzF1UEWXo+Z2wBEenfPaxgjAn/2SkpehCWZXw4YVlGhgCFBGwXlsLa854K3yXM+xKgAJ8RyPk9LC/zhLC8vLrozYkEICyJVYGwJOAhFAQECEBYAtAGQyAsCXgIBQEBAhCWADQIC3/mS2LbIFSCAIQlAQ8nLAl4CAUBAQIQlgA0nLBwwpLYNgiVIABhScDDCUsCHkJBQIAAhCUADScsnLAktg1CJQhAWBLwcMKSgIdQEBAgAGEJQMMJCycsiW2DUAkCEJYEPJywJOAhFAQECEBYAtBwwsIJS2LbIFSCAIQlAQ8nLAl4CAUBAQIQlgA0nLBwwpLYNgiVIABhScDDCUsCHkJBQIAAhCUADScsnLAktg1CJQhAWBLwcMKSgIdQEBAgAGEJQMMJCycsiW2DUAkCEJYEPJywJOAhFAQECEBYAtBwwsIJS2LbIFSCAIQlAQ8nLAl4CAUBAQIQlgA0nLBwwpLYNgiVIABhScDDCUsCHkJBQIAAhCUADScsnLAktg1CJQhAWBLwcMKSgIdQEBAgAGEJQMMJCycsiW2DUAkCEJYEPJywJOAhFAQECEBYAtBwwsIJS2LbIFSCAIQlAQ8nLAl4CAUBAQIQlgC0wZDD9bNj5SWBEokUtoce7U3umfjAxgmiE++469J140YWXSsajzgQkCHQdjS2YNbD29YOlYPJTODl2L33XNZXUVZQ5qYej/Qk9076zsbxojVv+8rMdRMqcEkoyg9xcgRwwpLgt+tfZ50YO6LwXIkUtodCWLYjx4QKCUBYEjA3fWnmkcoLii+QSGF7KC4JbUeOCRUSwCWhBMwXPz+1/crK8okSKWwPxQnLduSYUCEBnLAkYK6qqdx83exzZgYD7rnNB2FJLDhC804AwpJYgpU1lZv/ZlJo5viRhRJZ7A3FJaG9vDGbWgK4JJTgqQtrWLE285oZ5aQxd5yycMKSWHCE5p0ATlgSS6ALizGaOWtMMU0d5Y7HsSAsiQVHaN4JQFgSSzAorAKN6OPTyml4SUAimz2huCS0hzNmyQ0BXBJKcB0Ulp6ipIDRp6aXU5FuLwf/4ITl4MVBaYYEcMIyRJR9wOnC0keNCAXoYxeVUWHQudKSFRa+miOxYRAqTQAnLAmEZwpLTxUq0ujvLyqjsmJnXh7KCgtfzZHYMAiVJoATlgTClfMq32RE1WemKAoymjW2hCZUFElkz00o7mHlhiuy2kOg9Vj//Mse3No41Gzu+LzeHl5/McuqmslNxNjcbFPrp62pFxbR+BFFVBB0BkYIKw8bBVMqI4BLQgmUK2sqf8QYLTGTYtTwII0bUUjDSwNUGGBUFNQoH0/IQ1hmVgtjnEoAwpJYmVXzJt1JpD0skcL2UM75z2ubwjeKTox7WKLkEKeCQNuhvgWzfrAT78MSgbn6mvEXZgoLDovE5jHmF4sb224QnR/CEiWHOBUEcNNdkuKqeZXNRFQlmcbOcAjLTtqYSykBCEsS58p5k/+ZEfuJZBo7wyEsO2ljLqUEICxJnJyIPVlTuYMYTZVMZVc4hGUXacyjnACEpQDpEzUTr9FY4DkFqXKeAjfdc44YE+SQAG66K4K7qqbyIWL0JUXpcpkGJ6xc0kXunBLACUsR3mVE2th5la8T0ZWKUuYqDYSVK7LIm3MCEJZCxKvnjT8nQwXrnCwtXBIqXHCksp0ALgkVI3/qegr0JSY/QYzdrDi1qnQ4YakiiTy2E8AJK0fIn6iZ9FmNsXoidkmOphBKixOWEDYEOYQATlg5Xogn5lZ+gjH+ecaY8NPlikvECUsxUKSzjwCEZRPrxz8zujTISueTRpU2TZllGrZ1cWPb06I14Ks5ouQQp4IAhKWCoo9yQFg+WmwHtop7WA5cFCeXBGE5eXW8XxuE5f01VtohhKUUJ5JZJABhWQTm9+EQlt93QH77h7Dyy991s0NYrlsyTxUMYXlqOXPfDISVe8aYITsBCAu7wxIBCMsSLgxWTADCUgzU6+kgLK+vsLP7g7CcvT6Oqw7CctyS+KogCMtXyy3fLIQlzxAZxAlAWOLsfBkJYfly2R3TNITlmKVwRyEQljvWyatVQlheXdkc9QVh5Qgs0poiAGGZwoRBgwQgLOyFfBKAsPJJ34VzQ1guXDQPlQxheWgx7WgFwrKDMubIRgDCwt6wRADCsoQLgxUTgLAUA/V6OgjL6yvs7P4gLGevj+Oqg7ActyS+KgjC8tVyyzcLYckzRAZxAhCWODtfRkJYvlx2xzQNYTlmKdxRCITljnXyapUQlldXNkd9QVg5Aou0pghAWKYwYdAgAQgLeyGfBCCsfNJ34dwQlgsXzUMlQ1geWkw7WoGw7KCMObIRgLCwNywRgLAs4cJgxQQgLMVAvZ4OwvL6Cju7PwjL2evjuOogLMctia8KgrB8tdzyzUJY8gyRQZwAhCXOzpeRW788Y+3E80rm+bJ5NJ13AtsO9F17xQ93PjdUISzvVaIAxxBovn36j6ePDt3kmIJQiK8IvLClq3rhrzpaICxfLbt4s6/UTnv4iglld4pnQCQIiBFIpDLUuOHEzJubOrZCWGIMfRf1q0WV91576bn3+65xNJx3Ap19KXptZzeElfeVcFEBK2smffWqqeUrzi8vcFHVKNULBDbtj1Hr4RiE5YXFtKsHXVgXjypZMWtsqV1TYh4QOEVg3eYe6o8nISzsB/MEdGGVFgZW1Mw6x3wQRoKAJIGjvUl6dXeENJ6GsCRZ+ipcFxZj2orpo4poxhicsny1+HlqlnNOL2zvo57+NISVpzVw7bSDwgpoRNdcUk6hooBre0Hh7psEFMIAAAOTSURBVCDQejROG/bFThWLE5Y71swxVQ4KSy+ovFijq6eVUzCAR/Ucs0AeK6QrkqJXdvVRhr/TGITlsQXOdTunC0uf64LyIH30ojLSGKSVa/Z+y983kKbf7uijZPpdW0FYftsC8v2eKSw944XlQbpychlOWvJ4keFdAiejKXqtNULx1PuywgkL28MygbMJS08yvCRw6qRVWqhZzokAEDidwIGTCfpje/S9y8DTf4dLQuwVSwSenDfpC5y0x88WVKARTTq/iKacX0wlRRCXJbAYTPqjC7uODNDhnlRWGlxLja995u29Q+HCzQlspvcIPDm/8lrOaZ0RknEjCmjsuYU0ZkSh0VD83scE+uMZ2nMiQXuPJ6i7Pz00Cc75sMJwwaI1NORACMvHG+rM1lfOnXwZ09gGs0iCAaKKUJCKCzQqDDIq1D9RxI4yi89z4zIZTok0p3iSUzSRoRNRA0mdToDzI4ubwqOMoGB7GRHy0e8fn00FgTGTuxljeGrUR+vuiFY5f3ZxU7jGqBYIy4iQz36/qqbyGWI032dto908E2CcbrmlqW21URkQlhEhn/1+5fxJNzGu/dhnbaPdfBLgnPOBgYraFw+cMCoDwjIi5LPfP3X9mJLeZEk7IzK8n+AzNGg3RwQ48SdrG8OLzaSHsMxQ8tmYlXMnfY5p2i981jbazQcBTn1BLTbhprUHj5uZHsIyQ8mHY1bOq3yJEV3lw9bRso0EOKcv1ja1nfXZv7OVAWHZuDhummrV3CnDSEuvJ2KVbqobtbqKwH8tbmxbYqViCMsKLZ+NXT1v/Pg0D/6ZMXaBz1pHuzkmwIk31jaGLX8aDWHleGHcnv7JmkljObEXiLFpbu8F9TuEAOer9zeFa5cRZaxWBGFZJebD8acuD1n6Z8TYXB+2j5ZVEeB8gDN+d21j+6OiKSEsUXI+jNO/ukMa3UNECxkxfAPah3tArGV+jHN6tCSVeOTG5/adFMvxThSEJUPPp7Grrxl/YaYwcD2Rtog4/ztieMOfT7dC1rY58R7GqYlpbE1yX9uLS9ZTUgUjCEsFRZ/nWDV37GiNFYxM88C5XOM4efl0PwQ4T3CeOc7jyWNmnloXwQRhiVBDDAiAQF4IQFh5wY5JQQAERAhAWCLUEAMCIJAXAhBWXrBjUhAAARECEJYINcSAAAjkhQCElRfsmBQEQECEAIQlQg0xIAACeSEAYeUFOyYFARAQIfD/jgAUO3et1dwAAAAASUVORK5CYII=;" vertex="1" parent="1">
          <mxGeometry x="170" y="520" width="100" height="100" as="geometry" />
        </mxCell>
        <mxCell id="COWz8Rfewct7J5CobRBN-9" value="" style="shape=image;imageAspect=0;aspect=fixed;verticalLabelPosition=bottom;verticalAlign=top;image=data:image/png,iVBORw0KGgoAAAANSUhEUgAAASwAAAEsCAYAAAB5fY51AAAgAElEQVR4Xu2dCXQcxZnHv+oZnSPLYIvDXjs+hY2NjcGW2IMcuyQkYYnlA5w82H0ELOIsR17ChmSxBOsQORvibMIVEhYbZ5NsDhywhJcACWfYHEj4vqWR8H3Isq1jZqQ5a18bBI7xqLuranr6+Ou9PPKe6vvq+35V/r3qnp4WI/yAAAiAgEsIMJfUiTJBAARAgCAsbAIQAAHXEICwXLNUKBQEQADCwh4AARBwDQEIyzVLhUJBAAQgLOwBEAAB1xCAsFyzVCgUBEAgZ8Li36oeGU9nKjIBqmBpKgBqnxIIaGmN2PHCeH8X+8aWTp9SQNuKCCgTFn94clEsMuLTPEOLiNG1jGiYohqRxisEOE8Q0Ysao6eKk7FGtmx7xCutoQ97CEgLSz9JxTh9hXP6F8ZohD1lYxbXE+A8RsSeZAXsgdKvv3nA9f2gAVsISAkrsrz664zo27ZUikk8S4ATfb+srvkuzzaIxpQREBIWf4oC0daq/2aM3aisEiTyO4EXSwsHFrK7t0T9DgL9ZycgJKxIQ9XvGGMfB1gQUEuAbygtjH8E0lJL1UvZLAsr0lD1S8bYZ70EAb04hwAn/rvQ0pZPMkbcOVWhEqcQsCSsSEPVVxljK5xSPOrwJgHO+XfL6lvu9mZ36EqGgGlhxR64YgxPZcJErEhmQsSCgDEBzoOZ9PSiezfsNB6LEX4iYFpY0eVVTxOxBX6Cg17zR4Bz/vuy+paP5q8CzOxEAqaE1d9w2bgMK9jjxAZQk4cJcKoK1Te/5eEO0ZpFAqaEFVte/RVO9D2LuTEcBCQJ8G+G6lruk0yCcA8RMCWsSEPV64yxj3iob7TiAgKcaEtZXfOlLigVJdpEwJSwosurEkQMX2C2aVEwzfsESpOdJWzZngEwAQGdgKGw+ANThsVSw3uBCwTyQSDI0hcXLV2/Kx9zY07nETAU1sA3r6hMa7zVeaWjIj8Q4Bn+6bJ7W17wQ6/o0ZiAobAiyy+fySi42TgVRoCAegKMZ24orX/rF+ozI6MbCUBYblw1H9UMYflosU20CmGZgIQh+SMAYeWPvRNnhrCcuCqo6T0CEBY2w+kEICzsB0cTgLAcvTy2Fwdh2Y4cE1ohAGFZoeX9sRCW99fY1R1CWK5ePuXFQ1jKkSKhSgIQlkqa7s8FYbl/DT3dAYTl6eW13ByEZRkZAuwkAGHZSdv5c0FYzl8jX1c4EE/Wjrx/4ypfQ0Dz7xEwFFbH3dM+fME5Zb8HMxDIB4HO7vg9E1Zsxt++zAd8B85pKKzNd0yfO3lUqMmBtaMkHxDY0zXwn9O/v+WrPmgVLZogYCisljumLpw2qvzXJnJhCAgoJ9De2f/ozIe23qk8MRK6kgCE5cpl80/REJZ/1tpMpxCWGUoYkzcCEFbe0DtyYgjLkcuCogYJQFjYC6cTgLCwHxxNAMJy9PLYXhyEZTtyTGiFAIRlhZb3x0JY3l9jV3cIYbl6+ZQXD2EpR4qEKglAWCppuj8XhOX+NfR0BxCWp5fXcnMQlmVkCLCTAIRlJ23nzwVhOX+NfF0hhOXr5f9A8xAW9oOjCUBYjl4e24uDsGxHjgmtEICwrNDy/lgIy/tr7OoOISxXL5/y4iEs5UiRUCUBCEslTffnMhTWhjumL5wyKoTXy5yx1ieiKersS1J/glMixak/maFE+p3/H09lKJl2/+ZwQgeM6IZbGtt+4YRaUEP+CUBYFtbgSG+K2jsH6EhPkpIZC4EYKkwAwhJG58lAQ2G13Dbtuml/VbbGk92baCqd4dTRFae2o3HqHYClTCBTOgTCUorT9ckMheXXS8KBZIbaOuMU7oxTPMVdv9BubQDCcuvK5aZuQ2H57RXJmQyn1s44bT/Uj/tQudlzlrJCWJZweX6wobD8dMLqiqTozbej1IdLP8dsfAjLMUvhiEIMheWHExbnnLYfGqDthweI4+rPERtzsAgIy1HLkfdifC+sZJrT/4UjdLQ3lffFQAEfJABhYVecTsDXwtKfnXp9d4S6+/HQlFP/WUBYTl2Z/NTlW2FF42l6eVeEYgk8qpCfrWduVgjLHCe/jPKlsCIDuqz6qD+JG1ZO3+gQltNXyN76fCcs/Z7VC9t6KYqTlb07TXA2CEsQnEfDDIW1/s6pC6ZeWP60V/p/oy1CB7uTuWmHU5QTP84YdRFRX24m8VdWlub337Ku/RV/dY1usxEwFJaXnsPqOBan5j0x+d3A+VtE7FVO/I0AY/tTGu+69ZnwAfnEyAACIDAUAUNheeU5LP2rNs9t7RF/ep3TQc7oR+k0+9GSda36CQo/IAACNhMwFNamOy9ZUHlhqesvCfVnrQ6ctH4pyImv55yvuLWp/VfZ1oYvm14WLSi9joguYZwqiLEKTrzM5rXEdA4iwDj1ElEXIzpKGrWULm15xkHlubYUQ2F54W0NXX1JemlXxNoicXpJo9T9Nze9/Ua2wFjDnIWc2E3E2GesJcdo3xHgPMYZPRNgtLJkacvrvutfUcOGwvLCPazXdveR/i4rUz+cdnPid9c2hddlGx9pqL6JiN/DGJtiKicGgcDpBDhv5ozdV1bX/CLAWCPgeWHpX2h+aaeJD+y4/o1C9p/pA21Ll6yns1478mXji6MF561mxD5nDTNGg8AHCTDOv11a33IP2JgnYCgst9/D+nNHlPYcTwxJhBMdZpnMjYufbX81+32q2RWxAu03RKzKPF6MBAFDAo2huub5hqMw4BQBQ2G5+VNC/SHRtRu7KTPEA+2c8+0Fae2TN/1v68HsshpfHCs47w9E7HLsGxBQToDzp0P1LfqHNvgxIGAoLDffw9LfFvrW3qGeu+KvF8Vp7j89H9Y/0cn6E22oehY31vFvKacEOG8I1bfcm9M5PJDcUFhuPmG90dZHB7vPfrOdE/2uvKDw2kVrtg95vRhrmHMHZ9ojHlhrtOBwAhqjj5Qsbc76qbTDy7elPENhufWrOfot9F9v6Kb0WV7GwDlfV9sUnmtEmH+remSU09uMaJjRWPweBGQJcKIdZXXN02XzeDneUFhufQ5L/7uBv91x1k8H9wwr6J+2aM2BfqOFjTZUP0KM7jAah9+DgCoCnPjNZXUtP1aVz2t5jIV1x9SF00aVu+4Pqb59LE5vnvG9QU6U5JnUnFuffXuLmYWMLK/qYsRGmhmLMSCgiMCLobrmTynK5bk0hsJy6yXhpv0x2nUk/hcLxjm/q7Yp/H0zq9jfMPvKDAvgfoIZWBijjgDnidLS4Dnsrj8ZXgGom9Q9mQyF5dZLwjO/O8iJNh1obJu9jMjUK0ajDdXLidFS9ywlKvUMAZ6ZF6p/q8kz/ShsxFBYbj1hvba7l470vv+udo2nZ97c1LHVLLtIQ9XPGGM3mh2PcSCgigCnzNfK6t5aoSqfl/J4Vliv7uqlo33vCovznyxuCt9kZeEiy6teYsSushKDsSCghADnj4XqW25XkstjSQyF5dZLwpd39tKxyDvCSrP0lC+s7Wi1snbR5VUbidgsKzEYCwJqCPBnQ3UtNWpyeSuLsbBc+inhoLA48TW1jeFFVpctsrx6MyOaaTUO40FAngB/PlTXco18Hu9l8IGw0h+vbex42erSQVhWiWG8OgIQVjaWnhZWZ19qX21TeJzIRoKwRKghRg0BCEtYWG79lFC/JOyMpBtqG9uEvlAKYan5p4csIgQgLGFhufXLz7qwuqKpj92yNiz0OloIS+QfGmLUEICw/CesHT2JgcTu0kVr6P2HsSzsJgjLAiwMVUwAwhIWllsvCX/f2rv+0/+9a47oToKwRMkhTp4AhCUsLLdeEv4x3PfMJ1bvXCi6efoaqrZojM0QjUccCIgTgLB8J6wNeyLf+/ATO/5VdNOc+EbV20VBNl40HnEgIEognUm/Un7venzL4iwADR9rcOsl4faDkburH9vxXdFN0/nvs4+FCgMVovGIAwFRAtF4avP592/AtyxEhOXWS8Kdh/u+POfRnQ+Jbpqj987uLisODBeNRxwIiBLo6U+1jW7YcJFovJfjDE9YbhVW+HD09ksf3f6Y6OIdvnd2pLw4EBKNRxwIiBI4EU0eGPutjWNF470cZygst14S7j4Uu+3yH2z7oejiHaqf3T+8JFAsGo84EBAlcDySPPah/9h4vmi8l+MMheXaE9aR2G2XPgJheXnzerU3CCv7ykJYWdjghOVVHTi/LwgLwrK8SyEsy8gQoIgAhAVhWd5KEJZlZAhQRADCgrAsbyUIyzIyBCgiAGFBWJa3EoRlGRkCFBGAsCAsy1sJwrKMDAGKCEBYEJblrQRhWUaGAEUEICwIy/JWgrAsI0OAIgIQFoRleStBWJaRIUARAQgLwrK8lSAsy8gQoIgAhAVhWd5KEJZlZAhQRADCgrAsbyUIyzIyBCgiAGFBWJa3EoRlGRkCFBGAsCSEteGO6QunjAr9WtFa2JamtTN6+2UPib8P60j9nNiwEq3EtoJdNlF/IkPxFKeBVIYSqQzFk5wSaU7cZX04sdxkim++8vFteOPoWRbH8G0NEJYTt7S9NSXTnA52J+lYX5KOR9LU3S/0l9PsLdrVs/HnFzeGr3F1Czkq3lBYeB9Wjsi7IG1Pf5rCnXHq6EpQOoOzk31LBmFlYw1hZSHj53tYR3qStOtonPT/4icfBCAsYWHhkjAfGzY/c+qC2rQ/Rt39mfwUgFnfJQBhQVgW/zH46aZ770CKNuztpyO9KYuUMDw3BCAsYWHhHlZutqRTsrZ1DtCm/f2UxqHKKUtCRBCWuLBum3bdtL8qW+Og1TRVCh5rGBqT/snfnzqidKgb96lMbShbB0FY4sK6Y+rCaaPKXfccVhh/NSfrP7H+ZIZe3dVHvQM4VtnqIdOTQVjiwsIJy/Q2c8NA/VGF11sjFEtAVs5dLwhLXFg4YTl3X1usTJfVy7v6KJHCM1UW0dk8HMISFxZOWDZv1txMp8vqlV19p75Ogx+nE4CwxIWFE5bTd7dhffpT6s9v66VIHJeBhrAcMQDCEhbW+junLph6YfnTjlhHC0Xgpvv7sJrfjp76eo2KH86pizG+Qf8vMX6MSOvSiB/PZKhL4/x4OsBgRUnQQZ45fnNTx1bJNJ4Mx1dzsiyrV76ac6Q3Sa/tjkhuXv4KZfgv0wH++hfWdrRKJkM4CAgTMBTWpjsvWVB5YanrTlh4DotIf9ZKvxQU+0SQ9xOxn2YYPXjr2radQ+2w6PLZo4Jpqsho2rnEuSa8GxHoagKcsYR+yi4KaF1safPxXDRjKKwW3HTPBXdbcm7cF6PdR+PW5uJ0iDP+aLog89iSNR09Zwvmy2ZXxArYZzln1zHGPmZtAoz2BQHOY0S0hjTWGFra3KiqZ2Nh4aa7Kta25tFfsLduSw+ZfisM572c6FuxBD34pefDZ7Vc/P7ZM5Ja4B5GdD0xCtraECZzLQFO/Dgj9mip1v8Qu2frSZlGDIWFtzXI4M1frKXTFeerUxnta0vWtXZlOVGVxoKBHxOj6/PXEWZ2PQFOA4zxfyuta3lItBcIKws5N7+tQX9lcdPmXuOX7nHeS8Q/v7ipfW22DRR94LLRlCz4DTG6VHSTIQ4EziDweKiu+YsiVAyFhZvuIljzG9N6NE4b9um3EIb44XxrMK19+qb/bT2YbVR/w2XjMiz4RyI2Or8dYXbPEeDUFKpvnme1L0Nh4fUyVpHmf/xvtvYM/cVmTi8NFHbPv33NsazPO/AHpgyLpsqbGbGp+e8IFXiRACf+UFldy5et9GYoLNzDsoIz/2P7BtL03NberIVwzn9V2xT+nFGlkeVVLzFiVxmNw+9BQIYAz/Bbyu5tWW02h6GwcMIyi9IZ4/Q/GvHW3iyXg5x+ub+p7cZlREM+jR5bXn0DJ/ofZ3SEKrxMgBOdDCUTE9myTd1m+jQUFr6aYwajc8b8IdxH+09+8FXHnHhjbWN4vlGl/Ht/UxLrT7UTsVFGY/F7EFBDgP8wVNdym5lchsLCCcsMRueMeXZTN8WSZ7yRgdPBVGF6erYHQU+vPvrN6sWk0UrndIRKfEAgXVoSGMbu+lO/Ua+GwsIJywihc36fSnP69YaznKwZ/9vFa8N/MlNptKFqHTF2rZmxGAMCqggw4p8trWt5yiifobBwwjJC6Jzfn4gk6bc7z/jgj9OKxU1tXzNTJV82vjgWPK+HGCs0Mx5jQEAVAU7087K65huN8hkKCycsI4TO+f3Bkwl6Ixx9ryBOvL28YGDGojUHDI/aelCs4Yq/5oybOok5p2tU4gkCnLeH6lsmG/UCYWUh5MbXy+w/kaA/tL8vrAxP/+OtTR2/MdoEg7+PNVTP54yeMTse40BAGQFOqVB9c4FRPkNh4ZLQCKFzfr/neIL+3PGOsDjnG2ubwpdbqS66fM7tRNqjVmIwFgRUEWBBNrb0628eGCofhOWhE9be44lTf2vwlLAoM7+2sd3Saz0iDVVfZYytULUBkQcErBAIptMzi+5bP+SbViEsDwqLc76vtik8zspm0cdCWFaJYbxKAhDWI9t+KArUjfewBk9YjGfqb2lqX261dwjLKjGMV0lAibDwKaHKJcltrkFhpbTE6CXP7D1sdTYIyyoxjFdJAMLy5wmrZXFjW7XIRoKwRKghRhUBJcJ684uXXHvJ2NJ1qoqyK48f/wjFqU8J2yPfXtwUvkeEM4QlQg0xqggEKTOjqO6tbUPlM7zpvvaGi6qvnn7Om6qKsiuPH/8uoX5J+MeO3o/XNna8LMIZwhKhhhhVBJScsJ6YO2Hm9XMqNhcEDN2mqm4lefwqrDfaOkNL1h0yeN3o2RFDWEq2HpIIElAmrE9OP3fzyDJ3/ZEUP14S7juZHLj4uxtLBPcLHmsQBYc4JQSUXBKurpk4Y+ro0JaZY4T/HShpxmoSP56wDnUnOitXbLrAKqvB8cfuu3xZaVHw30XjEQcCMgSUnbBGlBZu/tSM4TK12B7rR2Ed7k4cnLxi0xhR2Hv+bdYPzhtWaOpFaqJzIA4EshFQJixNC26+etowGhFyz2WhHy8Jj/Qm9016YKPlJ9wHN1Db3bN+NvqcQsNXfOCfHAjkgkCQUpcW1W3YMlRuwzvp+iVhhgW2jAgF6Opp5bmoMyc5/XjCOtqT3DPxOxsniALdcdfMxnEji2tE4xEHAjIEDhzrv2bKg1uflxKW/imhfsLSk1SPL6WJ5xXJ1GRbrB9PWEd7k3smPiAjrEvXjRtZhLeN2rZLMdHpBNqOxhbMenhb1j/qq481PGGdLiz9yYarLnbHpaEfT1hHepJ7J31n43jRfwbbvjJz3YSKYghLFCDipAi0HexdOOuxXUO+j82SsPRqCoOMPjW9nEoLNanich0MYVknDGFZZ4YIdQRyIiy9vNJCRh+9aBgNLwmoq1ZxJgjLOlAIyzozRKgjoERYK+dPuoRx7QMv1QpqRH83uYxGDTd8q6m6jixk8qWwupN7J63AJaGFbYKhDiLQdqhvwawf7JS7h7Vq7tjRpBUfPGtfjGjM8AKaOqqIKsqcJS5fCgv3sBz0zw+lWCWg5ISlT7qqZnKGGBvyfldFWZA+NKKQPjSygIr141eef/ApofUF2HEXPiW0Tg0Rqggo+ZTwXWHtI8bGmi1sZFng1E35oqD+P0ZDq85sVmvjoonkdf/wxK6nrUW9P/pI/ZzYsBLNVd9HwmMNoquNOCcQaD3WP/+yB7cO+XcIDD8l1BtZOW/yTxmxf3JCU6ZrYOkPL17b8X+mx58x0I2vSMZjDaKrjTgnEFB2SfhkzeTrOGNrnNCU6RogLNOoBgfiU0LLyBCgkIAyYf3k6gtCyZJhXcRYscL6cpvKj8LCp4S53VPInlMCSj4lHKxwZc3kbzDG7stpxSqT+1FY+JRQ5Q5CLpsJKDth6XU/df30wt5EvI0x9iGb+xCbDsKyzA2XhJaRIUAhAaXC0utaOW/iVYwCLymsMXep/CgsXBLmbj8hc84JKL0kHKx21bzKzxPR6pxXLzuBH4WFS0LZXYP4PBJQfsI67X7WfYyxb+SxN+OpISxjRmeMwCWhZWQIUEggJyes96Q1b/I/E7FVjMhZ38kZLBDCsryVICzLyBCgkEDOTliDNa6umfDhNAs+zoguVli3mlQQlmWOEJZlZAhQSCCnJ6zT63xibuUnmEZ3M6JPKKxfLpUfhYWb7nJ7BtF5JWCbsAa7fPwzF1UEWXo+Z2wBEenfPaxgjAn/2SkpehCWZXw4YVlGhgCFBGwXlsLa854K3yXM+xKgAJ8RyPk9LC/zhLC8vLrozYkEICyJVYGwJOAhFAQECEBYAtAGQyAsCXgIBQEBAhCWADQIC3/mS2LbIFSCAIQlAQ8nLAl4CAUBAQIQlgA0nLBwwpLYNgiVIABhScDDCUsCHkJBQIAAhCUADScsnLAktg1CJQhAWBLwcMKSgIdQEBAgAGEJQMMJCycsiW2DUAkCEJYEPJywJOAhFAQECEBYAtBwwsIJS2LbIFSCAIQlAQ8nLAl4CAUBAQIQlgA0nLBwwpLYNgiVIABhScDDCUsCHkJBQIAAhCUADScsnLAktg1CJQhAWBLwcMKSgIdQEBAgAGEJQMMJCycsiW2DUAkCEJYEPJywJOAhFAQECEBYAtBwwsIJS2LbIFSCAIQlAQ8nLAl4CAUBAQIQlgA0nLBwwpLYNgiVIABhScDDCUsCHkJBQIAAhCUADScsnLAktg1CJQhAWBLwcMKSgIdQEBAgAGEJQMMJCycsiW2DUAkCEJYEPJywJOAhFAQECEBYAtBwwsIJS2LbIFSCAIQlAQ8nLAl4CAUBAQIQlgC0wZDD9bNj5SWBEokUtoce7U3umfjAxgmiE++469J140YWXSsajzgQkCHQdjS2YNbD29YOlYPJTODl2L33XNZXUVZQ5qYej/Qk9076zsbxojVv+8rMdRMqcEkoyg9xcgRwwpLgt+tfZ50YO6LwXIkUtodCWLYjx4QKCUBYEjA3fWnmkcoLii+QSGF7KC4JbUeOCRUSwCWhBMwXPz+1/crK8okSKWwPxQnLduSYUCEBnLAkYK6qqdx83exzZgYD7rnNB2FJLDhC804AwpJYgpU1lZv/ZlJo5viRhRJZ7A3FJaG9vDGbWgK4JJTgqQtrWLE285oZ5aQxd5yycMKSWHCE5p0ATlgSS6ALizGaOWtMMU0d5Y7HsSAsiQVHaN4JQFgSSzAorAKN6OPTyml4SUAimz2huCS0hzNmyQ0BXBJKcB0Ulp6ipIDRp6aXU5FuLwf/4ITl4MVBaYYEcMIyRJR9wOnC0keNCAXoYxeVUWHQudKSFRa+miOxYRAqTQAnLAmEZwpLTxUq0ujvLyqjsmJnXh7KCgtfzZHYMAiVJoATlgTClfMq32RE1WemKAoymjW2hCZUFElkz00o7mHlhiuy2kOg9Vj//Mse3No41Gzu+LzeHl5/McuqmslNxNjcbFPrp62pFxbR+BFFVBB0BkYIKw8bBVMqI4BLQgmUK2sqf8QYLTGTYtTwII0bUUjDSwNUGGBUFNQoH0/IQ1hmVgtjnEoAwpJYmVXzJt1JpD0skcL2UM75z2ubwjeKTox7WKLkEKeCQNuhvgWzfrAT78MSgbn6mvEXZgoLDovE5jHmF4sb224QnR/CEiWHOBUEcNNdkuKqeZXNRFQlmcbOcAjLTtqYSykBCEsS58p5k/+ZEfuJZBo7wyEsO2ljLqUEICxJnJyIPVlTuYMYTZVMZVc4hGUXacyjnACEpQDpEzUTr9FY4DkFqXKeAjfdc44YE+SQAG66K4K7qqbyIWL0JUXpcpkGJ6xc0kXunBLACUsR3mVE2th5la8T0ZWKUuYqDYSVK7LIm3MCEJZCxKvnjT8nQwXrnCwtXBIqXHCksp0ALgkVI3/qegr0JSY/QYzdrDi1qnQ4YakiiTy2E8AJK0fIn6iZ9FmNsXoidkmOphBKixOWEDYEOYQATlg5Xogn5lZ+gjH+ecaY8NPlikvECUsxUKSzjwCEZRPrxz8zujTISueTRpU2TZllGrZ1cWPb06I14Ks5ouQQp4IAhKWCoo9yQFg+WmwHtop7WA5cFCeXBGE5eXW8XxuE5f01VtohhKUUJ5JZJABhWQTm9+EQlt93QH77h7Dyy991s0NYrlsyTxUMYXlqOXPfDISVe8aYITsBCAu7wxIBCMsSLgxWTADCUgzU6+kgLK+vsLP7g7CcvT6Oqw7CctyS+KogCMtXyy3fLIQlzxAZxAlAWOLsfBkJYfly2R3TNITlmKVwRyEQljvWyatVQlheXdkc9QVh5Qgs0poiAGGZwoRBgwQgLOyFfBKAsPJJ34VzQ1guXDQPlQxheWgx7WgFwrKDMubIRgDCwt6wRADCsoQLgxUTgLAUA/V6OgjL6yvs7P4gLGevj+Oqg7ActyS+KgjC8tVyyzcLYckzRAZxAhCWODtfRkJYvlx2xzQNYTlmKdxRCITljnXyapUQlldXNkd9QVg5Aou0pghAWKYwYdAgAQgLeyGfBCCsfNJ34dwQlgsXzUMlQ1geWkw7WoGw7KCMObIRgLCwNywRgLAs4cJgxQQgLMVAvZ4OwvL6Cju7PwjL2evjuOogLMctia8KgrB8tdzyzUJY8gyRQZwAhCXOzpeRW788Y+3E80rm+bJ5NJ13AtsO9F17xQ93PjdUISzvVaIAxxBovn36j6ePDt3kmIJQiK8IvLClq3rhrzpaICxfLbt4s6/UTnv4iglld4pnQCQIiBFIpDLUuOHEzJubOrZCWGIMfRf1q0WV91576bn3+65xNJx3Ap19KXptZzeElfeVcFEBK2smffWqqeUrzi8vcFHVKNULBDbtj1Hr4RiE5YXFtKsHXVgXjypZMWtsqV1TYh4QOEVg3eYe6o8nISzsB/MEdGGVFgZW1Mw6x3wQRoKAJIGjvUl6dXeENJ6GsCRZ+ipcFxZj2orpo4poxhicsny1+HlqlnNOL2zvo57+NISVpzVw7bSDwgpoRNdcUk6hooBre0Hh7psEFMIAAAOTSURBVCDQejROG/bFThWLE5Y71swxVQ4KSy+ovFijq6eVUzCAR/Ucs0AeK6QrkqJXdvVRhr/TGITlsQXOdTunC0uf64LyIH30ojLSGKSVa/Z+y983kKbf7uijZPpdW0FYftsC8v2eKSw944XlQbpychlOWvJ4keFdAiejKXqtNULx1PuywgkL28MygbMJS08yvCRw6qRVWqhZzokAEDidwIGTCfpje/S9y8DTf4dLQuwVSwSenDfpC5y0x88WVKARTTq/iKacX0wlRRCXJbAYTPqjC7uODNDhnlRWGlxLja995u29Q+HCzQlspvcIPDm/8lrOaZ0RknEjCmjsuYU0ZkSh0VD83scE+uMZ2nMiQXuPJ6i7Pz00Cc75sMJwwaI1NORACMvHG+rM1lfOnXwZ09gGs0iCAaKKUJCKCzQqDDIq1D9RxI4yi89z4zIZTok0p3iSUzSRoRNRA0mdToDzI4ubwqOMoGB7GRHy0e8fn00FgTGTuxljeGrUR+vuiFY5f3ZxU7jGqBYIy4iQz36/qqbyGWI032dto908E2CcbrmlqW21URkQlhEhn/1+5fxJNzGu/dhnbaPdfBLgnPOBgYraFw+cMCoDwjIi5LPfP3X9mJLeZEk7IzK8n+AzNGg3RwQ48SdrG8OLzaSHsMxQ8tmYlXMnfY5p2i981jbazQcBTn1BLTbhprUHj5uZHsIyQ8mHY1bOq3yJEV3lw9bRso0EOKcv1ja1nfXZv7OVAWHZuDhummrV3CnDSEuvJ2KVbqobtbqKwH8tbmxbYqViCMsKLZ+NXT1v/Pg0D/6ZMXaBz1pHuzkmwIk31jaGLX8aDWHleGHcnv7JmkljObEXiLFpbu8F9TuEAOer9zeFa5cRZaxWBGFZJebD8acuD1n6Z8TYXB+2j5ZVEeB8gDN+d21j+6OiKSEsUXI+jNO/ukMa3UNECxkxfAPah3tArGV+jHN6tCSVeOTG5/adFMvxThSEJUPPp7Grrxl/YaYwcD2Rtog4/ztieMOfT7dC1rY58R7GqYlpbE1yX9uLS9ZTUgUjCEsFRZ/nWDV37GiNFYxM88C5XOM4efl0PwQ4T3CeOc7jyWNmnloXwQRhiVBDDAiAQF4IQFh5wY5JQQAERAhAWCLUEAMCIJAXAhBWXrBjUhAAARECEJYINcSAAAjkhQCElRfsmBQEQECEAIQlQg0xIAACeSEAYeUFOyYFARAQIfD/jgAUO3et1dwAAAAASUVORK5CYII=;" vertex="1" parent="1">
          <mxGeometry x="170" y="680" width="100" height="100" as="geometry" />
        </mxCell>
        <mxCell id="COWz8Rfewct7J5CobRBN-11" value="" style="shape=image;imageAspect=0;aspect=fixed;verticalLabelPosition=bottom;verticalAlign=top;image=https://upload.wikimedia.org/wikipedia/commons/1/10/AWS_Simple_Icons_Database_Amazon_RDS_MySQL_DB_Instance.svg;" vertex="1" parent="1">
          <mxGeometry x="555" y="495" width="90" height="90" as="geometry" />
        </mxCell>
        <mxCell id="COWz8Rfewct7J5CobRBN-12" value="" style="shape=image;verticalLabelPosition=bottom;labelBackgroundColor=default;verticalAlign=top;aspect=fixed;imageAspect=0;image=data:image/png,iVBORw0KGgoAAAANSUhEUgAAAZAAAAGQCAYAAACAvzbMAAAsjklEQVR4nO3dT6xVZZrv8eVIEpEaieb6Z3APpopbRG9KsXNx0LfAgmZ0z6EGXckFzgwFKdKJYsAeIBMxYCedQkGYHcSkHDRsJ5cG4XjvADoK3lwNRitg38TGDlgjERIdVT+/dVi6OZyz17vWet+13rXW95OcOhut7lI4e3/X+77P2vuuBACAEggIAKAUAgIAKIWAAABKuSMgv9n783/8S3LX4/YQAIDUXclfPnn/pT/9nT380R0BeWbvz/93kiR/bV8AANxy1/85/dIX/z0Zcpd93UYB+Uvyl7++686/BQDorQIBsYf2N+/42wCAXioYECEiAACrQfGACBEBgL4rGRAhIgDQZxUCIkQEAPqqYkCEiABAH3kIiBARAOgbTwERIgIAfeIxIEJEAKAvPAdEiAgA9EGAgAgRAYCuCxQQISIA0GUBAyJEBAC6KnBAhIgAQBfVEBAhIgDQNTUFRIgIAHRJjQERIgIAXVFzQISIAEAXNBAQISIA0HYNBUSICAC0WYMBESICAG3VcECEiABAG0UQECEiANA2kQREiAgAtElEAREiAgBtEVlAhIgAQBtEGBAhIgAQu0gDIkQEAGIWcUCEiABArCIPiBARAIhRCwIiRAQAYtOSgAgRAYCYtCggQkQAIBYtC4gQEQCIQQsDIkQEAJrW0oAIEQGAJrU4IEJEAKApLQ+IEBEAaEIHAiJEBADq1pGACBEBgDp1KCBCRACgLh0LiBARAKhDBwMiRAQAQutoQISIAEBIHQ6IEBEACKXjAREiAgAh9CAgQkQAwLeeBESICAD41KOACBEBAF96FhAhIgDgQw8DIkQEAKrqaUCEiABAFT0OiBARACir5wERIgIAZRCQFBEBgKIIyI+ICAAUQUBuQ0TiNrZ4aXLP3ffaoyRZaN/162GPP/yU/eedHn9k7r/uw9Vvv06u2ddsX37zeXLjh+/s0Qz9d65e/+m/9+m/fWT/CbQZAbkDEanXAz97MFm86MHbgnC//bUH7K9JyBf/WFy22Nz8fiY2n9wKSxacmxYhxQiIDwGZExHxJwuEgqAwjC3+hcVi0cz3BYvsvwFXn3w1E5csMvpOYNAcAjIvIlLMY7Z9NBwJfV9ya0WB8LKtNMVEK5cvv/ki+Vf7uvHDdfu7QAgEZCQicidtM92/6D+l33XmoFBolYE43fj+ehoThUXfFRfOX+AHAcnV54goEmP3/cK+68uC0YPziL7QuYuCkoWFqKA4AuKkDxHRucRjDy+fCYWtLIhF/ygqn9o5SxqUKx+l22LA/AiIs65FRNtOjz30VPKYhULB0K+BYdr+0kG9vj79t/MWFg7rMYyAFNLmiGiFsWLJKoKB0oaD8i+Xz7BC6T0CUlibIqLJKMVixaOrej8RpW0Z3xNJ+r3tMwVEMTl36XS6QvH9+4vYEZBSYo3I8CrjafvehfssdJ+D9uZFN9sNb6N8+WeLgl0VD9MLWtO0urt/0e0rvOHYaHJNX6I/Mw0pdMFZC4l+/1md9AUBKS2WiOgFSNHQKuPpR5+xv9IeerERHdzKcBCyv9cnGmDQHfmSBUd/7Z4F96YryOxtXNpA0T918Tgx6TQCUklTEWlLNHRjm+470PbRTQuDoqD3hxpeRaCYbHWjsCg2Wm1KFpwYEZOuIiCV1RkRRWP1sonooqFAKBYKg1YRepHQY9Qri4tioi0yfelxTLKYvH9xYBcTM6tNtBUB8SJkRHSlOfHExmjONLSKUDAUCEVDv0bcFBb9HOmmUK1YsrecaZrOTBSTc7YyQRsREG98RiTbopp4cmO6990UxSGLRfYd3TA7Kvo5a+qMRStWheT9z46nj9EWBMSrqhHRk3riVxvTbaq6VxuadtK7vSoSCoe+0C8Kira8NBWm702sUk4qJPbFz18bEBDvykRET9bfWDTW2FddsmDoiaovhQMYpgua7F4ifdUZFJ2VHL9wJDllqxLEioAE4RoRPSk3rNha2/tOaRtKN30pGPoCilBQVix5Jv251QRgHbSl9fbZNwhJlAhIMKMioidgHeHIVhlnL5+2cJxh6gVeaRpQKxQNeIRenej+oCPn3kiOf3zEfoU4EJCgZkekjnAoGppu0WSLvgN10PmJQrLCoqIzlFBYkcSEgASniGjp/9yvd6ZXbCEQDcREP+/a6tIwSKiYKCSvn9jJVmyjCEhQGsfViuO3T07ar/zT6CPRQMy0MlFItDoJsc2lLdrX/3lnGhTUjYAEo9XGZlt1PPCzh+xX/ugg/NjHU5xpoHX0nND9TQqKb0dsW+ttOyNBnQiId1p1bF+7J32y+KItKs3HH7dwcKWFttNzRBFZ98RGr6sSPTfY1qoTAfFK0dj+N3u83QSotwrR5AmrDXSVBkvWPTFph+/+xoJZjdSFgHijVceaZevsUXW6gtKkib4DfaCDd50XrraViQ+6EXH3YGu6KkEoBKQy/eC/Mv5m+l5CVelQXFdO/NCjr7S9pa2tdU9OJlXfm0v3jrz+zy8zZBIMAalkzKLxD397pPKWFeEAbuczJPvsXETPMfhGQErTdpWmrKrEQ1tUOvQjHMDcfIVEQyh6rsEnAlKK4qEzj7I0intg+lULyIf2K/2m3/HbDmCItoqrnpEQEd8ISGFV4qGPcz1o4Th58Zj96nZEBMinqa3NK1+27eNyd7gTEZ8ISCFjFc48tAerVceocVwiArjR6O/Gp7cmZba1Dk7vSW/GRVUExJn2Yo9uOlM4HrqXY69d8WTbVXmICOBG21ov2m6AViVFvfjHjfacZEy+GgLibPf4m+mNgkWcvXQm2Xdix8hVx1yICOBuo52NbLDVSBEa8d1w+JnCz00MIyBOFA4FpAhtV1VZJhMRwF26vfy7I0mRLS1tK2vEF2URECfaunJ9U0QdlGvV4ePmJSICuNM28+sWkSIH7BsOr2KMvjQCkqvI6kPxeOGPGxKfny9ORAB3RSPCKqQKApJr9/gBi4jbG709OzXuNR4ZIgK4KxIRnYVM7C9+CA8hILkGvz/vNHlV9cwjDxEB3OlM5K1Jt7cvYSKrLAIykq5kBtvO26PRNKr7Pw+vtEdhERHAnW74Xe1w5zr3hZRFQEZ6/OG/Sic78uiHTyuQOhARwI3uD9FWVh59dII+dwdFEZBcp7f/yf5zNH2AzZFz++1RPYgIkM81IDpE12E6iiIguVwCoh++vSd22KP6EBFgNE1QvjKev7LgDKQsApLrH373dnolM4omOdYfXpXUfVcrEQHm9/rfHkkef2T0c1e4F6QsApLLJSBS9zZWhogAd9Jz1mX7Sn6zL3/cF3MhILk2rvh9+q6febQKeeHdjUHuA8lDRIDbua4+9Nk8z02N2yMUR0By6W2jt6x82R7l0wf5az+17q0sISLADL1D7xqH8V3R2YeesyiDgORyHeXNfPLVh4lWIk0gIug73feh+z9cMcJbBQHJNbZ4aXJocmCP3OmNFDUayEoEqM/EExuddwsy3ERYBQFx4jLKO5u2s14ZPN/IdAcRQd8U2bYapu0rbWOhDALi5J1N08n9P3vQHhWjg/Vdg632A+r2aYQ+ERH0gd5uaN/vppIltlNQBiO8VRAQJ66jvPP5pwtTydu2z1r3lhYRQZdpy0qfRujyZqfzYYS3CgLiRPuqmsaq4uq3V5KDH+xJz0fqRETQNelnof/NHqcx3VEY4a2KgDhxvRfEhQJy8INXLSj1LZuJCLpA21XpqsPTc1FnHzoDQVkExIneU8f1Uwldnbx4LN3WqiskRARtlYVjnX1V2a6ajRHeqgiIk6L3ghRRZ0iICNokVDgyjPBWRUCclRnlLUIhOXVxYMvqD+1X4RARxE5nHBO/2pjeFBgiHBltX2kbC2UREGeDbRfsiuheexSWDtv1xoznLp8JNrVFRBAjTTpqxaEt4zowwlsVAXFWdZS3KN1DcvLi8eTUZ8eTEG/QSEQQA602/tuSVbZNNZk+rhMjvFUREGcvrX0tXVLn0ZLYd2i0KtGHVikmPq+YiAiaoLONFRaNFY+u8r7acH3+McLrAwFx5jrKq/fA0ou87h0ZW+z/CkdvkXLKzku0xaX/naqICOqiaOgizHc05OYP36VbvwrIW5P5H0+r/57OQFAFAXG2Ztm6xOVdPvVDnH2wlKKz7slJu+IKc3aimJy7dDo5azGpss1FRBCCtqQee+ipICuNYecunUkv3HRmqNWHywdJHfv4SHJw+lV7hPIIiDPXUd6z9sO8a7DFHs3Qk0gh0ZVXSNrm0lWVblTU6qQoIgIfxhYvTVcaikbZ96dypZ933cuh7xm9tckGh50C/d9xD0hVBMSZ9m0H287bo9H0w/zCHzfYo9vVFZKMPpdE/yzZlwsigqIUjMceXm4XWE+lXyHHbjM6v9DqYa6f6822daz7RvJo+2qu/3sUQUAKcb0X5Jl9P7f/nJtCsvnXf29L+lX2q/q4BoWIYJQmgpG5Zmd+WjVooGQ+2r7SP1ee56YmLETlt30hBKQQ11HeUQHJKCRakaywveFQZySjKCiX7UpOT6Iv/zzzPUNEIFp1KxaKhn7uNRRSZzAyOuPQHeOjLnwyb286kz638jDC6wMBKcQ1IC+ky+MP7VE+PUlX27bWb5+YLPWZI77ovhNFRE9SHc7//z//yc5Vqk95oR30c/ifLRD6+VYoFA2XF+JQNFWl87yib/Pz/vYv7D9H00pm/eF6dwC6iYAUohWDyyjvrsHz6Q9/UZpUeXrJM2lQYvHJVx+lYbl6/Wv7/kXyr/alaRe012MWiQcWPZhesCgY+t5kLIbpZ0yrDa06iv6cKXqM8NaJgBSiu2V1f0ee4VHeMnQ1qIhodFhXg7HRFaGu4vRE1JNcT3pdMSo0iIN+hrSiyEKhnyN9Dz0ZVYZ+ljSKftzCoZ+tshRDnYHkYYTXFwJSiOsorw759p7YYY+q01WVPutZKxO9AMROLwB6QVBMblhUFBn59NZ3+KOfjXvs/ExxUDD0AnrPgnujjMRsuuDQKl0j5/ruAyO8dSMghWiZf3TTtD0aTS+ac43yVqX//RUWklhXJi6ywGQrF9Hvl3xj22T6+32nGGj1IPpz1q918aDVhFT9JL6m6M9dKw1dTPiKxjBGeOtGQApzGeXVTX2hD+mymGhVVPdIcB1mDvVnAiPDT/hsdTMstvjoRT+LwDCtEjJZHCQNhH11jf4M9WenVbn+3ELS9tXw7+98GOH1hYAU9o6tQPRkz+MyyuuTDuD15FFQ9MKEGRoCCE2/302Mt8Yo25pSNMochFfBCG/dCEhhrqO8z06NN3aVoyeRQqJ/Tn25BA8oQ8FQpBUMfTX1My+M8NaNgBSmKSxNY+Upci9IaNom0b65YqKw6IoZKEMvwAqFvrQ91WQwhmmggBHeuhGQwlzvBak6yhtaFhJN7CgsrFIwm1YXuqn001srDAWjzi2pIvQzrDOQPIzw+kRACtMLr8sob+wBmU2rFF3F6YmoLTA9VmDQD1pZ6GZRxSJ7a5uYhhLyMMLbBAJSmGtAdMUWYpS3bgpJGpT7LC62DTYTGsLSVtmqQqsJRUOh0M9q2zHC2wQCUorLKK+epF3+yEyFRTHRimXhAt3MtjTdDtONbWieXiRvfj/z7gBaUWgsWn+tq7R9pZ/FPIzw+kRAShlsu2AvnvkvlHWP8jYtexdfxUS/P8PfszukCYwfWQy05STZr7PvfcMIbxMISCmuo7zrD69s1T6yD1lERtHKJdsGU1wUmXsW/PTXxOX3t2u0rZQdUmt7SV+SReGanVH07efJFSO8TSAgpby09rX0zQ7zxDTKWyeXiBSRRUZ0w97YfT+FRvT3tcKZrc4IDb/4D8tWCBkdVOuFLJPFAeXpz58R3iYQkFJcR3kPTL+a6K2p+8h3ROqgF6IsVHqxQTvoQkFnIHkY4fWNgJSitw3ZPf6mPRqtbaO8vrUxImgfRnibQkBKcR3lPXvpTLJrsMUe9RcRQWiM8DaFgJSiQ+DBtvP2aDT9sHbhXpCqiAhC0vaVtrHyMMLrGwEpzeVeEOnbKO98iAhCYYS3KQSkNNdR3vE/LJ9zOqePiAhCYIS3KQSktN3jB+wwPf8Hsq+jvPMhIvBJk3OM8DaFgJTmOsq7a/C8Hab7//jONiMi8EW7ADoDycMIbwgEpDR9Jog+GyRP30d550NE4IOeh5tX7rRHozHCGwIBKc11lFefBb33xA57hNmICKpyvQdE21faxoJPBKQ0TX0c3TRtj0bTDy2jvPMjIqhC21faxspDQEIgIJW4jPLqbbTH9y+3R5gPEUFZB+0AXe/ynIcR3hAISCWHJt9Lht9Bdj7cC5KPiKAMlxFefYiWxunhGwGpxPVekGenxrkD1gERQRHaRtZNhHm0daUtLPhGQCrRFJamQPJwL4g7IgJXunjTGUgeDbLsO7HTHsEvAlKJ670gjPIWQ0TgQhdvjPA2iYBU4jrKq88E0WeDwB0RQR7XEd5XBlu5mTcIAlKJ3kbh0OTAHo2mPVhGeYurKyIrlqxK/yxFHyh1ww5d9d5Jn175iI+QjZi2r7SNlUfnH3oOwjcCUpnLKO9lO0B/zg7SUVyoiOgAdr1dwa7J+Whi/dm9Nb2HF6AIMcLbNAJS2TubppP77cUoD6O85fmOyOZf70zWPTlpj9x98tVH6VYI76wcD0Z4m0ZAKnMd5V1/eCXbIRX4iIg+COzFta8m+kjiMnRT6IvvTjKSHQGtIBnhbRoBqeylta8lq3O2QYRR3uqqRuSV8TdKxyOjiGw+MsHFQMN00aYzkDyM8IZEQCpzHeXVFJamsVBN2Yi4Tuy40LnI5qn8iwaEwwhvDAhIZbqi3T3+pj0ajXtB/CkaEdftjiIO2sE6FwTNcb0g0LkVI7yhEJDKXO8F0V4so7z+FInI9rV7nLYZi9BW1sT+/LMvhKHtK21j5dH5h557CIGAeOEyyqsfYgLil2tEjv/+o2ThgkX2yC+ubpvDCG8MCIgXLgERRnn9y4uIrlJ1tRoCB7TNYYQ3BgTEC9dRXv0wcx+Bf6Mi4rpXXoZWldoiQb1cz7T48wmNgHixe/yAHaavskejMcobznwRCRkQjfJuOJz/5w6/dLHmsqpkhRgaAfHCdZRXP8wnLx6zRwhhroiEDIjs+187k1OfHbdHqAsjvLEgIF6sWbYunfTJwyhveLMjEjogopWIrnaPf3yELcoauP6ZMuQQGgHxwnWUVy8ye0/ssEcIaTgiuk9Hd6DXQaO9xywihCQsbV9pGyuPzj90DoJQCIgXOtQ7umnaHo2mH2ZGeeuRRUTvf3V8W/0vIiftYuGobZ9odQK/GOGNBQHxxmWUV1eo4/sZK6xLFhG9U8AKhyGHEBSS9+1LFw/wgxHeWBAQbw5NvpeMLc6/4uFekHopItru0LZHk/R28G/bioSQVKPVPiO8sSAg3rjeC8Iob/0UkSZXIcO0paXpICa3ytFzzOViQOeNmnpESATEG9dRXgLSjHvv/ln6wuOySqyDQqIXOQ7ci2GENyYExBvXgDDK25wli/+LrUTecPoEybroXCwNyf89kkYFozHCGxMC4o3rKK/eAlyfDYJmlF2JXLMX94Mf7EnG7vtF+nG499x9r/1Vv3TgrhUJn3g4P/3ZaRsrj84/dA6CkAiIN2OLl9pB+sAejaYfakZ5m6UzkdXLJtKr2bzViKZ5jl2YsvD/tNWk0eB1T2wMFhIduOtC49zlM/YrDHMNCCO8dSAgXrmM8l799kqynvdPapwiInoxWvHoM3YBMPOCozgoFFpxKPbnLp1Jfz0X/Xd1MO8SojK0paW9fIVkvn+GvmGENyYExKt3Nk07vZAwyhuHLCI+rHZc0ZShcxKtgN7/7Hgalb5SsF1uClX4tYWF0AiIV66jvM9OjbPPHQmfERH9+euQV99D0DlJX29M1O+ptrDyaCiBEd46EBCvtqx82fbGJ+3RaIzyxsV3REQvdlqV6CsEnZPohbJP95Po99LlTUu17ccIbx0IiFeuo7yawtIhKeIRIiKiO6c32NaW3tQxxIG7trQUEk1vdf2cRFuEWt3l0SrtdVYgNSAgXulFQnc85+FekDiFioho/z7k5JbohVMh6er2qJ5bGlpwobAqIn3c6qsPAfHK9V4Q/VAzyhunkBHJaCtGV9MhDtylq9tbOv/Q1mARupnwrQ/2pEGBbwTEO5dR3st2hficHaQjTnVERLRinbBVSdEXRVd60VRItCrpwvaWywjvXLIpNr2ZJXwiIN4Ntl2w7Yr8LQpGeeNWV0RkbPHSdHtLK5NQtL3V5uktbQG6jPCOogu3t6b3tPb3ID4ExDvXUV7d6NSFq8IuqzMiogP31b+cCHpOohfR4xeOtO7mRD2ntIXlg95Z4O1zb7bq3z9OBMS73eMHbGsi/6CPUd52qDsioqttHRaHPCfRtk66vdWSN3HU6sxlhNeV/p05ZK+KgHjnOsqrG51OXjxmjxC7JiKSCX1OIm04dFdMXUZ4i2I1UgUB8W7NsnVOV0qM8rZLkxGRsRrOSXRVrpDE+JYpRUZ4i9K23usnXu7s+HM4BMQ711Hes5fOJLsGW+wR2qLpiIi2t7KQhNreEo2/KiY6K4mBzj9CrsK0pae71zWxBlcExDs9wQfbztuj0bT3yr0g7RNDRDKKiL5CvrBqJaKQNL0qKTvCW5Sm1TSpxZaWCwIShMu9ILriGd+/3B6hbWKKiNSxvSVNnZXoosxlhFcXZVpBbP71zkqrM21pbf/jJBHJRUCCODT5nj2pZz5fYhTuBWmv2CIieqHNQlLlBTSPLn5mQjKo5dxAKyxtYeXRZ7fsGjz/4+9DlUN3/Tu++O5kLf9+7UVAgnC9F4RR3naLMSIZRURfLj+HVehqXTF5/+Ig2BW7/j1cBlNmvwvvmK3M9H/ncjE3FyKSh4AE4TrKq6slHVaivWKOiOjmxJDvBjxMP8uKie+Dd9cRXo3G639/Ntf/+7kQkVEISBD6TBB9NkgeRnm7IfaIiLZ1NAarF9OQ21uiF129kPva4nId4dWnEOocZC5jFVYj+vchInMhIEG4jvLqM0H02SBovzZEJKNtLW0L6Ss0TW7p5/xfbFWix2Xo/EP/zHkm/vBU7jbaZruw0/lIUURkLgQkCG0bHN00bY9G09USo7zd0aaIiFYlioheUEOvSkTnJWXeh8t1hPc3+9xWF4rR7ok3k6JbevrnZzprGAEJxmWU9+q3V5L1h/OX5miPtkUkoxdVxURfddB5iaam8mKiyLmO8GoLy5Uu8l6xrbGiW1q6T0TvoQUhIMG8YysQl6s6Rnm7p60REb1gKyJ1rUpkVEwUNm1h5dH/vYZSitC/6+aVO9N/3yIUKgULBCQY11HeZ6fG2VftoDZHJKOfX7241jHBldHNimcvn/7xzET/+zr8zjN7hLcI/f/X/44r/TO++K77aqe7CEgwmsLSNFYe7gXpri5ERHSlriko/TwX3fKpQmcON7//Lnn8kfwLsflGeF0pIAqJq1cGW9OVU78RkGBc7wVhlLfbuhKRjM4OJiwka+wFt65ViQsf20oKiELiQrFStPqNgATjOspLQLqvaxHJaGtrxZJVzi+6IbmM8LpwvedEY70T+/NXRt1GQIJxDYiumhjl7b6uRkSa2uIapnMJPZf09al9laV/l6PPnklcVle+otVeBCQol1Fe7fM+Zwfp6L4uRySjLS59rrtWJXVNcc1Fz6svv/nCvma+f3P96/RQ3oXrKsTHtlm7EZCgBtsu2BVN/pUMo7z90YeIZMYWL01D8rRtczUZk2EKiw7mr1pQrs0KiqbO9M+pCLp4bmrC4tTnCUoCEpTrKO/6wyudr47Qfn2KSCY7L9F3l+2hNnC98727CEhQL619Lb0Cy8Mob//0MSIZRaTtMdG2GFvPBCQo11FejQOevHjMHqFP+hyRjCKimGilru2jttBzVqO8/UZAglqzbF2i2fI8jPL2FxH5yditMxPFpKlpLhc6O9H5R78nsISABOU6yns2fR+fLfYIfURE7qSD7Lc3nbFH8WH6KkNAgtJM+WDbeXs0mn4YuRek34jI7fTccXkX3rqxdTWMgATnci+IMMoLIvITbWO5vAtvXW7+8F0aD97/ahgBCc51lJeAQIjIDB2uvzKe/+66ehfeYx8fSd9wcey+XySP2XeX55srhePYhan0f4Mzj9kISHCuAWGUFxkiognGrckGhwnGg9N77MV9yh7dTmcoOpRXVPT9ngX3Jkv03WFsWCO6ukFQW8v6nBHCMR8CEpzrKK8+DIflMTJ9j4imF1cvy7+HqsyBtuJy/6I7R4aL/v8BAQlObzCnzwbJwygvZutzRHT+4bJy33B4Fe/i0BgCEpzrKK8mO/ae2GGPgJ/0NSLHf/9RsnDBIns0Gm8n0iQCEpyWy0c3Tduj0bR8ZpQXc+ljRN7f/oX952g6q+DtRJpEQGrhMsp79dsryXpbjgNz6VNEtHWlLaw8uujSGQiaQkBqcWjyvcTlrRkY5cUofYlIkRHeI+fy/3sIhYDUwnWU91lbjmt8EJhPHyJSdYQXdSEgtdAUlqax8nAvCFx0PSIhR3jhEwGpheu9IIzywlWXI6LzD5cVOyO8TSMgtXAd5dVy/MD0q/YIyNfViDDC2xYEpBZji5faQfrAHo2m5TijvCiiixFhhLctCEhtXEZ59YH/PClQVJcioq0rbWHl0cWWzkDQJAJSm8G2C8lChzdyY5QXZXQlIozwtgkBqY3rKO/6wys5GEQpXYgII7xtQkBq89La15xGExnlRRVtjwgjvG1CQGrjOsqrKSyurFBFmyOi8w+XlTojvDEgILXR3u7u8Tft0WjcCwIf2hoRRnjbhIDUxvVekLOXziS7BlvsEVBNGyPCCG+bEJDaLLx7UTLYdt4ejaZ9Xe4FgS9tioi2rrSFlUfPEZ2BoGkEpFYu94IIo7zwqS0R0TYvI7xtQkBq5TrKO/6H5XyQP7xqQ0QY4W0bAlKr3eMH7Cor/0OjGOVFCLFHhBHetiEgtXId5d01eN4O00/bI8CvmCOi8w+XFTojvLEgILXSZ4Los0HyMMqLkGKNCCO8bUNAauU6ynvq4vFk74kd9ggII8aIuIzwXrOVx3pbgSAGBKRWD/zsweTopml7NJr2dxnlRWgxRURbV9rCyqPnhs5AEAMCUjuXUd4b319Pxvcvt0dAWLFExHWE99jHR5KD03zoWhwISO0OTb6XjC3O38PlXhDUJYaIuI7wcg9ITAhI7VzvBWGUF3VqOiKM8LYRAamd6ygvAUHdmoyIzj9cLqyem5pIvvzmc3uE5hGQ2rkGhFFeNKGpiLy96Uw6ZJKHEd6YEJDauY7y6q0a9NkgQN2aiAgjvG1EQGo3tnipHaQP7NFo2udllBdNqTMiek68NXncHo2m54TOQBALAtIIl1Heq99e4WoLjaorIjr70BlIHkZ4Y0NAGvHOpunkfof9XkZ50bQ6IsIIb1sRkEa4jvKuP7zSViK8aRyaFToim1e+nKx7In9rSttX2sZCLAhII15a+5rTzDujvIhFyIho+8rlgooR3tgQkEa4jvJqCkvTWEAMQkWEEd62IiCN0Pv+7B5/0x6Nxr0giE2IiDDC21YEpBGu94Jov5dRXsTGZ0QY4W0zAtIYl1FePWkICGLkKyI6+9AZSB5GeGNEQBrjEhBhlBex8hERRnjbjIA0xnWUd/wPy5MbP1y3R0B8qkaEEd42IyCN2T1+wA7T8w8FGeVF7KpERNtXLhdSjPDGiIA0xnWUd9+JncnJi8fsERCvshFhhLfNCEhj1ixbl+hDdPIwyou2KBMRRnjbjIA0xnWU99TF48neEzvsERC/IhEZY4S35QhIYxbevSgZbDtvj0bTk4dRXrSJa0R09qEzkDyM8MaKgDTKZZT3xvfXk/H9y+0R0B4uEWGEt+0ISKMOTb5ny/j8w0HuBUEb5UWEEd62IyCNcr0XhFFetNWoiGj7yuXnnxHeWBGQRrmO8u4aPJ+cvXTaHgHtM19EGOFtOwLSqHVPTCZbbBmfh1FetN1cEWGEt+0ISKNcR3n1mSD6bBCgzYYjwghvFxCQRulJdGhyYI9G05OIUV50QRYRnX3oDCQPI7wxIyCNcxnlvfrtFZbx6AxFhBHeLiAgjXtn03Ryv8NBIqO86JItK//ezgDzt6a0faUVOGJEQBrnOsr77NQ4o4zoDNefewISMwLSOE1haRorD/eCoEuOpiO8D9mj0RjhjRkBaZzrvSCawtI0FtAFLmd/N3/4Lv1ANcSKgDTu6UefSXaPv2mPRuNeEHRFkelDbWEhVgSkca73gujJxCgvusD1Z14fZaAPVEOsCEgUXJbzl+0A/Tk7SAfaTmd+OvvLwwhv7AhIFAbbLiQL777XHo3GKC+6wPXc75XBVt4DLmoEJAquI406ULzxw3V7BLSX68+7zj+0dYtYEZAo7B4/YIfp+XeaM8qLLnjLDtCX2EF6HkZ4Y0dAouC6pNeB4smLx+wR0F4uZ3430hHeJ+0F6Y6XJESDgERhzbJ1yfa1e+zRaIzyou30+R9HN03bo9G0dZVNHRKRWBGQKLiONZ69dCbZNdhij4B2cv1Z1wjv3hM77NEMIhIjAhKFhXcvSgbbztuj0YavyoA2ch3hnWu1TURiQ0Ci4bQv/P31ZHz/cnsEtJPred98H+NMRGJCQKLhOtrIvSBoM9ef81ETh0QkFgQkGj6eWEDsXEd48y6UiEgMCEg0qi7tgTZw2qq9NcKbh4g0jYBEo8rhItAGZUZ48xCRJhGQaJQdbwTaItTPOBFpCgGJRoirMyAmIVfZRKQJBCQqLvvDV7+9kqw/nP++WUBsQp/zEZG6EZCovGMrkPttJZInb0IFiFEdk4ZEpE4EJCquT7Bnp8aTL7/53B4B7eFrhDcPEakLAYmK9oe1T5yn7BIfaJLLFq3rCG8eIlIHAhIV1z3iYx9PJQemX7VHQDu4TmD5HBIhIqERkKi4vq27sI2FNnHdvvL9jtNEJCQCEhXXUV7RNNauwVYigujpokgXRy60stYK2yciEgoBic6hyfeSscVuH+Wpd+d94d2NRARR0scU7B5/I3n8kb+yX7lZf3ilXRx9bY/8IiIhEJDo6EpNV2xFHDm7Pzly7g17BMRBZx7b175qq+qH7Fduit6BXhQR8Y2ARMn1fpBhl20VcnB6jx1Cfmi/ApqhVceGFVuT3z45ab8qJtTqYxgR8YmARElXby4TK3PReO/BD14N/kQEhikc657YaF+TycIFi+yvFFPm7UvKIiK+EJBoud4TMp+TF4/ZYeQRzkcQlMKxetl4+rNaZLtq2JfffJE8O/U/7FF9iIgPBCRqu8cPJE8/Wu19rz756sPknz6eSs5dPmO/AvzQxODErybtzG6i1Iojo3jovo8bP1y3X9WLiFRFQKKmqzu9vYnrVNYoGvvVIeWpz47bY7a3UM6KJassGuvswuYZ+1U1uutc8WhylUxEqiAg0VNEtJ212q70fNGq5KTFRKuSJq780C5ji5cmq385YeGottoY1uTKYzYiUhYBaQ3XtzkpSofumtxSTFiZIKM39Vyx5Blbaayy7apyZxvz0d3m+07siCIeGSJSBgFpFW0bbF/7mq1K7rVf+adR4HMWlLMWkya3FVA/rXQfe3h5+jP2tIXD10pjthB3mvtCRIoiIK2jJ7oioivDkHSXu97YjtVJd2mVoa8VFg2X96mqQj9LWnXE/nNERIogIK2le0V0NuLjgN2FDuG1b62gzHz/yP4q2kIXHlphKBSKRpG3F6lCB+UHbdWhsfK2ICKuCEjraSJm44qthe9c90GH8ZfTmHyYXLv+7xaWz+2vIgaKhC4uxm4Fw/c5Rh6F49iFqXS7KqazDldExAUB6YwmQzJMUbl6/es0Jlqp6KuNLyBtofsx7l/0YBoJxUJ//lplNKXt4RhGRPIQkM7RIajuCtYLSix0nqKgKCzXbA9ch/U37YWGbTB3+vNUKBQMhUKDFHVtQ7nQn6tuWNW9Rm0PxzAiMgoB6Sy90Cgkq21lohebWGVxkSwoWWCuWXBiP3T1QX9WisM99uek1cM9dl6xxLafJKZIzEUjuac+O2bfT9uvuomIzIeA9IJWJat/qbuHw05uhZRGxWIjOne5eesqV4FRaIY1tW2mg2qdOwxTGBQI0fbSA/ZruWeBItHcVlMV2Wrj3OXT6e9/HxCRuRCQXtELnGKS3SDWJ5oi0wufL2kMaj6YbpJ+785aMPQOBtmKsW+IyGwEpLcUk8cfeSq9aSzdX7cXRGCYVnLamlI4+hqN2YjIMAKCW3Qwq5Do/hKFJeZzE4ShCSq9E4HOojSa3ZftqaKISIaAYB4Kifbz9Z2gdJOC8clXM7FQNFhluCMiQkDgSCsUHfoqKnqs1QraRVtSioW+ayiBYFRDRAgIKlBIhqOiL1YqcdCKQgffM6GYCQf863dECAg80+G8QqKoaHx15jFhCUVx0FmFVhNf/vnzHx+jPv2NCAFBjXSeItr+Wrjg3lthUXBuv3cCt9NqQnReoftbFI1r16+ksUAc+hkRAoKIZIFRUBSWLDKi711bxWiLSW/vIlo13Pj+ux8DIWw7tUv/IkJA0EIzMVlkj2zLTJG5b6k9mpH+2v7+bPprvgM0HIBhWikM09aS4iCsHLqtXxEhIADgVX8iQkAAwLt+RISAAEAQ3Y8IAQGAYLodEQICAEF1NyIEBACC62ZECAgA1KJ7ESEgAFCbbkWEgABArboTEQICALXrRkQICAA0ov0RISAA0Jh2R4SAAECj2hsRAgIAjWtnRAgIAEShfREhIAAQjXZFhIAAQFTaExECAgDRaUdECAgARCn+iBAQAIhW3BEhIAAQtXgjQkAAIHpxRoSAAEArxBcRAgIArRFXRAgIALRKPBEhIADQOnFEhIAAQCs1HxECAgCt1WxECAgAtFpzESEgANB6zUSEgABAJ9QfEQICAJ1Rb0QICAB0Sn0RISAA0Dn1RISAAEAnhY8IAQGAzgobEQICAJ0WLiIEBAA6L0xECAgA9IL/iBAQAOgNvxEhIADQK/4iQkAAoHf8RISAAEAvVY8IAQGA3qoWEQICAL1WPiIEBAB6r1xECAgAwBSPCAEBANxSLCIEBAAwxD0iBAQAMItbRAgIAGAO+REhIACAeYyOCAEBAIwwf0QICAAgx9wRISAAAAd3RoSAAAAc3R4RAgIAKOCniBAQAEBBMxFxCMiqvT//R/uL/9UeAgCQsi78v/df+tPf2cMf2V8DAKA4AgIAKIWAAABKISAAgFL+A8j95kSiOrapAAAAAElFTkSuQmCC;" vertex="1" parent="1">
          <mxGeometry x="555" y="735" width="90" height="90" as="geometry" />
        </mxCell>
        <mxCell id="COWz8Rfewct7J5CobRBN-13" value="" style="shape=image;imageAspect=0;aspect=fixed;verticalLabelPosition=bottom;verticalAlign=top;image=https://upload.wikimedia.org/wikipedia/commons/f/f1/AWS_Simple_Icons_Virtual_Private_Cloud.svg;" vertex="1" parent="1">
          <mxGeometry x="580" y="295" width="104" height="65" as="geometry" />
        </mxCell>
        <mxCell id="COWz8Rfewct7J5CobRBN-17" value="" style="endArrow=classic;startArrow=classic;html=1;rounded=0;entryX=0.005;entryY=0.555;entryDx=0;entryDy=0;entryPerimeter=0;" edge="1" parent="1">
          <mxGeometry width="50" height="50" relative="1" as="geometry">
            <mxPoint x="360" y="541" as="sourcePoint" />
            <mxPoint x="440" y="540.5000000000001" as="targetPoint" />
          </mxGeometry>
        </mxCell>
        <mxCell id="COWz8Rfewct7J5CobRBN-18" value="" style="endArrow=classic;startArrow=classic;html=1;rounded=0;entryX=0.005;entryY=0.555;entryDx=0;entryDy=0;entryPerimeter=0;" edge="1" parent="1">
          <mxGeometry width="50" height="50" relative="1" as="geometry">
            <mxPoint x="360" y="750.4999999999999" as="sourcePoint" />
            <mxPoint x="440" y="750" as="targetPoint" />
          </mxGeometry>
        </mxCell>
        <mxCell id="COWz8Rfewct7J5CobRBN-20" value="" style="endArrow=classic;startArrow=classic;html=1;rounded=0;entryX=0.5;entryY=0;entryDx=0;entryDy=0;exitX=0.5;exitY=1;exitDx=0;exitDy=0;" edge="1" parent="1" source="COWz8Rfewct7J5CobRBN-2" target="COWz8Rfewct7J5CobRBN-4">
          <mxGeometry width="50" height="50" relative="1" as="geometry">
            <mxPoint x="450" y="250.4999999999999" as="sourcePoint" />
            <mxPoint x="530" y="250" as="targetPoint" />
          </mxGeometry>
        </mxCell>
        <mxCell id="COWz8Rfewct7J5CobRBN-21" value="SubnetRDS" style="text;html=1;align=center;verticalAlign=middle;whiteSpace=wrap;rounded=0;" vertex="1" parent="1">
          <mxGeometry x="646" y="410" width="80" height="30" as="geometry" />
        </mxCell>
        <mxCell id="COWz8Rfewct7J5CobRBN-22" value="SubnetS3" style="text;html=1;align=center;verticalAlign=middle;whiteSpace=wrap;rounded=0;" vertex="1" parent="1">
          <mxGeometry x="645" y="650" width="80" height="30" as="geometry" />
        </mxCell>
        <mxCell id="COWz8Rfewct7J5CobRBN-23" value="SubnetEC2" style="text;html=1;align=center;verticalAlign=middle;whiteSpace=wrap;rounded=0;" vertex="1" parent="1">
          <mxGeometry x="250" y="410" width="80" height="30" as="geometry" />
        </mxCell>
        <mxCell id="COWz8Rfewct7J5CobRBN-24" value="Load Balancer" style="text;html=1;align=center;verticalAlign=middle;whiteSpace=wrap;rounded=0;" vertex="1" parent="1">
          <mxGeometry x="465" y="330" width="80" height="30" as="geometry" />
        </mxCell>
        <mxCell id="COWz8Rfewct7J5CobRBN-25" value="Users" style="text;html=1;align=center;verticalAlign=middle;whiteSpace=wrap;rounded=0;" vertex="1" parent="1">
          <mxGeometry x="465" y="230" width="80" height="30" as="geometry" />
        </mxCell>
      </root>
    </mxGraphModel>
  </diagram>
</mxfile>
